<svg id="Capa_1" enable-background="new 0 0 488.471 488.471" height="512" viewBox="0 0 488.471 488.471" width="512" xmlns="http://www.w3.org/2000/svg"><path d="m244.235 0c-134.669 0-244.235 109.566-244.235 244.235s109.566 244.235 244.235 244.235 244.235-109.566 244.235-244.235-109.565-244.235-244.235-244.235zm-183.176 244.235c0-101.009 82.167-183.176 183.176-183.176s183.176 82.167 183.176 183.176c0 18.481-2.808 36.306-7.921 53.138l-114.196-114.197-190.525 190.526c-33.168-33.168-53.71-78.962-53.71-129.467z"/><path d="m200.293 150.795c17.884 17.884 17.884 46.879 0 64.763s-46.879 17.884-64.763 0-17.884-46.879 0-64.763 46.879-17.884 64.763 0"/></svg>