<svg width="80px" height="80px" viewBox="0 0 80 80" xmlns="http://www.w3.org/2000/svg"><defs><rect x="0" y="0" width="80" height="80" rx="1"></rect><linearGradient x1="99.1729114%" y1="49.1729114%" x2="0.827088648%" y2="49.1729114%" id="linearGradient-3"><stop offset="0%" style="stop-color: rgb(255, 31, 107);"></stop><stop offset="100%" style="stop-color: rgb(255, 150, 78);"></stop></linearGradient></defs><g style="fill: none; fill-rule: evenodd; stroke: none; stroke-width: 1;"><g><g><rect x="0" y="0" width="80" height="46" style="fill: url(&quot;#linearGradient-3&quot;);"></rect><path d="M46.4461,17.9234 C45.6981,17.9234 45.0901,17.3164 45.0901,16.5694 C45.0901, 15.8224 45.6981,15.2154 46.4461,15.2154 C47.1921,15.2154 47.8001,15.8224 47.8001, 16.5694 C47.8001,17.3164 47.1921,17.9234 46.4461,17.9234" style="fill: rgb(255, 255, 255);"></path><path d="M33.9934,13.3923 C32.0084,13.3923 30.3924,15.0083 30.3924,16.9933 L30.3924, 29.0063 C30.3924,30.9923 32.0084,32.6073 33.9934,32.6073 L46.0064,32.6073 C47.9924, 32.6073 49.6074,30.9923 49.6074,29.0063 L49.6074,16.9933 C49.6074,15.0083 47.9924, 13.3923 46.0064,13.3923 L33.9934,13.3923 Z M33.9934,35.0003 C30.6884,35.0003 28.0004, 32.3113 28.0004,29.0063 L28.0004,16.9933 C28.0004,13.6883 30.6884,11.0003 33.9934, 11.0003 L46.0064,11.0003 C49.3114,11.0003 52.0004,13.6883 52.0004,16.9933 L52.0004, 29.0063 C52.0004,32.3113 49.3114,35.0003 46.0064,35.0003 L33.9934,35.0003 Z" style="fill: rgb(255, 255, 255);"></path><path d="M40,19.2713 C37.944,19.2713 36.271,20.9443 36.271,23.0003 C36.271,25.0563 37.944, 26.7283 40,26.7283 C42.056,26.7283 43.729,25.0563 43.729,23.0003 C43.729, 20.9443 42.056,19.2713 40,19.2713 M40,29.1223 C36.624,29.1223 33.878,26.3763 33.878, 23.0003 C33.878,19.6243 36.624,16.8793 40,16.8793 C43.376,16.8793 46.122,19.6243 46.122, 23.0003 C46.122,26.3763 43.376,29.1223 40,29.1223" style="fill: rgb(255, 255, 255);"></path></g><polygon points="7 60 73 60 73 53 7 53" style="fill: rgb(223, 224, 230); fill-opacity: 0.6;"></polygon><polygon points="7 73 73 73 73 66 7 66" style="fill: rgb(223, 224, 230); fill-opacity: 0.6;"></polygon></g></g></svg>
