<?xml version="1.0" encoding="iso-8859-1"?>
<!-- Generator: Adobe Illustrator 19.0.0, SVG Export Plug-In . SVG Version: 6.00 Build 0)  -->
<svg version="1.1" id="Layer_1" xmlns="http://www.w3.org/2000/svg" xmlns:xlink="http://www.w3.org/1999/xlink" x="0px" y="0px"
	 viewBox="0 0 503.596 503.596" style="enable-background:new 0 0 503.596 503.596;" xml:space="preserve">
<g>
	<g>
		<path d="M503.592,84.774c0-10.968-8.892-19.86-19.852-19.86H19.86C8.892,64.914,0,73.806,0,84.774v334.048
			c0,10.968,8.892,19.86,19.86,19.86h463.884c10.96,0,19.852-8.892,19.852-19.86V84.774H503.592z M259.668,96.394
			c0-2.172,1.756-3.936,3.936-3.936h31.476c2.172,0,3.928,1.764,3.928,3.936v31.476c0,2.18-1.756,3.928-3.928,3.928h-31.476
			c-2.18,0-3.936-1.752-3.936-3.928V96.394z M204.588,96.394c0-2.172,1.764-3.936,3.936-3.936h31.472
			c2.172,0,3.932,1.764,3.932,3.936v31.476c0,2.18-1.76,3.928-3.932,3.928h-31.472c-2.172,0-3.936-1.752-3.936-3.928V96.394z
			 M78.688,407.206c0,2.172-1.756,3.928-3.936,3.928H43.284c-2.172,0-3.936-1.756-3.936-3.928V375.73
			c0-2.172,1.764-3.936,3.936-3.936h31.468c2.18,0,3.936,1.764,3.936,3.936V407.206z M78.688,127.87c0,2.18-1.756,3.928-3.936,3.928
			H43.284c-2.172,0-3.936-1.752-3.936-3.928V96.394c0-2.172,1.764-3.936,3.936-3.936h31.468c2.18,0,3.936,1.764,3.936,3.936V127.87z
			 M133.772,407.206c0,2.172-1.764,3.928-3.936,3.928H98.36c-2.172,0-3.928-1.756-3.928-3.928V375.73
			c0-2.172,1.756-3.936,3.928-3.936h31.476c2.172,0,3.936,1.764,3.936,3.936V407.206z M133.772,127.87
			c0,2.18-1.764,3.928-3.936,3.928H98.36c-2.172,0-3.928-1.752-3.928-3.928V96.394c0-2.172,1.756-3.936,3.928-3.936h31.476
			c2.172,0,3.936,1.764,3.936,3.936V127.87z M188.852,407.206c0,2.172-1.764,3.928-3.936,3.928h-31.472
			c-2.176,0-3.932-1.756-3.932-3.928V375.73c0-2.172,1.756-3.936,3.932-3.936h31.472c2.172,0,3.936,1.764,3.936,3.936V407.206z
			 M188.852,127.87c0,2.18-1.764,3.928-3.936,3.928h-31.472c-2.176,0-3.932-1.752-3.932-3.928V96.394
			c0-2.172,1.756-3.936,3.932-3.936h31.472c2.172,0,3.936,1.764,3.936,3.936V127.87z M196.716,316.338v-135.96
			c0-11.624,5.964-19.116,15.08-19.116c4.064,0,8.4,1.516,12.796,4.516l95.164,64.652c6.852,4.664,10.632,11.032,10.632,17.936
			c0,6.892-3.764,13.256-10.616,17.916l-95.14,64.672c-4.404,2.992-8.776,4.508-12.84,4.508
			C202.68,335.462,196.716,327.962,196.716,316.338z M243.928,407.206c0,2.172-1.76,3.928-3.932,3.928h-31.472
			c-2.172,0-3.936-1.756-3.936-3.928V375.73c0-2.172,1.764-3.936,3.936-3.936h31.472c2.172,0,3.932,1.764,3.932,3.936V407.206z
			 M299.008,407.206c0,2.172-1.756,3.928-3.928,3.928h-31.476c-2.18,0-3.936-1.756-3.936-3.928V375.73
			c0-2.172,1.756-3.936,3.936-3.936h31.476c2.172,0,3.928,1.764,3.928,3.936V407.206z M354.084,407.206
			c0,2.172-1.752,3.928-3.928,3.928H318.68c-2.172,0-3.928-1.756-3.928-3.928V375.73c0-2.172,1.756-3.936,3.928-3.936h31.476
			c2.18,0,3.928,1.764,3.928,3.936V407.206z M354.084,127.87c0,2.18-1.752,3.928-3.928,3.928H318.68
			c-2.172,0-3.928-1.752-3.928-3.928V96.394c0-2.172,1.756-3.936,3.928-3.936h31.476c2.18,0,3.928,1.764,3.928,3.936V127.87z
			 M405.236,411.134h-31.48c-2.164,0-3.928-1.756-3.928-3.928V375.73c0-2.172,1.764-3.936,3.928-3.936h31.476
			c2.18,0,3.936,1.764,3.936,3.936v31.476h0.004C409.172,409.378,407.416,411.134,405.236,411.134z M405.236,131.798h-31.48
			c-2.164,0-3.928-1.752-3.928-3.928V96.394c0-2.172,1.764-3.936,3.928-3.936h31.476c2.18,0,3.936,1.764,3.936,3.936v31.476h0.004
			C409.172,130.05,407.416,131.798,405.236,131.798z M464.248,407.206c0,2.172-1.756,3.928-3.936,3.928h-31.468
			c-2.172,0-3.936-1.756-3.936-3.928V375.73c0-2.172,1.764-3.936,3.936-3.936h31.468c2.18,0,3.936,1.764,3.936,3.936V407.206z
			 M464.248,127.87c0,2.18-1.756,3.928-3.936,3.928h-31.468c-2.172,0-3.936-1.752-3.936-3.928V96.394
			c0-2.172,1.764-3.936,3.936-3.936h31.468c2.18,0,3.936,1.764,3.936,3.936V127.87z"/>
	</g>
</g>
</svg>
