<?xml version="1.0" standalone="no"?>
<!DOCTYPE svg PUBLIC "-//W3C//DTD SVG 1.1//EN" "http://www.w3.org/Graphics/SVG/1.1/DTD/svg11.dtd" >
<svg>
<metadata>
Created by FontForge 20120731 at Thu Nov 15 05:29:42 2018
 By videyoz
Copyright (c) 2014 by Fontfabric. All rights reserved.
</metadata>
<defs>
<font id="NexaRustHandmade-Extended" horiz-adv-x="1293" >
  <font-face 
    font-family="Nexa Rust Handmade Extended"
    font-weight="400"
    font-stretch="normal"
    units-per-em="1000"
    panose-1="0 0 5 0 0 0 0 0 0 0"
    ascent="750"
    descent="-250"
    x-height="629"
    cap-height="687"
    bbox="-13 -361 1243 872.134"
    underline-thickness="50"
    underline-position="-50"
    unicode-range="U+0020-25CA"
  />
<missing-glyph horiz-adv-x="500" 
d="M499 -1l-512 1l1 701h511v-702zM117 615l126 -187l126 187h-252zM73 172l119 178l-119 178v-356zM294 350l120 -178v356zM117 85h252l-126 187z" />
    <glyph glyph-name=".notdef" horiz-adv-x="500" 
d="M499 -1l-512 1l1 701h511v-702zM117 615l126 -187l126 187h-252zM73 172l119 178l-119 178v-356zM294 350l120 -178v356zM117 85h252l-126 187z" />
    <glyph glyph-name="A" unicode="A" horiz-adv-x="633" 
d="M341 655c-13 48 -59 51 -82 -7c-42 -94 -82 -254 -123 -348h-42c-57 1 -58 -60 14 -64c-30 -50 -64 -147 -76 -192c-28 -74 54 -76 67 -37c26 87 68 156 96 229c19 0 191 1 234 0c21 -58 57 -117 82 -206c18 -60 110 -80 77 17c-24 63 -55 125 -79 188c9 0 19 1 28 1
c77 7 77 79 7 79c-24 -1 -42 -3 -62 -4c-35 63 -97 224 -141 344zM303 546c32 -98 67 -179 94 -234c-25 1 -159 -3 -174 -3c22 51 52 160 80 237z" />
    <glyph glyph-name="Aacute" unicode="&#xc1;" horiz-adv-x="633" 
d="M323 837c23 27 74 -6 51 -33c-17 -20 -56 -49 -73 -69c-21 -23 -64 -1 -42 31c13 19 51 52 64 71zM341 655c-13 48 -59 51 -82 -7c-42 -94 -82 -254 -123 -348h-42c-57 1 -58 -60 14 -64c-30 -50 -64 -147 -76 -192c-28 -74 54 -76 67 -37c26 87 68 156 96 229
c19 0 191 1 234 0c21 -58 57 -117 82 -206c18 -60 110 -80 77 17c-24 63 -55 125 -79 188c9 0 19 1 28 1c77 7 77 79 7 79c-24 -1 -42 -3 -62 -4c-35 63 -97 224 -141 344zM303 546c32 -98 67 -179 94 -234c-25 1 -159 -3 -174 -3c22 51 52 160 80 237z" />
    <glyph glyph-name="Abreve" unicode="&#x102;" horiz-adv-x="633" 
d="M352 826c24 25 51 -6 34 -32c-20 -30 -53 -53 -97 -53s-77 23 -97 53c-17 26 10 57 34 32c19 -19 30 -33 63 -33s44 14 63 33zM341 655c-13 48 -59 51 -82 -7c-42 -94 -82 -254 -123 -348h-42c-57 1 -58 -60 14 -64c-30 -50 -64 -147 -76 -192c-28 -74 54 -76 67 -37
c26 87 68 156 96 229c19 0 191 1 234 0c21 -58 57 -117 82 -206c18 -60 110 -80 77 17c-24 63 -55 125 -79 188c9 0 19 1 28 1c77 7 77 79 7 79c-24 -1 -42 -3 -62 -4c-35 63 -97 224 -141 344zM303 546c32 -98 67 -179 94 -234c-25 1 -159 -3 -174 -3c22 51 52 160 80 237z
" />
    <glyph glyph-name="Acircumflex" unicode="&#xc2;" horiz-adv-x="633" 
d="M305 842c39 -23 72 -47 94 -63c28 -21 -3 -69 -27 -49c-35 29 -60 46 -78 61c-25 -18 -66 -37 -87 -53c-25 -20 -60 6 -35 34c17 19 118 84 133 70zM341 655c-13 48 -59 51 -82 -7c-42 -94 -82 -254 -123 -348h-42c-57 1 -58 -60 14 -64c-30 -50 -64 -147 -76 -192
c-28 -74 54 -76 67 -37c26 87 68 156 96 229c19 0 191 1 234 0c21 -58 57 -117 82 -206c18 -60 110 -80 77 17c-24 63 -55 125 -79 188c9 0 19 1 28 1c77 7 77 79 7 79c-24 -1 -42 -3 -62 -4c-35 63 -97 224 -141 344zM303 546c32 -98 67 -179 94 -234
c-25 1 -159 -3 -174 -3c22 51 52 160 80 237z" />
    <glyph glyph-name="Adieresis" unicode="&#xc4;" horiz-adv-x="633" 
d="M346 796c30 3 47 -6 53 -19c9 -18 -9 -45 -52 -45c-37 0 -36 60 -1 64zM245 797c41 0 42 -67 1 -67c-19 0 -50 7 -50 34c-1 23 13 33 49 33zM341 655c-13 48 -59 51 -82 -7c-42 -94 -82 -254 -123 -348h-42c-57 1 -58 -60 14 -64c-30 -50 -64 -147 -76 -192
c-28 -74 54 -76 67 -37c26 87 68 156 96 229c19 0 191 1 234 0c21 -58 57 -117 82 -206c18 -60 110 -80 77 17c-24 63 -55 125 -79 188c9 0 19 1 28 1c77 7 77 79 7 79c-24 -1 -42 -3 -62 -4c-35 63 -97 224 -141 344zM303 546c32 -98 67 -179 94 -234
c-25 1 -159 -3 -174 -3c22 51 52 160 80 237z" />
    <glyph glyph-name="Agrave" unicode="&#xc0;" horiz-adv-x="633" 
d="M285 837c13 -19 42 -52 55 -71c22 -32 -21 -54 -42 -31c-17 20 -48 49 -65 69c-23 27 29 60 52 33zM341 655c-13 48 -59 51 -82 -7c-42 -94 -82 -254 -123 -348h-42c-57 1 -58 -60 14 -64c-30 -50 -64 -147 -76 -192c-28 -74 54 -76 67 -37c26 87 68 156 96 229
c19 0 191 1 234 0c21 -58 57 -117 82 -206c18 -60 110 -80 77 17c-24 63 -55 125 -79 188c9 0 19 1 28 1c77 7 77 79 7 79c-24 -1 -42 -3 -62 -4c-35 63 -97 224 -141 344zM303 546c32 -98 67 -179 94 -234c-25 1 -159 -3 -174 -3c22 51 52 160 80 237z" />
    <glyph glyph-name="Amacron" unicode="&#x100;" horiz-adv-x="633" 
d="M362 804c40 2 49 -51 6 -53c-38 -2 -109 -3 -147 0c-39 3 -44 55 -1 53c37 -2 105 -2 142 0zM341 655c-13 48 -59 51 -82 -7c-42 -94 -82 -254 -123 -348h-42c-57 1 -58 -60 14 -64c-30 -50 -64 -147 -76 -192c-28 -74 54 -76 67 -37c26 87 68 156 96 229
c19 0 191 1 234 0c21 -58 57 -117 82 -206c18 -60 110 -80 77 17c-24 63 -55 125 -79 188c9 0 19 1 28 1c77 7 77 79 7 79c-24 -1 -42 -3 -62 -4c-35 63 -97 224 -141 344zM303 546c32 -98 67 -179 94 -234c-25 1 -159 -3 -174 -3c22 51 52 160 80 237z" />
    <glyph glyph-name="Aogonek" unicode="&#x104;" horiz-adv-x="667" 
d="M598 -106c23 21 43 -16 24 -39c-24 -30 -82 -32 -109 9c-21 32 -11 92 19 132c-9 9 -17 20 -21 34c-25 89 -61 148 -82 206c-43 1 -215 0 -234 0c-28 -73 -70 -142 -96 -229c-13 -39 -95 -37 -67 37c12 45 46 142 76 192c-72 4 -71 65 -14 64h42c41 94 81 254 123 348
c23 58 69 55 82 7c44 -120 106 -281 141 -344c20 1 38 3 62 4c70 0 70 -72 -7 -79c-9 0 -19 -1 -28 -1c24 -63 55 -125 79 -188c15 -43 5 -63 -13 -67c-19 -26 -25 -66 -15 -82s23 -18 38 -4zM223 309c15 0 149 4 174 3c-27 55 -62 136 -94 234c-28 -77 -58 -186 -80 -237z
" />
    <glyph glyph-name="Aring" unicode="&#xc5;" horiz-adv-x="633" 
d="M310 859c8 4 20 5 28 -2c62 -39 13 -146 -64 -125c-37 10 -56 48 -41 80c14 32 47 47 77 47zM312 819c-3 2 -8 0 -11 -2c-11 0 -25 -7 -30 -18c-6 -11 2 -24 16 -26c30 -9 46 31 25 46zM341 655c-13 48 -59 51 -82 -7c-42 -94 -82 -254 -123 -348h-42
c-57 1 -58 -60 14 -64c-30 -50 -64 -147 -76 -192c-28 -74 54 -76 67 -37c26 87 68 156 96 229c19 0 191 1 234 0c21 -58 57 -117 82 -206c18 -60 110 -80 77 17c-24 63 -55 125 -79 188c9 0 19 1 28 1c77 7 77 79 7 79c-24 -1 -42 -3 -62 -4c-35 63 -97 224 -141 344z
M303 546c32 -98 67 -179 94 -234c-25 1 -159 -3 -174 -3c22 51 52 160 80 237z" />
    <glyph glyph-name="Atilde" unicode="&#xc3;" horiz-adv-x="633" 
d="M257 814c18 -4 53 -29 68 -33c30 -8 35 11 39 17c9 13 44 5 37 -24c-4 -15 -29 -43 -56 -43c-31 0 -61 20 -78 28c-13 6 -30 7 -37 -8c-10 -21 -52 -11 -45 25c6 31 41 44 72 38zM341 655c-13 48 -59 51 -82 -7c-42 -94 -82 -254 -123 -348h-42c-57 1 -58 -60 14 -64
c-30 -50 -64 -147 -76 -192c-28 -74 54 -76 67 -37c26 87 68 156 96 229c19 0 191 1 234 0c21 -58 57 -117 82 -206c18 -60 110 -80 77 17c-24 63 -55 125 -79 188c9 0 19 1 28 1c77 7 77 79 7 79c-24 -1 -42 -3 -62 -4c-35 63 -97 224 -141 344zM303 546
c32 -98 67 -179 94 -234c-25 1 -159 -3 -174 -3c22 51 52 160 80 237z" />
    <glyph glyph-name="AE" unicode="&#xc6;" horiz-adv-x="913" 
d="M416 697c46 6 278 2 383 -3c56 2 53 -66 -1 -70c-7 0 -303 6 -345 3l6 -228c88 -6 249 -9 333 14c57 16 84 -39 24 -70c-128 -24 -176 -12 -356 -12c1 -49 4 -201 10 -257c99 -5 329 15 361 15c72 -6 56 -74 -15 -74c-8 1 -276 -15 -367 -15c-34 0 -49 15 -50 46
c-2 48 -6 96 -13 207c-39 2 -129 -1 -169 -1c-44 -74 -91 -163 -127 -233c-35 -36 -79 1 -59 44c24 51 60 127 97 191c-64 13 -55 72 2 72h40c74 113 107 227 183 342c18 23 33 28 63 29zM381 586c-39 -74 -102 -226 -127 -267c46 0 101 6 131 2c0 45 0 109 -4 265z" />
    <glyph glyph-name="B" unicode="B" horiz-adv-x="673" 
d="M37 680c139 12 478 43 478 -127c0 -44 -69 -85 -150 -95c41 -6 98 -18 135 -38c69 -38 128 -81 128 -169c0 -160 -98 -226 -209 -258c-57 -15 -182 -17 -263 14c-24 -47 -91 -43 -78 15c-9 5 -16 9 -22 14c-55 41 -37 90 18 69c7 -2 13 -5 20 -9c11 95 17 220 17 315
c-108 -8 -87 76 -36 76h35c-2 42 -4 73 -8 117h-24c-62 0 -69 74 -41 76zM178 611c4 -40 8 -84 10 -122c113 -1 248 21 248 63c0 69 -202 63 -258 59zM219 411h-32c0 -109 -13 -332 -16 -332c83 -20 149 -28 226 -11c106 24 154 91 154 179c0 56 -52 101 -101 127
c-62 26 -182 39 -231 37z" />
    <glyph glyph-name="C" unicode="C" horiz-adv-x="606" 
d="M332 697c223 0 222 -112 211 -239c0 -70 -97 -54 -80 5c15 92 6 159 -138 159c-102 0 -190 -83 -199 -221c-5 -62 -2 -249 90 -307c64 -38 140 -49 194 -13c43 30 53 53 79 121c7 23 81 11 81 -13c-33 -91 -61 -137 -116 -175c-55 -36 -145 -41 -191 -27
c-78 20 -186 90 -210 230c-17 124 -10 105 -10 182c9 199 132 298 289 298z" />
    <glyph glyph-name="Cacute" unicode="&#x106;" horiz-adv-x="606" 
d="M357 846c23 27 74 -6 51 -33c-17 -20 -56 -49 -73 -69c-21 -23 -64 -1 -42 31c13 19 51 52 64 71zM332 697c223 0 222 -112 211 -239c0 -70 -97 -54 -80 5c15 92 6 159 -138 159c-102 0 -190 -83 -199 -221c-5 -62 -2 -249 90 -307c64 -38 140 -49 194 -13
c43 30 53 53 79 121c7 23 81 11 81 -13c-33 -91 -61 -137 -116 -175c-55 -36 -145 -41 -191 -27c-78 20 -186 90 -210 230c-17 124 -10 105 -10 182c9 199 132 298 289 298z" />
    <glyph glyph-name="Ccaron" unicode="&#x10c;" horiz-adv-x="606" 
d="M398 852c22 21 58 -18 30 -44c-20 -19 -50 -32 -94 -59c-15 -14 -93 45 -110 65c-15 18 13 57 38 37c21 -16 36 -33 61 -51c18 15 59 37 75 52zM332 697c223 0 222 -112 211 -239c0 -70 -97 -54 -80 5c15 92 6 159 -138 159c-102 0 -190 -83 -199 -221
c-5 -62 -2 -249 90 -307c64 -38 140 -49 194 -13c43 30 53 53 79 121c7 23 81 11 81 -13c-33 -91 -61 -137 -116 -175c-55 -36 -145 -41 -191 -27c-78 20 -186 90 -210 230c-17 124 -10 105 -10 182c9 199 132 298 289 298z" />
    <glyph glyph-name="Ccedilla" unicode="&#xc7;" horiz-adv-x="606" 
d="M489 202c7 23 81 11 81 -13c-33 -91 -61 -137 -116 -175c-33 -22 -78 -32 -119 -34c-2 -9 -5 -18 -7 -24c38 2 55 -25 58 -51c3 -22 -8 -49 -27 -63c-32 -24 -94 -12 -105 21c-7 22 19 40 34 20c11 -14 26 -17 39 -7c18 14 16 46 -22 44c-22 -5 -28 0 -23 23l9 38l-28 6
c-78 20 -186 90 -210 230c-17 124 -10 105 -10 182c9 199 132 298 289 298c223 0 222 -112 211 -239c0 -70 -97 -54 -80 5c15 92 6 159 -138 159c-102 0 -190 -83 -199 -221c-5 -62 -2 -249 90 -307c64 -38 140 -49 194 -13c43 30 53 53 79 121z" />
    <glyph glyph-name="Cdotaccent" unicode="&#x10a;" horiz-adv-x="606" 
d="M323 828c73 -2 76 -71 3 -71c-17 0 -38 15 -40 30c-5 25 13 41 37 41zM332 697c223 0 222 -112 211 -239c0 -70 -97 -54 -80 5c15 92 6 159 -138 159c-102 0 -190 -83 -199 -221c-5 -62 -2 -249 90 -307c64 -38 140 -49 194 -13c43 30 53 53 79 121c7 23 81 11 81 -13
c-33 -91 -61 -137 -116 -175c-55 -36 -145 -41 -191 -27c-78 20 -186 90 -210 230c-17 124 -10 105 -10 182c9 199 132 298 289 298z" />
    <glyph glyph-name="D" unicode="D" horiz-adv-x="762" 
d="M353 693c228 -20 357 -92 360 -309c5 -350 -387 -420 -559 -399c-33 0 -48 31 -49 54c9 185 15 378 -4 550c-5 -2 -16 -7 -21 -8c-52 -25 -73 49 -31 73c100 33 212 39 304 39zM350 613c-33 2 -118 1 -172 -7c21 -173 18 -372 8 -545c58 -7 140 1 220 26
c139 44 225 161 225 292c0 167 -106 226 -281 234z" />
    <glyph glyph-name="Eth" unicode="&#xd0;" horiz-adv-x="742" 
d="M693 384c5 -350 -387 -420 -559 -399c-33 0 -48 31 -49 54c4 76 7 154 8 230c-21 0 -39 1 -52 0c-34 2 -34 75 -4 76c15 1 35 1 56 1c0 84 -3 165 -12 243c-5 -2 -16 -7 -21 -8c-52 -25 -73 49 -31 73c100 33 212 39 304 39c228 -20 357 -92 360 -309zM386 87
c139 44 225 161 225 292c0 167 -106 226 -281 234c-33 2 -118 1 -172 -7c10 -83 15 -172 16 -261c36 -1 70 -1 92 2c43 4 75 -69 6 -76c-24 -3 -60 -3 -99 -3c0 -71 -3 -141 -7 -207c58 -7 140 1 220 26z" />
    <glyph glyph-name="Dcaron" unicode="&#x10e;" horiz-adv-x="762" 
d="M397 854c22 21 58 -18 30 -44c-20 -19 -50 -32 -94 -59c-15 -14 -93 45 -110 65c-15 18 13 57 38 37c21 -16 36 -33 61 -51c18 15 59 37 75 52zM353 693c228 -20 357 -92 360 -309c5 -350 -387 -420 -559 -399c-33 0 -48 31 -49 54c9 185 15 378 -4 550
c-5 -2 -16 -7 -21 -8c-52 -25 -73 49 -31 73c100 33 212 39 304 39zM350 613c-33 2 -118 1 -172 -7c21 -173 18 -372 8 -545c58 -7 140 1 220 26c139 44 225 161 225 292c0 167 -106 226 -281 234z" />
    <glyph glyph-name="Dcroat" unicode="&#x110;" horiz-adv-x="742" 
d="M693 384c5 -350 -387 -420 -559 -399c-33 0 -48 31 -49 54c4 76 7 154 8 230c-21 0 -39 1 -52 0c-34 2 -34 75 -4 76c15 1 35 1 56 1c0 84 -3 165 -12 243c-5 -2 -16 -7 -21 -8c-52 -25 -73 49 -31 73c100 33 212 39 304 39c228 -20 357 -92 360 -309zM386 87
c139 44 225 161 225 292c0 167 -106 226 -281 234c-33 2 -118 1 -172 -7c10 -83 15 -172 16 -261c36 -1 70 -1 92 2c43 4 75 -69 6 -76c-24 -3 -60 -3 -99 -3c0 -71 -3 -141 -7 -207c58 -7 140 1 220 26z" />
    <glyph glyph-name="E" unicode="E" horiz-adv-x="612" 
d="M498 684c55 2 54 -71 0 -75c-51 0 -304 6 -346 3c1 -21 6 -161 7 -216c88 -6 248 -3 332 7c58 4 84 -39 25 -70c-125 -23 -283 -12 -356 -12c0 -13 5 -244 8 -267c105 -5 331 15 363 15c71 -6 55 -75 -15 -75c-57 0 -90 -2 -118 -4c-59 -4 -92 -11 -270 -11
c-5 0 -31 13 -32 28c-12 48 -11 82 -11 139c1 40 -4 151 -4 162c-3 111 -7 285 -7 300l-17 -3c-55 -2 -52 62 -9 74c16 2 31 4 44 5c43 6 319 4 406 0z" />
    <glyph glyph-name="Eacute" unicode="&#xc9;" horiz-adv-x="612" 
d="M328 847c23 27 74 -6 51 -33c-17 -20 -56 -49 -73 -69c-21 -23 -64 -1 -42 31c13 19 51 52 64 71zM498 684c55 2 54 -71 0 -75c-51 0 -304 6 -346 3c1 -21 6 -161 7 -216c88 -6 248 -3 332 7c58 4 84 -39 25 -70c-125 -23 -283 -12 -356 -12c0 -13 5 -244 8 -267
c105 -5 331 15 363 15c71 -6 55 -75 -15 -75c-57 0 -90 -2 -118 -4c-59 -4 -92 -11 -270 -11c-5 0 -31 13 -32 28c-12 48 -11 82 -11 139c1 40 -4 151 -4 162c-3 111 -7 285 -7 300l-17 -3c-55 -2 -52 62 -9 74c16 2 31 4 44 5c43 6 319 4 406 0z" />
    <glyph glyph-name="Ecaron" unicode="&#x11a;" horiz-adv-x="612" 
d="M369 853c22 21 58 -18 30 -44c-20 -19 -50 -32 -94 -59c-15 -14 -93 45 -110 65c-15 18 13 57 38 37c21 -16 36 -33 61 -51c18 15 59 37 75 52zM498 684c55 2 54 -71 0 -75c-51 0 -304 6 -346 3c1 -21 6 -161 7 -216c88 -6 248 -3 332 7c58 4 84 -39 25 -70
c-125 -23 -283 -12 -356 -12c0 -13 5 -244 8 -267c105 -5 331 15 363 15c71 -6 55 -75 -15 -75c-57 0 -90 -2 -118 -4c-59 -4 -92 -11 -270 -11c-5 0 -31 13 -32 28c-12 48 -11 82 -11 139c1 40 -4 151 -4 162c-3 111 -7 285 -7 300l-17 -3c-55 -2 -52 62 -9 74
c16 2 31 4 44 5c43 6 319 4 406 0z" />
    <glyph glyph-name="Ecircumflex" unicode="&#xca;" horiz-adv-x="612" 
d="M310 852c39 -23 72 -47 94 -63c28 -21 -3 -69 -27 -49c-35 29 -60 46 -78 61c-25 -18 -66 -37 -87 -53c-25 -20 -60 6 -35 34c17 19 118 84 133 70zM498 684c55 2 54 -71 0 -75c-51 0 -304 6 -346 3c1 -21 6 -161 7 -216c88 -6 248 -3 332 7c58 4 84 -39 25 -70
c-125 -23 -283 -12 -356 -12c0 -13 5 -244 8 -267c105 -5 331 15 363 15c71 -6 55 -75 -15 -75c-57 0 -90 -2 -118 -4c-59 -4 -92 -11 -270 -11c-5 0 -31 13 -32 28c-12 48 -11 82 -11 139c1 40 -4 151 -4 162c-3 111 -7 285 -7 300l-17 -3c-55 -2 -52 62 -9 74
c16 2 31 4 44 5c43 6 319 4 406 0z" />
    <glyph glyph-name="Edieresis" unicode="&#xcb;" horiz-adv-x="612" 
d="M351 806c30 3 47 -6 53 -19c9 -18 -9 -45 -52 -45c-37 0 -36 60 -1 64zM250 807c41 0 42 -67 1 -67c-19 0 -50 7 -50 34c-1 23 13 33 49 33zM498 684c55 2 54 -71 0 -75c-51 0 -304 6 -346 3c1 -21 6 -161 7 -216c88 -6 248 -3 332 7c58 4 84 -39 25 -70
c-125 -23 -283 -12 -356 -12c0 -13 5 -244 8 -267c105 -5 331 15 363 15c71 -6 55 -75 -15 -75c-57 0 -90 -2 -118 -4c-59 -4 -92 -11 -270 -11c-5 0 -31 13 -32 28c-12 48 -11 82 -11 139c1 40 -4 151 -4 162c-3 111 -7 285 -7 300l-17 -3c-55 -2 -52 62 -9 74
c16 2 31 4 44 5c43 6 319 4 406 0z" />
    <glyph glyph-name="Edotaccent" unicode="&#x116;" horiz-adv-x="612" 
d="M294 829c73 -2 76 -71 3 -71c-17 0 -38 15 -40 30c-5 25 13 41 37 41zM498 684c55 2 54 -71 0 -75c-51 0 -304 6 -346 3c1 -21 6 -161 7 -216c88 -6 248 -3 332 7c58 4 84 -39 25 -70c-125 -23 -283 -12 -356 -12c0 -13 5 -244 8 -267c105 -5 331 15 363 15
c71 -6 55 -75 -15 -75c-57 0 -90 -2 -118 -4c-59 -4 -92 -11 -270 -11c-5 0 -31 13 -32 28c-12 48 -11 82 -11 139c1 40 -4 151 -4 162c-3 111 -7 285 -7 300l-17 -3c-55 -2 -52 62 -9 74c16 2 31 4 44 5c43 6 319 4 406 0z" />
    <glyph glyph-name="Egrave" unicode="&#xc8;" horiz-adv-x="612" 
d="M290 847c13 -19 42 -52 55 -71c22 -32 -21 -54 -42 -31c-17 20 -48 49 -65 69c-23 27 29 60 52 33zM498 684c55 2 54 -71 0 -75c-51 0 -304 6 -346 3c1 -21 6 -161 7 -216c88 -6 248 -3 332 7c58 4 84 -39 25 -70c-125 -23 -283 -12 -356 -12c0 -13 5 -244 8 -267
c105 -5 331 15 363 15c71 -6 55 -75 -15 -75c-57 0 -90 -2 -118 -4c-59 -4 -92 -11 -270 -11c-5 0 -31 13 -32 28c-12 48 -11 82 -11 139c1 40 -4 151 -4 162c-3 111 -7 285 -7 300l-17 -3c-55 -2 -52 62 -9 74c16 2 31 4 44 5c43 6 319 4 406 0z" />
    <glyph glyph-name="Emacron" unicode="&#x112;" horiz-adv-x="612" 
d="M367 814c40 2 49 -51 6 -53c-38 -2 -109 -3 -147 0c-39 3 -44 55 -1 53c37 -2 105 -2 142 0zM498 684c55 2 54 -71 0 -75c-51 0 -304 6 -346 3c1 -21 6 -161 7 -216c88 -6 248 -3 332 7c58 4 84 -39 25 -70c-125 -23 -283 -12 -356 -12c0 -13 5 -244 8 -267
c105 -5 331 15 363 15c71 -6 55 -75 -15 -75c-57 0 -90 -2 -118 -4c-59 -4 -92 -11 -270 -11c-5 0 -31 13 -32 28c-12 48 -11 82 -11 139c1 40 -4 151 -4 162c-3 111 -7 285 -7 300l-17 -3c-55 -2 -52 62 -9 74c16 2 31 4 44 5c43 6 319 4 406 0z" />
    <glyph glyph-name="Eogonek" unicode="&#x118;" horiz-adv-x="648" 
d="M581 -105c23 21 43 -16 24 -39c-24 -30 -82 -32 -109 9c-21 31 -12 89 17 129c-55 0 -88 -2 -115 -4c-59 -4 -92 -11 -270 -11c-5 0 -31 13 -32 28c-12 48 -11 82 -11 139c1 40 -4 151 -4 162c-3 111 -7 285 -7 300l-17 -3c-55 -2 -52 62 -9 74c16 2 31 4 44 5
c43 6 319 4 406 0c55 2 54 -71 0 -75c-51 0 -304 6 -346 3c1 -21 6 -161 7 -216c88 -6 248 -3 332 7c58 4 84 -39 25 -70c-125 -23 -283 -12 -356 -12c0 -13 5 -244 8 -267c105 -5 331 15 363 15c56 -5 53 -57 31 -83s-30 -70 -19 -87c10 -16 23 -18 38 -4z" />
    <glyph glyph-name="F" unicode="F" horiz-adv-x="602" 
d="M62 674c201 11 377 23 454 -4c51 -20 59 -75 21 -89c-25 -9 -53 15 -53 34c-35 9 -282 -2 -316 -2c3 0 22 -250 20 -259c70 0 228 -20 301 -2c29 12 61 -55 30 -67c-114 -27 -214 -9 -331 -9l-1 -259c0 -47 -78 -43 -78 6c0 28 -3 288 -4 340c0 55 -9 187 -6 239l-31 -1
c-53 7 -56 50 -6 73z" />
    <glyph glyph-name="G" unicode="G" horiz-adv-x="666" 
d="M308 685c131 7 280 -36 286 -168c0 -37 -70 -61 -76 -6c-7 100 -160 99 -209 95c-60 -3 -103 -37 -141 -74c-57 -58 -61 -163 -46 -252c10 -58 29 -119 47 -148c64 -83 205 -85 283 -46c40 18 76 54 76 117c0 15 2 76 2 104c-46 -1 -149 0 -166 0c-27 0 -32 70 -10 70
c26 0 166 -4 201 -1c16 0 45 -8 49 -48c0 -136 27 -245 -119 -311c-128 -51 -306 -47 -390 81c-22 37 -42 97 -53 174c-16 113 -8 245 73 317c62 53 119 92 193 96z" />
    <glyph glyph-name="Gbreve" unicode="&#x11e;" horiz-adv-x="666" 
d="M373 826c24 25 51 -6 34 -32c-20 -30 -53 -53 -97 -53s-77 23 -97 53c-17 26 10 57 34 32c19 -19 30 -33 63 -33s44 14 63 33zM308 685c131 7 280 -36 286 -168c0 -37 -70 -61 -76 -6c-7 100 -160 99 -209 95c-60 -3 -103 -37 -141 -74c-57 -58 -61 -163 -46 -252
c10 -58 29 -119 47 -148c64 -83 205 -85 283 -46c40 18 76 54 76 117c0 15 2 76 2 104c-46 -1 -149 0 -166 0c-27 0 -32 70 -10 70c26 0 166 -4 201 -1c16 0 45 -8 49 -48c0 -136 27 -245 -119 -311c-128 -51 -306 -47 -390 81c-22 37 -42 97 -53 174c-16 113 -8 245 73 317
c62 53 119 92 193 96z" />
    <glyph glyph-name="Gcommaaccent" unicode="&#x122;" horiz-adv-x="666" 
d="M308 685c131 7 280 -36 286 -168c0 -37 -70 -61 -76 -6c-7 100 -160 99 -209 95c-60 -3 -103 -37 -141 -74c-57 -58 -61 -163 -46 -252c10 -58 29 -119 47 -148c64 -83 205 -85 283 -46c40 18 76 54 76 117c0 15 2 76 2 104c-46 -1 -149 0 -166 0c-27 0 -32 70 -10 70
c26 0 166 -4 201 -1c16 0 45 -8 49 -48c0 -136 27 -245 -119 -311c-128 -51 -306 -47 -390 81c-22 37 -42 97 -53 174c-16 113 -8 245 73 317c62 53 119 92 193 96zM377 -92c-7 -41 -11 -58 -20 -91c-13 -48 -60 -42 -50 18c5 32 9 52 11 74c4 47 67 44 59 -1z" />
    <glyph glyph-name="Gdotaccent" unicode="&#x120;" horiz-adv-x="666" 
d="M310 819c73 -2 76 -71 3 -71c-17 0 -38 15 -40 30c-5 25 13 41 37 41zM308 685c131 7 280 -36 286 -168c0 -37 -70 -61 -76 -6c-7 100 -160 99 -209 95c-60 -3 -103 -37 -141 -74c-57 -58 -61 -163 -46 -252c10 -58 29 -119 47 -148c64 -83 205 -85 283 -46
c40 18 76 54 76 117c0 15 2 76 2 104c-46 -1 -149 0 -166 0c-27 0 -32 70 -10 70c26 0 166 -4 201 -1c16 0 45 -8 49 -48c0 -136 27 -245 -119 -311c-128 -51 -306 -47 -390 81c-22 37 -42 97 -53 174c-16 113 -8 245 73 317c62 53 119 92 193 96z" />
    <glyph glyph-name="H" unicode="H" horiz-adv-x="733" 
d="M637 675c0 -234 28 -546 36 -650c0 -53 -77 -61 -77 -6c-2 68 -7 136 -15 203c-71 0 -289 -8 -382 -2c2 -20 3 -38 4 -59l-1 -164c0 -32 -78 -48 -78 -7c0 30 6 162 -5 233c-11 0 -59 -2 -73 -1c-32 2 -13 79 12 77c12 -1 21 0 53 0c-5 33 -6 292 -7 358c0 35 77 44 78 7
c3 -96 1 -319 9 -366c128 -8 188 -4 384 0c-13 148 -15 278 -15 372c0 28 77 37 77 5z" />
    <glyph glyph-name="Hbar" unicode="&#x126;" horiz-adv-x="787" 
d="M664 664c-1 -38 0 -76 1 -114c20 1 37 2 57 1c35 1 27 -65 -2 -66c-18 0 -35 0 -53 -2c4 -107 15 -215 33 -448c8 -55 -76 -62 -76 -6c-3 67 -8 126 -15 192c-77 1 -298 -7 -385 -1c6 -111 5 -166 5 -204c0 -44 -82 -61 -77 -8c5 42 5 119 3 196c-10 128 -22 271 -22 283
c-15 1 -31 2 -46 2c-33 3 -16 70 9 67c17 0 19 -1 37 -2c0 31 -1 61 -2 93c3 40 77 54 79 7c0 -43 1 -63 1 -102c174 0 256 -1 377 -3v111c1 45 76 51 76 4zM211 483c1 -66 3 -146 7 -185c119 -7 176 -4 384 -1c-6 66 -9 117 -12 184c-126 1 -253 2 -379 2z" />
    <glyph glyph-name="I" unicode="I" horiz-adv-x="495" 
d="M57 677c80 0 155 10 278 10c72 0 101 -17 102 -61c0 -23 -39 -34 -73 -7c-19 0 -68 -3 -101 -4c0 -42 -1 -213 5 -297c6 -85 7 -143 7 -261c43 -2 105 -5 147 0c28 6 26 -70 -10 -72c-130 -7 -198 10 -343 0c-29 -2 -54 65 3 73c34 3 109 3 124 2c0 239 -2 256 -10 554
c-27 0 -82 -7 -130 -7c-34 0 -39 71 1 70z" />
    <glyph glyph-name="IJ" unicode="&#x132;" horiz-adv-x="1005" 
d="M916 692c43 -4 51 -38 35 -61c0 -44 11 -260 10 -301c-2 -135 -22 -198 -51 -240c-52 -72 -99 -103 -219 -107c-62 9 -120 30 -159 75c-42 47 -36 150 -36 180c-1 27 76 26 77 -1c3 -33 1 -101 22 -134c14 -21 45 -45 102 -48c40 -3 105 14 143 64c63 81 41 276 41 349
c-1 13 -6 95 -7 146c-59 6 -199 -10 -260 -4c-55 6 -52 80 2 76c121 -11 215 12 300 6zM57 677c80 0 155 10 278 10c72 0 101 -17 102 -61c0 -23 -39 -34 -73 -7c-19 0 -68 -3 -101 -4c0 -42 -1 -213 5 -297c6 -85 7 -143 7 -261c43 -2 105 -5 147 0c28 6 26 -70 -10 -72
c-130 -7 -198 10 -343 0c-29 -2 -54 65 3 73c34 3 109 3 124 2c0 239 -2 256 -10 554c-27 0 -82 -7 -130 -7c-34 0 -39 71 1 70z" />
    <glyph glyph-name="Iacute" unicode="&#xcd;" horiz-adv-x="495" 
d="M244 838c23 27 74 -6 51 -33c-17 -20 -56 -49 -73 -69c-21 -23 -64 -1 -42 31c13 19 51 52 64 71zM57 677c80 0 155 10 278 10c72 0 101 -17 102 -61c0 -23 -39 -34 -73 -7c-19 0 -68 -3 -101 -4c0 -42 -1 -213 5 -297c6 -85 7 -143 7 -261c43 -2 105 -5 147 0
c28 6 26 -70 -10 -72c-130 -7 -198 10 -343 0c-29 -2 -54 65 3 73c34 3 109 3 124 2c0 239 -2 256 -10 554c-27 0 -82 -7 -130 -7c-34 0 -39 71 1 70z" />
    <glyph glyph-name="Icircumflex" unicode="&#xce;" horiz-adv-x="495" 
d="M226 843c39 -23 72 -47 94 -63c28 -21 -3 -69 -27 -49c-35 29 -60 46 -78 61c-25 -18 -66 -37 -87 -53c-25 -20 -60 6 -35 34c17 19 118 84 133 70zM57 677c80 0 155 10 278 10c72 0 101 -17 102 -61c0 -23 -39 -34 -73 -7c-19 0 -68 -3 -101 -4c0 -42 -1 -213 5 -297
c6 -85 7 -143 7 -261c43 -2 105 -5 147 0c28 6 26 -70 -10 -72c-130 -7 -198 10 -343 0c-29 -2 -54 65 3 73c34 3 109 3 124 2c0 239 -2 256 -10 554c-27 0 -82 -7 -130 -7c-34 0 -39 71 1 70z" />
    <glyph glyph-name="Idieresis" unicode="&#xcf;" horiz-adv-x="495" 
d="M267 797c30 3 47 -6 53 -19c9 -18 -9 -45 -52 -45c-37 0 -36 60 -1 64zM166 798c41 0 42 -67 1 -67c-19 0 -50 7 -50 34c-1 23 13 33 49 33zM57 677c80 0 155 10 278 10c72 0 101 -17 102 -61c0 -23 -39 -34 -73 -7c-19 0 -68 -3 -101 -4c0 -42 -1 -213 5 -297
c6 -85 7 -143 7 -261c43 -2 105 -5 147 0c28 6 26 -70 -10 -72c-130 -7 -198 10 -343 0c-29 -2 -54 65 3 73c34 3 109 3 124 2c0 239 -2 256 -10 554c-27 0 -82 -7 -130 -7c-34 0 -39 71 1 70z" />
    <glyph glyph-name="Idotaccent" unicode="&#x130;" horiz-adv-x="495" 
d="M210 820c73 -2 76 -71 3 -71c-17 0 -38 15 -40 30c-5 25 13 41 37 41zM57 677c80 0 155 10 278 10c72 0 101 -17 102 -61c0 -23 -39 -34 -73 -7c-19 0 -68 -3 -101 -4c0 -42 -1 -213 5 -297c6 -85 7 -143 7 -261c43 -2 105 -5 147 0c28 6 26 -70 -10 -72
c-130 -7 -198 10 -343 0c-29 -2 -54 65 3 73c34 3 109 3 124 2c0 239 -2 256 -10 554c-27 0 -82 -7 -130 -7c-34 0 -39 71 1 70z" />
    <glyph glyph-name="Igrave" unicode="&#xcc;" horiz-adv-x="495" 
d="M206 838c13 -19 42 -52 55 -71c22 -32 -21 -54 -42 -31c-17 20 -48 49 -65 69c-23 27 29 60 52 33zM57 677c80 0 155 10 278 10c72 0 101 -17 102 -61c0 -23 -39 -34 -73 -7c-19 0 -68 -3 -101 -4c0 -42 -1 -213 5 -297c6 -85 7 -143 7 -261c43 -2 105 -5 147 0
c28 6 26 -70 -10 -72c-130 -7 -198 10 -343 0c-29 -2 -54 65 3 73c34 3 109 3 124 2c0 239 -2 256 -10 554c-27 0 -82 -7 -130 -7c-34 0 -39 71 1 70z" />
    <glyph glyph-name="Imacron" unicode="&#x12a;" horiz-adv-x="495" 
d="M283 805c40 2 49 -51 6 -53c-38 -2 -109 -3 -147 0c-39 3 -44 55 -1 53c37 -2 105 -2 142 0zM57 677c80 0 155 10 278 10c72 0 101 -17 102 -61c0 -23 -39 -34 -73 -7c-19 0 -68 -3 -101 -4c0 -42 -1 -213 5 -297c6 -85 7 -143 7 -261c43 -2 105 -5 147 0
c28 6 26 -70 -10 -72c-130 -7 -198 10 -343 0c-29 -2 -54 65 3 73c34 3 109 3 124 2c0 239 -2 256 -10 554c-27 0 -82 -7 -130 -7c-34 0 -39 71 1 70z" />
    <glyph glyph-name="Iogonek" unicode="&#x12e;" horiz-adv-x="516" 
d="M431 -106c23 21 43 -16 24 -39c-24 -30 -82 -32 -109 9c-19 29 -13 80 11 119c-103 -1 -171 11 -299 2c-16 -1 -22 69 3 73c34 3 109 3 124 2c0 239 -2 256 -10 554c-27 0 -82 -7 -130 -7c-24 0 -18 69 1 70c80 0 155 10 278 10c72 0 101 -17 102 -61
c0 -23 -39 -34 -73 -7c-19 0 -68 -3 -101 -4c0 -42 -1 -213 5 -297c6 -85 7 -143 7 -261c43 -2 105 -5 147 0c23 5 26 -43 7 -63l-6 -9c-22 -26 -30 -70 -19 -87c10 -16 23 -18 38 -4z" />
    <glyph glyph-name="J" unicode="J" horiz-adv-x="560" 
d="M471 692c43 -4 51 -38 35 -61c0 -44 11 -260 10 -301c-2 -135 -22 -198 -51 -240c-52 -72 -99 -103 -219 -107c-62 9 -120 30 -159 75c-42 47 -36 150 -36 180c-1 27 76 26 77 -1c3 -33 1 -101 22 -134c14 -21 45 -45 102 -48c40 -3 105 14 143 64c63 81 41 276 41 349
c-1 13 -6 95 -7 146c-59 6 -199 -10 -260 -4c-55 6 -52 80 2 76c121 -11 215 12 300 6z" />
    <glyph glyph-name="K" unicode="K" horiz-adv-x="588" 
d="M112 670c13 -80 20 -191 22 -296c54 27 121 77 185 134c60 54 94 118 94 151c0 24 77 44 77 14c0 -52 -23 -125 -98 -195c-41 -38 -93 -79 -136 -108c93 -71 271 -236 296 -344c3 -49 -53 -61 -65 -28c-36 98 -182 243 -300 333c-34 -15 -56 -32 -53 -31
c0 -41 -2 -251 -2 -296c0 -25 -77 -38 -77 -7c0 116 14 436 -20 648c-7 42 70 68 77 25z" />
    <glyph glyph-name="Kcommaaccent" unicode="&#x136;" horiz-adv-x="588" 
d="M112 670c13 -80 20 -191 22 -296c54 27 121 77 185 134c60 54 94 118 94 151c0 24 77 44 77 14c0 -52 -23 -125 -98 -195c-41 -38 -93 -79 -136 -108c93 -71 271 -236 296 -344c3 -49 -53 -61 -65 -28c-36 98 -182 243 -300 333c-34 -15 -56 -32 -53 -31
c0 -41 -2 -251 -2 -296c0 -25 -77 -38 -77 -7c0 116 14 436 -20 648c-7 42 70 68 77 25zM323 -92c-7 -41 -11 -58 -20 -91c-13 -48 -60 -42 -50 18c5 32 9 52 11 74c4 47 67 44 59 -1z" />
    <glyph glyph-name="L" unicode="L" horiz-adv-x="558" 
d="M112 650c0 -253 36 -439 28 -602c94 9 291 -5 328 -4c-4 0 -6 72 -2 98c5 22 70 26 67 2c-3 -32 5 -97 -3 -142c-6 -20 -30 -23 -48 -23c-22 0 -284 13 -383 0c-30 0 -39 33 -39 53c8 202 -26 417 -24 617c0 56 76 57 76 1z" />
    <glyph glyph-name="Lacute" unicode="&#x139;" horiz-adv-x="562" 
d="M106 843c23 27 74 -6 51 -33c-17 -20 -56 -49 -73 -69c-21 -23 -64 -1 -42 31c13 19 51 52 64 71zM116 650c0 -253 36 -439 28 -602c94 9 291 -5 328 -4c-4 0 -6 72 -2 98c5 22 70 26 67 2c-3 -32 5 -97 -3 -142c-6 -20 -30 -23 -48 -23c-22 0 -284 13 -383 0
c-30 0 -39 33 -39 53c8 202 -26 417 -24 617c0 56 76 57 76 1z" />
    <glyph glyph-name="Lcaron" unicode="&#x13d;" horiz-adv-x="558" 
d="M112 650c0 -253 36 -439 28 -602c94 9 291 -5 328 -4c-4 0 -6 72 -2 98c5 22 70 26 67 2c-3 -32 5 -97 -3 -142c-6 -20 -30 -23 -48 -23c-22 0 -284 13 -383 0c-30 0 -39 33 -39 53c8 202 -26 417 -24 617c0 56 76 57 76 1zM468 662l-24 -88c-9 -31 -67 -28 -60 7
c2 22 14 64 16 83c11 38 78 34 68 -2z" />
    <glyph glyph-name="Lcommaaccent" unicode="&#x13b;" horiz-adv-x="558" 
d="M112 650c0 -253 36 -439 28 -602c94 9 291 -5 328 -4c-4 0 -6 72 -2 98c5 22 70 26 67 2c-3 -32 5 -97 -3 -142c-6 -20 -30 -23 -48 -23c-22 0 -284 13 -383 0c-30 0 -39 33 -39 53c8 202 -26 417 -24 617c0 56 76 57 76 1zM307 -110c-7 -41 -11 -58 -20 -91
c-13 -48 -60 -42 -50 18c5 32 9 52 11 74c4 47 67 44 59 -1z" />
    <glyph glyph-name="Ldot" unicode="&#x13f;" horiz-adv-x="558" 
d="M112 650c0 -253 36 -439 28 -602c94 9 291 -5 328 -4c-4 0 -6 72 -2 98c5 22 70 26 67 2c-3 -32 5 -97 -3 -142c-6 -20 -30 -23 -48 -23c-22 0 -284 13 -383 0c-30 0 -39 33 -39 53c8 202 -26 417 -24 617c0 56 76 57 76 1zM324 358c33 0 40 -30 40 -55
c0 -24 -24 -37 -45 -37c-50 4 -45 94 5 92z" />
    <glyph glyph-name="Lslash" unicode="&#x141;" horiz-adv-x="607" 
d="M158 660c-1 -88 5 -171 13 -263c19 9 44 24 63 33c48 16 63 -44 25 -61l-83 -40c8 -94 13 -201 10 -258c101 4 285 -4 333 -7c0 0 -15 52 -4 98c7 31 71 32 67 2c-6 -39 6 -84 -4 -133c-5 -20 -29 -32 -47 -32c-22 0 -271 14 -383 0c-30 0 -39 33 -39 53
c3 74 2 144 -4 243l-30 -16c-25 -13 -60 36 -24 56c16 8 32 19 48 27c-8 110 -14 193 -14 297c0 56 73 57 73 1z" />
    <glyph glyph-name="M" unicode="M" horiz-adv-x="881" 
d="M590 672c-53 -109 -117 -346 -165 -535c-83 181 -133 431 -162 528c-15 55 -72 31 -77 -11c-61 -194 -89 -441 -152 -633c-10 -58 55 -66 74 -12c35 108 64 250 117 492c29 -117 90 -341 171 -492c27 -50 63 -28 73 -1c55 161 83 321 145 515c22 -94 88 -280 105 -352
c16 -77 29 -125 58 -179c27 -39 95 2 72 38c-25 45 -43 115 -57 165c-26 102 -102 331 -129 457c-4 48 -54 54 -73 20z" />
    <glyph glyph-name="N" unicode="N" horiz-adv-x="634" 
d="M573 675c0 -171 25 -452 13 -638c-3 -49 -49 -61 -74 -3c-90 128 -175 247 -394 504c17 -219 22 -336 6 -517c-10 -57 -92 -50 -82 9c18 169 10 357 -1 564c-2 20 -5 45 -2 66c4 49 52 60 72 6c46 -63 132 -161 184 -219c48 -54 155 -199 219 -290
c-3 106 -20 346 -20 513c0 35 79 37 79 5z" />
    <glyph glyph-name="Nacute" unicode="&#x143;" horiz-adv-x="634" 
d="M328 847c23 27 74 -6 51 -33c-17 -20 -56 -49 -73 -69c-21 -23 -64 -1 -42 31c13 19 51 52 64 71zM573 675c0 -171 25 -452 13 -638c-3 -49 -49 -61 -74 -3c-90 128 -175 247 -394 504c17 -219 22 -336 6 -517c-10 -57 -92 -50 -82 9c18 169 10 357 -1 564
c-2 20 -5 45 -2 66c4 49 52 60 72 6c46 -63 132 -161 184 -219c48 -54 155 -199 219 -290c-3 106 -20 346 -20 513c0 35 79 37 79 5z" />
    <glyph glyph-name="Ncaron" unicode="&#x147;" horiz-adv-x="634" 
d="M369 853c22 21 58 -18 30 -44c-20 -19 -50 -32 -94 -59c-15 -14 -93 45 -110 65c-15 18 13 57 38 37c21 -16 36 -33 61 -51c18 15 59 37 75 52zM573 675c0 -171 25 -452 13 -638c-3 -49 -49 -61 -74 -3c-90 128 -175 247 -394 504c17 -219 22 -336 6 -517
c-10 -57 -92 -50 -82 9c18 169 10 357 -1 564c-2 20 -5 45 -2 66c4 49 52 60 72 6c46 -63 132 -161 184 -219c48 -54 155 -199 219 -290c-3 106 -20 346 -20 513c0 35 79 37 79 5z" />
    <glyph glyph-name="Ncommaaccent" unicode="&#x145;" horiz-adv-x="634" 
d="M573 675c0 -171 25 -452 13 -638c-3 -49 -49 -61 -74 -3c-90 128 -175 247 -394 504c17 -219 22 -336 6 -517c-10 -57 -92 -50 -82 9c18 169 10 357 -1 564c-2 20 -5 45 -2 66c4 49 52 60 72 6c46 -63 132 -161 184 -219c48 -54 155 -199 219 -290
c-3 106 -20 346 -20 513c0 35 79 37 79 5zM346 -92c-7 -41 -11 -58 -20 -91c-13 -48 -60 -42 -50 18c5 32 9 52 11 74c4 47 67 44 59 -1z" />
    <glyph glyph-name="Eng" unicode="&#x14a;" horiz-adv-x="636" 
d="M573 685c0 -269 27 -554 16 -726c-13 -178 -48 -320 -233 -320c-148 0 -172 112 -178 255c-1 27 81 27 82 -1c6 -59 -20 -163 99 -174c141 -13 152 183 158 307c-132 182 -196 255 -265 338c-38 47 -79 96 -133 169c16 -210 20 -321 5 -492c-11 -59 -91 -48 -82 8
c18 169 10 338 -1 545c-3 20 -5 45 -3 66c4 44 49 48 74 7c30 -53 88 -116 183 -220c46 -51 152 -196 218 -289c-3 121 -20 388 -20 522c0 49 80 50 80 5z" />
    <glyph glyph-name="Ntilde" unicode="&#xd1;" horiz-adv-x="634" 
d="M262 824c18 -4 53 -29 68 -33c30 -8 35 11 39 17c9 13 44 5 37 -24c-4 -15 -29 -43 -56 -43c-31 0 -61 20 -78 28c-13 6 -30 7 -37 -8c-10 -21 -52 -11 -45 25c6 31 41 44 72 38zM573 675c0 -171 25 -452 13 -638c-3 -49 -49 -61 -74 -3c-90 128 -175 247 -394 504
c17 -219 22 -336 6 -517c-10 -57 -92 -50 -82 9c18 169 10 357 -1 564c-2 20 -5 45 -2 66c4 49 52 60 72 6c46 -63 132 -161 184 -219c48 -54 155 -199 219 -290c-3 106 -20 346 -20 513c0 35 79 37 79 5z" />
    <glyph glyph-name="O" unicode="O" horiz-adv-x="655" 
d="M352 695c110 -35 196 -126 228 -230c16 -52 27 -106 28 -161c0 -89 -2 -109 -30 -167c-43 -88 -137 -146 -261 -151c-98 -4 -164 57 -210 114c-35 46 -67 95 -72 196c-8 104 -18 160 53 262c45 60 124 96 182 115c16 35 46 33 82 22zM335 617c-49 -8 -140 -52 -180 -97
c-56 -67 -41 -140 -41 -193c0 -102 33 -150 61 -186c36 -44 83 -80 141 -80c83 0 182 61 200 139c14 54 16 102 6 151c-25 137 -71 238 -187 266z" />
    <glyph glyph-name="Oacute" unicode="&#xd3;" horiz-adv-x="655" 
d="M347 847c23 27 74 -6 51 -33c-17 -20 -56 -49 -73 -69c-21 -23 -64 -1 -42 31c13 19 51 52 64 71zM352 695c110 -35 196 -126 228 -230c16 -52 27 -106 28 -161c0 -89 -2 -109 -30 -167c-43 -88 -137 -146 -261 -151c-98 -4 -164 57 -210 114c-35 46 -67 95 -72 196
c-8 104 -18 160 53 262c45 60 124 96 182 115c16 35 46 33 82 22zM335 617c-49 -8 -140 -52 -180 -97c-56 -67 -41 -140 -41 -193c0 -102 33 -150 61 -186c36 -44 83 -80 141 -80c83 0 182 61 200 139c14 54 16 102 6 151c-25 137 -71 238 -187 266z" />
    <glyph glyph-name="Ocircumflex" unicode="&#xd4;" horiz-adv-x="655" 
d="M329 852c39 -23 72 -47 94 -63c28 -21 -3 -69 -27 -49c-35 29 -60 46 -78 61c-25 -18 -66 -37 -87 -53c-25 -20 -60 6 -35 34c17 19 118 84 133 70zM352 695c110 -35 196 -126 228 -230c16 -52 27 -106 28 -161c0 -89 -2 -109 -30 -167c-43 -88 -137 -146 -261 -151
c-98 -4 -164 57 -210 114c-35 46 -67 95 -72 196c-8 104 -18 160 53 262c45 60 124 96 182 115c16 35 46 33 82 22zM335 617c-49 -8 -140 -52 -180 -97c-56 -67 -41 -140 -41 -193c0 -102 33 -150 61 -186c36 -44 83 -80 141 -80c83 0 182 61 200 139c14 54 16 102 6 151
c-25 137 -71 238 -187 266z" />
    <glyph glyph-name="Odieresis" unicode="&#xd6;" horiz-adv-x="655" 
d="M370 806c30 3 47 -6 53 -19c9 -18 -9 -45 -52 -45c-37 0 -36 60 -1 64zM269 807c41 0 42 -67 1 -67c-19 0 -50 7 -50 34c-1 23 13 33 49 33zM352 695c110 -35 196 -126 228 -230c16 -52 27 -106 28 -161c0 -89 -2 -109 -30 -167c-43 -88 -137 -146 -261 -151
c-98 -4 -164 57 -210 114c-35 46 -67 95 -72 196c-8 104 -18 160 53 262c45 60 124 96 182 115c16 35 46 33 82 22zM335 617c-49 -8 -140 -52 -180 -97c-56 -67 -41 -140 -41 -193c0 -102 33 -150 61 -186c36 -44 83 -80 141 -80c83 0 182 61 200 139c14 54 16 102 6 151
c-25 137 -71 238 -187 266z" />
    <glyph glyph-name="Ograve" unicode="&#xd2;" horiz-adv-x="655" 
d="M309 847c13 -19 42 -52 55 -71c22 -32 -21 -54 -42 -31c-17 20 -48 49 -65 69c-23 27 29 60 52 33zM352 695c110 -35 196 -126 228 -230c16 -52 27 -106 28 -161c0 -89 -2 -109 -30 -167c-43 -88 -137 -146 -261 -151c-98 -4 -164 57 -210 114c-35 46 -67 95 -72 196
c-8 104 -18 160 53 262c45 60 124 96 182 115c16 35 46 33 82 22zM335 617c-49 -8 -140 -52 -180 -97c-56 -67 -41 -140 -41 -193c0 -102 33 -150 61 -186c36 -44 83 -80 141 -80c83 0 182 61 200 139c14 54 16 102 6 151c-25 137 -71 238 -187 266z" />
    <glyph glyph-name="Ohungarumlaut" unicode="&#x150;" horiz-adv-x="655" 
d="M269 842c16 31 74 12 57 -19l-36 -71c-14 -27 -62 -16 -48 20c8 22 19 48 27 70zM364 840c16 32 74 13 58 -19l-37 -70c-14 -28 -61 -17 -48 19c8 23 19 49 27 70zM352 695c110 -35 196 -126 228 -230c16 -52 27 -106 28 -161c0 -89 -2 -109 -30 -167
c-43 -88 -137 -146 -261 -151c-98 -4 -164 57 -210 114c-35 46 -67 95 -72 196c-8 104 -18 160 53 262c45 60 124 96 182 115c16 35 46 33 82 22zM335 617c-49 -8 -140 -52 -180 -97c-56 -67 -41 -140 -41 -193c0 -102 33 -150 61 -186c36 -44 83 -80 141 -80
c83 0 182 61 200 139c14 54 16 102 6 151c-25 137 -71 238 -187 266z" />
    <glyph glyph-name="Omacron" unicode="&#x14c;" horiz-adv-x="655" 
d="M386 814c40 2 49 -51 6 -53c-38 -2 -109 -3 -147 0c-39 3 -44 55 -1 53c37 -2 105 -2 142 0zM352 695c110 -35 196 -126 228 -230c16 -52 27 -106 28 -161c0 -89 -2 -109 -30 -167c-43 -88 -137 -146 -261 -151c-98 -4 -164 57 -210 114c-35 46 -67 95 -72 196
c-8 104 -18 160 53 262c45 60 124 96 182 115c16 35 46 33 82 22zM335 617c-49 -8 -140 -52 -180 -97c-56 -67 -41 -140 -41 -193c0 -102 33 -150 61 -186c36 -44 83 -80 141 -80c83 0 182 61 200 139c14 54 16 102 6 151c-25 137 -71 238 -187 266z" />
    <glyph glyph-name="Oslash" unicode="&#xd8;" horiz-adv-x="655" 
d="M352 705c42 -13 80 -34 113 -61l26 39c18 25 76 -19 59 -44c-10 -14 -21 -31 -32 -49c28 -34 49 -74 62 -115c16 -52 27 -106 28 -161c0 -89 -2 -109 -30 -167c-43 -88 -137 -146 -261 -151c-54 -2 -98 15 -134 41c-11 -16 -22 -30 -32 -43c-20 -23 -77 24 -57 47
c11 13 22 28 34 45c-8 8 -15 16 -21 24c-35 46 -67 95 -72 196c-8 104 -18 160 53 262c45 60 124 96 182 115c16 35 46 33 82 22zM335 627c-49 -8 -140 -52 -180 -97c-56 -67 -41 -140 -41 -193c0 -99 31 -148 59 -183c82 128 176 300 252 426c-24 22 -54 38 -90 47z
M473 517c-75 -126 -168 -292 -247 -415c26 -19 56 -31 90 -31c83 0 182 61 200 139c14 54 16 102 6 151c-11 60 -26 113 -49 156z" />
    <glyph glyph-name="Otilde" unicode="&#xd5;" horiz-adv-x="655" 
d="M281 824c18 -4 53 -29 68 -33c30 -8 35 11 39 17c9 13 44 5 37 -24c-4 -15 -29 -43 -56 -43c-31 0 -61 20 -78 28c-13 6 -30 7 -37 -8c-10 -21 -52 -11 -45 25c6 31 41 44 72 38zM352 695c110 -35 196 -126 228 -230c16 -52 27 -106 28 -161c0 -89 -2 -109 -30 -167
c-43 -88 -137 -146 -261 -151c-98 -4 -164 57 -210 114c-35 46 -67 95 -72 196c-8 104 -18 160 53 262c45 60 124 96 182 115c16 35 46 33 82 22zM335 617c-49 -8 -140 -52 -180 -97c-56 -67 -41 -140 -41 -193c0 -102 33 -150 61 -186c36 -44 83 -80 141 -80
c83 0 182 61 200 139c14 54 16 102 6 151c-25 137 -71 238 -187 266z" />
    <glyph glyph-name="OE" unicode="&#x152;" horiz-adv-x="1058" 
d="M352 705c40 -13 137 -61 169 -107c0 17 2 34 2 53c0 35 32 41 55 42c43 6 279 3 366 -1c55 2 54 -71 0 -75c-51 0 -304 6 -346 3c1 -21 6 -161 7 -216c88 -6 248 -3 332 7c58 4 84 -39 25 -70c-124 -23 -281 -12 -355 -12c1 -52 2 -220 7 -256c105 -5 331 15 363 15
c71 -6 55 -75 -15 -75c-58 0 -93 -3 -132 -6c-55 -4 -116 -9 -256 -9c-5 0 -31 13 -32 28c-5 21 -8 39 -9 57c-51 -51 -125 -83 -216 -87c-98 -4 -164 57 -210 114c-35 46 -67 95 -72 196c-8 104 -18 160 53 262c45 60 124 96 182 115c16 35 46 33 82 22zM335 627
c-49 -8 -140 -52 -180 -97c-56 -67 -41 -140 -41 -193c0 -102 33 -150 61 -186c36 -44 83 -80 141 -80c83 0 211 61 219 139c5 48 0 194 -7 227c-25 107 -77 162 -193 190z" />
    <glyph glyph-name="P" unicode="P" horiz-adv-x="606" 
d="M368 689c74 -5 130 -35 163 -77c55 -73 46 -170 -13 -252c-28 -41 -86 -81 -119 -98c-56 -27 -136 -52 -219 -57c1 -52 2 -128 12 -175c9 -57 -69 -66 -78 -13c-12 56 -14 146 -14 189l-24 3c-41 14 -43 53 -8 66c7 2 16 4 25 3c-8 72 -18 200 -18 286
c-6 -2 -12 -5 -15 -7c-22 -13 -71 35 -48 57c44 28 121 48 182 60c66 13 125 19 174 15zM362 621c-87 10 -141 -4 -207 -32c0 -120 12 -258 17 -314c64 -2 134 22 205 57c24 12 75 47 96 83c52 87 7 192 -111 206z" />
    <glyph glyph-name="Thorn" unicode="&#xde;" horiz-adv-x="641" 
d="M105 665c2 56 78 49 78 -7c-1 -11 -2 -26 -2 -52c125 24 165 29 223 24c72 -6 128 -36 161 -77c54 -69 48 -175 -7 -252c-31 -44 -87 -79 -124 -98c-56 -27 -135 -53 -220 -56c1 -37 4 -56 13 -100c7 -58 -68 -66 -79 -13c-10 54 -13 87 -13 114c-8 1 -17 1 -25 2
c-43 15 -49 78 -1 74l18 3c-6 62 -15 161 -21 271l-30 -15c-47 -24 -106 22 -44 62c17 12 49 30 71 39c0 48 0 66 2 81zM390 549c-68 2 -135 -9 -204 -24c7 -100 15 -200 22 -300c62 4 136 21 203 57c20 11 68 44 89 80c53 93 17 174 -110 187z" />
    <glyph glyph-name="Q" unicode="Q" horiz-adv-x="642" 
d="M350 691c119 -35 196 -136 228 -240c15 -51 25 -102 25 -156c1 -79 1 -107 -26 -160c-16 -33 -50 -69 -81 -93l18 -27c31 -41 -29 -75 -52 -47c-6 10 -24 30 -30 40c-36 -14 -75 -24 -117 -26c-98 -4 -165 57 -210 114c-36 45 -66 98 -73 196c-10 118 -1 306 230 375
c6 25 65 29 88 24zM340 611c-170 -34 -232 -125 -232 -287c0 -102 36 -151 64 -187c36 -44 84 -81 141 -81c23 0 49 6 73 14c-13 17 -27 37 -32 48c-23 48 29 74 57 38c8 -14 23 -35 36 -52c30 24 60 59 68 91c15 57 17 98 6 151c-24 136 -67 235 -181 265z" />
    <glyph glyph-name="R" unicode="R" horiz-adv-x="631" 
d="M140 692c74 5 187 -3 288 -47c74 -32 141 -97 136 -199c-6 -125 -171 -136 -272 -136c39 -33 222 -270 297 -254c37 8 25 -73 -12 -75c-119 -8 -277 248 -372 308c-14 6 -35 12 -55 16c2 -74 5 -168 10 -313c-2 -25 -74 -15 -75 7c-13 267 -19 483 -14 605
c-13 -3 -27 -7 -31 -9c-24 -10 -48 63 -21 74c26 9 58 21 121 23zM153 618c-2 -69 -3 -130 -3 -236c106 -15 310 -39 338 63c8 50 -25 102 -86 129c-85 36 -193 50 -249 44z" />
    <glyph glyph-name="Racute" unicode="&#x154;" horiz-adv-x="631" 
d="M280 847c23 27 74 -6 51 -33c-17 -20 -56 -49 -73 -69c-21 -23 -64 -1 -42 31c13 19 51 52 64 71zM140 692c74 5 187 -3 288 -47c74 -32 141 -97 136 -199c-6 -125 -171 -136 -272 -136c39 -33 222 -270 297 -254c37 8 25 -73 -12 -75c-119 -8 -277 248 -372 308
c-14 6 -35 12 -55 16c2 -74 5 -168 10 -313c-2 -25 -74 -15 -75 7c-13 267 -19 483 -14 605c-13 -3 -27 -7 -31 -9c-24 -10 -48 63 -21 74c26 9 58 21 121 23zM153 618c-2 -69 -3 -130 -3 -236c106 -15 310 -39 338 63c8 50 -25 102 -86 129c-85 36 -193 50 -249 44z" />
    <glyph glyph-name="Rcaron" unicode="&#x158;" horiz-adv-x="631" 
d="M321 853c22 21 58 -18 30 -44c-20 -19 -50 -32 -94 -59c-15 -14 -93 45 -110 65c-15 18 13 57 38 37c21 -16 36 -33 61 -51c18 15 59 37 75 52zM140 692c74 5 187 -3 288 -47c74 -32 141 -97 136 -199c-6 -125 -171 -136 -272 -136c39 -33 222 -270 297 -254
c37 8 25 -73 -12 -75c-119 -8 -277 248 -372 308c-14 6 -35 12 -55 16c2 -74 5 -168 10 -313c-2 -25 -74 -15 -75 7c-13 267 -19 483 -14 605c-13 -3 -27 -7 -31 -9c-24 -10 -48 63 -21 74c26 9 58 21 121 23zM153 618c-2 -69 -3 -130 -3 -236c106 -15 310 -39 338 63
c8 50 -25 102 -86 129c-85 36 -193 50 -249 44z" />
    <glyph glyph-name="Rcommaaccent" unicode="&#x156;" horiz-adv-x="631" 
d="M140 692c74 5 187 -3 288 -47c74 -32 141 -97 136 -199c-6 -125 -171 -136 -272 -136c39 -33 222 -270 297 -254c37 8 25 -73 -12 -75c-119 -8 -277 248 -372 308c-14 6 -35 12 -55 16c2 -74 5 -168 10 -313c-2 -25 -74 -15 -75 7c-13 267 -19 483 -14 605
c-13 -3 -27 -7 -31 -9c-24 -10 -48 63 -21 74c26 9 58 21 121 23zM153 618c-2 -69 -3 -130 -3 -236c106 -15 310 -39 338 63c8 50 -25 102 -86 129c-85 36 -193 50 -249 44zM333 -92c-7 -41 -11 -58 -20 -91c-13 -48 -60 -42 -50 18c5 32 9 52 11 74c4 47 67 44 59 -1z" />
    <glyph glyph-name="S" unicode="S" horiz-adv-x="558" 
d="M471 662c4 -39 2 -150 11 -201c0 -29 -61 -30 -65 -8c-8 57 -30 132 -91 155c-45 22 -100 27 -138 -1c-29 -29 -12 -92 24 -124c94 -84 252 -141 300 -280c39 -112 -55 -217 -196 -220c-88 -2 -179 23 -249 119c-24 37 -47 99 -48 142c-1 29 79 42 80 13
c2 -42 10 -83 41 -126c35 -44 110 -74 169 -74c76 0 143 35 130 117c-16 108 -210 195 -285 260c-75 68 -73 166 -22 217c72 70 217 40 274 -35c0 7 -4 36 -4 43c-4 33 66 24 69 3z" />
    <glyph glyph-name="Sacute" unicode="&#x15a;" horiz-adv-x="558" 
d="M308 847c23 27 74 -6 51 -33c-17 -20 -56 -49 -73 -69c-21 -23 -64 -1 -42 31c13 19 51 52 64 71zM471 662c4 -39 2 -150 11 -201c0 -29 -61 -30 -65 -8c-8 57 -30 132 -91 155c-45 22 -100 27 -138 -1c-29 -29 -12 -92 24 -124c94 -84 252 -141 300 -280
c39 -112 -55 -217 -196 -220c-88 -2 -179 23 -249 119c-24 37 -47 99 -48 142c-1 29 79 42 80 13c2 -42 10 -83 41 -126c35 -44 110 -74 169 -74c76 0 143 35 130 117c-16 108 -210 195 -285 260c-75 68 -73 166 -22 217c72 70 217 40 274 -35c0 7 -4 36 -4 43
c-4 33 66 24 69 3z" />
    <glyph glyph-name="Scaron" unicode="&#x160;" horiz-adv-x="558" 
d="M349 853c22 21 58 -18 30 -44c-20 -19 -50 -32 -94 -59c-15 -14 -93 45 -110 65c-15 18 13 57 38 37c21 -16 36 -33 61 -51c18 15 59 37 75 52zM471 662c4 -39 2 -150 11 -201c0 -29 -61 -30 -65 -8c-8 57 -30 132 -91 155c-45 22 -100 27 -138 -1
c-29 -29 -12 -92 24 -124c94 -84 252 -141 300 -280c39 -112 -55 -217 -196 -220c-88 -2 -179 23 -249 119c-24 37 -47 99 -48 142c-1 29 79 42 80 13c2 -42 10 -83 41 -126c35 -44 110 -74 169 -74c76 0 143 35 130 117c-16 108 -210 195 -285 260c-75 68 -73 166 -22 217
c72 70 217 40 274 -35c0 7 -4 36 -4 43c-4 33 66 24 69 3z" />
    <glyph glyph-name="Scedilla" unicode="&#x15e;" horiz-adv-x="558" 
d="M316 -17h-4c-2 -7 -4 -15 -6 -20c38 2 55 -25 58 -51c3 -22 -8 -49 -27 -63c-32 -24 -94 -12 -105 21c-7 22 19 40 34 20c11 -14 26 -17 39 -7c18 14 16 46 -22 44c-22 -5 -28 0 -23 23l8 35c-72 7 -144 38 -201 117c-24 37 -47 99 -48 142c-1 29 79 42 80 13
c2 -42 10 -83 41 -126c35 -44 110 -74 169 -74c76 0 143 35 130 117c-16 108 -210 195 -285 260c-75 68 -73 166 -22 217c72 70 217 40 274 -35c0 7 -4 36 -4 43c-4 33 66 24 69 3c4 -39 2 -150 11 -201c0 -29 -61 -30 -65 -8c-8 57 -30 132 -91 155c-45 22 -100 27 -138 -1
c-29 -29 -12 -92 24 -124c94 -84 252 -141 300 -280c39 -112 -55 -217 -196 -220z" />
    <glyph glyph-name="Scommaaccent" unicode="&#x218;" horiz-adv-x="558" 
d="M471 662c4 -39 2 -150 11 -201c0 -29 -61 -30 -65 -8c-8 57 -30 132 -91 155c-45 22 -100 27 -138 -1c-29 -29 -12 -92 24 -124c94 -84 252 -141 300 -280c39 -112 -55 -217 -196 -220c-88 -2 -179 23 -249 119c-24 37 -47 99 -48 142c-1 29 79 42 80 13
c2 -42 10 -83 41 -126c35 -44 110 -74 169 -74c76 0 143 35 130 117c-16 108 -210 195 -285 260c-75 68 -73 166 -22 217c72 70 217 40 274 -35c0 7 -4 36 -4 43c-4 33 66 24 69 3zM315 -109c-7 -41 -11 -58 -20 -91c-13 -48 -60 -42 -50 18c5 32 9 52 11 74
c4 47 67 44 59 -1z" />
    <glyph glyph-name="T" unicode="T" horiz-adv-x="566" 
d="M31 690c93 -6 439 -3 500 -5c30 -3 13 -73 -12 -72c-164 4 -43 7 -208 1c25 -160 -1 -485 -1 -604c-5 -36 -79 -37 -79 -7c0 119 17 291 17 425c0 67 -7 134 -12 187c-43 -1 -179 -1 -217 1c-32 2 -13 75 12 74z" />
    <glyph glyph-name="Tbar" unicode="&#x166;" horiz-adv-x="566" 
d="M32 700c93 -6 438 -3 500 -5c29 -3 12 -76 -12 -75c-168 4 -40 1 -208 1c6 -65 8 -209 7 -256c27 0 61 1 74 3c56 -1 45 -65 7 -70c-17 -2 -54 -3 -83 -3c-1 -18 -6 -198 -6 -255c-1 -24 -80 -31 -80 -7c0 46 1 99 7 264c-24 1 -68 1 -75 1c-37 0 -47 70 -2 70
c11 0 47 0 79 -1c0 140 -2 202 -8 255c-43 -1 -174 -1 -213 1c-32 2 -12 78 13 77z" />
    <glyph glyph-name="Tcaron" unicode="&#x164;" horiz-adv-x="566" 
d="M335 853c22 21 58 -18 30 -44c-20 -19 -50 -32 -94 -59c-15 -14 -93 45 -110 65c-15 18 13 57 38 37c21 -16 36 -33 61 -51c18 15 59 37 75 52zM31 690c93 -6 439 -3 500 -5c30 -3 13 -73 -12 -72c-164 4 -43 7 -208 1c25 -160 -1 -485 -1 -604c-5 -36 -79 -37 -79 -7
c0 119 17 291 17 425c0 67 -7 134 -12 187c-43 -1 -179 -1 -217 1c-32 2 -13 75 12 74z" />
    <glyph glyph-name="Tcedilla" unicode="&#x162;" horiz-adv-x="566" 
d="M531 685c30 -3 13 -73 -12 -72c-164 4 -43 7 -208 1c25 -160 -1 -485 -1 -604c-2 -12 -10 -20 -21 -24c-2 -6 -3 -11 -5 -15c38 2 55 -25 58 -51c3 -22 -8 -49 -27 -63c-32 -24 -94 -12 -105 21c-7 22 19 40 34 20c11 -14 26 -17 39 -7c18 14 16 46 -22 44
c-22 -5 -28 0 -23 23l7 27c-9 4 -14 10 -14 18c0 119 17 291 17 425c0 67 -7 134 -12 187c-43 -1 -179 -1 -217 1c-32 2 -13 75 12 74c93 -6 439 -3 500 -5z" />
    <glyph glyph-name="Tcommaaccent" unicode="&#x21a;" horiz-adv-x="566" 
d="M31 690c93 -6 439 -3 500 -5c30 -3 13 -73 -12 -72c-164 4 -43 7 -208 1c25 -160 -1 -485 -1 -604c-5 -36 -79 -37 -79 -7c0 119 17 291 17 425c0 67 -7 134 -12 187c-43 -1 -179 -1 -217 1c-32 2 -13 75 12 74zM293 -101c-7 -41 -11 -58 -20 -91c-13 -48 -60 -42 -50 18
c5 32 9 52 11 74c4 47 67 44 59 -1z" />
    <glyph glyph-name="U" unicode="U" horiz-adv-x="604" 
d="M471 666c-4 37 83 26 82 -10c-2 -134 28 -372 -21 -498c-37 -86 -119 -182 -223 -181c-137 2 -267 118 -268 316c0 120 -1 244 -11 364c-4 48 65 56 81 9c8 -109 9 -242 9 -351c2 -144 70 -264 188 -264c82 0 133 78 159 151c36 103 16 355 4 464z" />
    <glyph glyph-name="Uacute" unicode="&#xda;" horiz-adv-x="604" 
d="M322 847c23 27 74 -6 51 -33c-17 -20 -56 -49 -73 -69c-21 -23 -64 -1 -42 31c13 19 51 52 64 71zM471 666c-4 37 83 26 82 -10c-2 -134 28 -372 -21 -498c-37 -86 -119 -182 -223 -181c-137 2 -267 118 -268 316c0 120 -1 244 -11 364c-4 48 65 56 81 9
c8 -109 9 -242 9 -351c2 -144 70 -264 188 -264c82 0 133 78 159 151c36 103 16 355 4 464z" />
    <glyph glyph-name="Ucircumflex" unicode="&#xdb;" horiz-adv-x="604" 
d="M304 852c39 -23 72 -47 94 -63c28 -21 -3 -69 -27 -49c-35 29 -60 46 -78 61c-25 -18 -66 -37 -87 -53c-25 -20 -60 6 -35 34c17 19 118 84 133 70zM471 666c-4 37 83 26 82 -10c-2 -134 28 -372 -21 -498c-37 -86 -119 -182 -223 -181c-137 2 -267 118 -268 316
c0 120 -1 244 -11 364c-4 48 65 56 81 9c8 -109 9 -242 9 -351c2 -144 70 -264 188 -264c82 0 133 78 159 151c36 103 16 355 4 464z" />
    <glyph glyph-name="Udieresis" unicode="&#xdc;" horiz-adv-x="604" 
d="M345 806c30 3 47 -6 53 -19c9 -18 -9 -45 -52 -45c-37 0 -36 60 -1 64zM244 807c41 0 42 -67 1 -67c-19 0 -50 7 -50 34c-1 23 13 33 49 33zM471 666c-4 37 83 26 82 -10c-2 -134 28 -372 -21 -498c-37 -86 -119 -182 -223 -181c-137 2 -267 118 -268 316
c0 120 -1 244 -11 364c-4 48 65 56 81 9c8 -109 9 -242 9 -351c2 -144 70 -264 188 -264c82 0 133 78 159 151c36 103 16 355 4 464z" />
    <glyph glyph-name="Ugrave" unicode="&#xd9;" horiz-adv-x="604" 
d="M284 847c13 -19 42 -52 55 -71c22 -32 -21 -54 -42 -31c-17 20 -48 49 -65 69c-23 27 29 60 52 33zM471 666c-4 37 83 26 82 -10c-2 -134 28 -372 -21 -498c-37 -86 -119 -182 -223 -181c-137 2 -267 118 -268 316c0 120 -1 244 -11 364c-4 48 65 56 81 9
c8 -109 9 -242 9 -351c2 -144 70 -264 188 -264c82 0 133 78 159 151c36 103 16 355 4 464z" />
    <glyph glyph-name="Uhungarumlaut" unicode="&#x170;" horiz-adv-x="604" 
d="M244 842c16 31 74 12 57 -19l-36 -71c-14 -27 -62 -16 -48 20c8 22 19 48 27 70zM339 840c16 32 74 13 58 -19l-37 -70c-14 -28 -61 -17 -48 19c8 23 19 49 27 70zM471 666c-4 37 83 26 82 -10c-2 -134 28 -372 -21 -498c-37 -86 -119 -182 -223 -181
c-137 2 -267 118 -268 316c0 120 -1 244 -11 364c-4 48 65 56 81 9c8 -109 9 -242 9 -351c2 -144 70 -264 188 -264c82 0 133 78 159 151c36 103 16 355 4 464z" />
    <glyph glyph-name="Umacron" unicode="&#x16a;" horiz-adv-x="604" 
d="M361 814c40 2 49 -51 6 -53c-38 -2 -109 -3 -147 0c-39 3 -44 55 -1 53c37 -2 105 -2 142 0zM471 666c-4 37 83 26 82 -10c-2 -134 28 -372 -21 -498c-37 -86 -119 -182 -223 -181c-137 2 -267 118 -268 316c0 120 -1 244 -11 364c-4 48 65 56 81 9c8 -109 9 -242 9 -351
c2 -144 70 -264 188 -264c82 0 133 78 159 151c36 103 16 355 4 464z" />
    <glyph glyph-name="Uogonek" unicode="&#x172;" horiz-adv-x="604" 
d="M532 158c-20 -47 -70 -104 -94 -143c-29 -46 -40 -98 -29 -115c10 -16 23 -18 38 -4c23 21 43 -16 24 -39c-24 -30 -82 -32 -109 9c-20 30 -13 84 13 124c-20 -9 -43 -13 -66 -13c-137 2 -267 118 -268 316c0 120 -1 244 -11 364c-4 48 65 56 81 9c8 -109 9 -242 9 -351
c2 -144 70 -264 188 -264c82 0 133 78 159 151c36 103 16 355 4 464c-4 37 83 26 82 -10c-2 -134 28 -372 -21 -498z" />
    <glyph glyph-name="Uring" unicode="&#x16e;" horiz-adv-x="604" 
d="M309 869c8 4 20 5 28 -2c62 -39 13 -146 -64 -125c-37 10 -56 48 -41 80c14 32 47 47 77 47zM311 829c-3 2 -8 0 -11 -2c-11 0 -25 -7 -30 -18c-6 -11 2 -24 16 -26c30 -9 46 31 25 46zM471 666c-4 37 83 26 82 -10c-2 -134 28 -372 -21 -498
c-37 -86 -119 -182 -223 -181c-137 2 -267 118 -268 316c0 120 -1 244 -11 364c-4 48 65 56 81 9c8 -109 9 -242 9 -351c2 -144 70 -264 188 -264c82 0 133 78 159 151c36 103 16 355 4 464z" />
    <glyph glyph-name="V" unicode="V" horiz-adv-x="535" 
d="M75 680c73 -145 115 -429 210 -580c33 190 77 424 126 571c19 54 94 35 71 -27c-59 -187 -106 -422 -146 -616c-13 -60 -62 -59 -87 -12c-125 181 -162 457 -246 629c-21 45 52 94 72 35z" />
    <glyph glyph-name="W" unicode="W" horiz-adv-x="849" 
d="M89 682c52 -157 94 -385 126 -542c12 31 130 392 146 483c3 41 73 10 79 -24c11 -63 101 -335 157 -466c44 137 101 416 145 530c18 37 96 35 77 -18c-61 -164 -120 -467 -181 -631c-21 -54 -52 -50 -75 4c-41 94 -148 408 -167 466c-41 -119 -106 -326 -152 -467
c-19 -47 -74 -54 -80 -2c-8 71 -96 507 -147 638c-19 38 55 75 72 29z" />
    <glyph glyph-name="Wacute" unicode="&#x1e82;" horiz-adv-x="849" 
d="M434 826c23 27 74 -6 51 -33c-17 -20 -56 -49 -73 -69c-21 -23 -64 -1 -42 31c13 19 51 52 64 71zM89 682c52 -157 94 -385 126 -542c12 31 130 392 146 483c3 41 73 10 79 -24c11 -63 101 -335 157 -466c44 137 101 416 145 530c18 37 96 35 77 -18
c-61 -164 -120 -467 -181 -631c-21 -54 -52 -50 -75 4c-41 94 -148 408 -167 466c-41 -119 -106 -326 -152 -467c-19 -47 -74 -54 -80 -2c-8 71 -96 507 -147 638c-19 38 55 75 72 29z" />
    <glyph glyph-name="Wcircumflex" unicode="&#x174;" horiz-adv-x="849" 
d="M416 831c39 -23 72 -47 94 -63c28 -21 -3 -69 -27 -49c-35 29 -60 46 -78 61c-25 -18 -66 -37 -87 -53c-25 -20 -60 6 -35 34c17 19 118 84 133 70zM89 682c52 -157 94 -385 126 -542c12 31 130 392 146 483c3 41 73 10 79 -24c11 -63 101 -335 157 -466
c44 137 101 416 145 530c18 37 96 35 77 -18c-61 -164 -120 -467 -181 -631c-21 -54 -52 -50 -75 4c-41 94 -148 408 -167 466c-41 -119 -106 -326 -152 -467c-19 -47 -74 -54 -80 -2c-8 71 -96 507 -147 638c-19 38 55 75 72 29z" />
    <glyph glyph-name="Wdieresis" unicode="&#x1e84;" horiz-adv-x="849" 
d="M457 785c30 3 47 -6 53 -19c9 -18 -9 -45 -52 -45c-37 0 -36 60 -1 64zM356 786c41 0 42 -67 1 -67c-19 0 -50 7 -50 34c-1 23 13 33 49 33zM89 682c52 -157 94 -385 126 -542c12 31 130 392 146 483c3 41 73 10 79 -24c11 -63 101 -335 157 -466c44 137 101 416 145 530
c18 37 96 35 77 -18c-61 -164 -120 -467 -181 -631c-21 -54 -52 -50 -75 4c-41 94 -148 408 -167 466c-41 -119 -106 -326 -152 -467c-19 -47 -74 -54 -80 -2c-8 71 -96 507 -147 638c-19 38 55 75 72 29z" />
    <glyph glyph-name="Wgrave" unicode="&#x1e80;" horiz-adv-x="849" 
d="M396 826c13 -19 42 -52 55 -71c22 -32 -21 -54 -42 -31c-17 20 -48 49 -65 69c-23 27 29 60 52 33zM89 682c52 -157 94 -385 126 -542c12 31 130 392 146 483c3 41 73 10 79 -24c11 -63 101 -335 157 -466c44 137 101 416 145 530c18 37 96 35 77 -18
c-61 -164 -120 -467 -181 -631c-21 -54 -52 -50 -75 4c-41 94 -148 408 -167 466c-41 -119 -106 -326 -152 -467c-19 -47 -74 -54 -80 -2c-8 71 -96 507 -147 638c-19 38 55 75 72 29z" />
    <glyph glyph-name="X" unicode="X" horiz-adv-x="567" 
d="M153 679c47 -69 98 -146 140 -226c62 97 102 175 123 214c16 33 105 24 82 -20c-38 -68 -115 -180 -165 -257c81 -144 158 -273 213 -343c26 -40 -48 -74 -67 -49c-53 73 -129 209 -184 310c-56 -99 -165 -284 -181 -309c-34 -38 -122 -20 -83 26c47 61 138 203 219 364
c-29 70 -112 189 -155 245c-24 37 40 71 58 45z" />
    <glyph glyph-name="Y" unicode="Y" horiz-adv-x="523" 
d="M89 674c24 -52 58 -121 92 -185c56 -108 91 -151 144 -207c34 107 72 307 95 394c6 38 78 9 74 -27c-16 -53 -30 -120 -44 -177c-31 -127 -61 -294 -123 -421c-39 -86 -142 -91 -206 -41c-56 43 -53 130 -46 176c13 60 84 26 79 -15c-6 -41 -6 -119 47 -125
c62 -5 80 104 96 161c-41 32 -97 94 -137 161c-73 126 -127 238 -140 268c-14 32 53 75 69 38z" />
    <glyph glyph-name="Yacute" unicode="&#xdd;" horiz-adv-x="523" 
d="M291 847c23 27 74 -6 51 -33c-17 -20 -56 -49 -73 -69c-21 -23 -64 -1 -42 31c13 19 51 52 64 71zM89 674c24 -52 58 -121 92 -185c56 -108 91 -151 144 -207c34 107 72 307 95 394c6 38 78 9 74 -27c-16 -53 -30 -120 -44 -177c-31 -127 -61 -294 -123 -421
c-39 -86 -142 -91 -206 -41c-56 43 -53 130 -46 176c13 60 84 26 79 -15c-6 -41 -6 -119 47 -125c62 -5 80 104 96 161c-41 32 -97 94 -137 161c-73 126 -127 238 -140 268c-14 32 53 75 69 38z" />
    <glyph glyph-name="Ycircumflex" unicode="&#x176;" horiz-adv-x="523" 
d="M273 852c39 -23 72 -47 94 -63c28 -21 -3 -69 -27 -49c-35 29 -60 46 -78 61c-25 -18 -66 -37 -87 -53c-25 -20 -60 6 -35 34c17 19 118 84 133 70zM89 674c24 -52 58 -121 92 -185c56 -108 91 -151 144 -207c34 107 72 307 95 394c6 38 78 9 74 -27
c-16 -53 -30 -120 -44 -177c-31 -127 -61 -294 -123 -421c-39 -86 -142 -91 -206 -41c-56 43 -53 130 -46 176c13 60 84 26 79 -15c-6 -41 -6 -119 47 -125c62 -5 80 104 96 161c-41 32 -97 94 -137 161c-73 126 -127 238 -140 268c-14 32 53 75 69 38z" />
    <glyph glyph-name="Ydieresis" unicode="&#x178;" horiz-adv-x="523" 
d="M314 806c30 3 47 -6 53 -19c9 -18 -9 -45 -52 -45c-37 0 -36 60 -1 64zM213 807c41 0 42 -67 1 -67c-19 0 -50 7 -50 34c-1 23 13 33 49 33zM89 674c24 -52 58 -121 92 -185c56 -108 91 -151 144 -207c34 107 72 307 95 394c6 38 78 9 74 -27c-16 -53 -30 -120 -44 -177
c-31 -127 -61 -294 -123 -421c-39 -86 -142 -91 -206 -41c-56 43 -53 130 -46 176c13 60 84 26 79 -15c-6 -41 -6 -119 47 -125c62 -5 80 104 96 161c-41 32 -97 94 -137 161c-73 126 -127 238 -140 268c-14 32 53 75 69 38z" />
    <glyph glyph-name="Ygrave" unicode="&#x1ef2;" horiz-adv-x="523" 
d="M253 847c13 -19 42 -52 55 -71c22 -32 -21 -54 -42 -31c-17 20 -48 49 -65 69c-23 27 29 60 52 33zM89 674c24 -52 58 -121 92 -185c56 -108 91 -151 144 -207c34 107 72 307 95 394c6 38 78 9 74 -27c-16 -53 -30 -120 -44 -177c-31 -127 -61 -294 -123 -421
c-39 -86 -142 -91 -206 -41c-56 43 -53 130 -46 176c13 60 84 26 79 -15c-6 -41 -6 -119 47 -125c62 -5 80 104 96 161c-41 32 -97 94 -137 161c-73 126 -127 238 -140 268c-14 32 53 75 69 38z" />
    <glyph glyph-name="Z" unicode="Z" horiz-adv-x="540" 
d="M81 688c192 0 270 -13 415 -3c25 -1 39 -23 32 -48c-156 -164 -291 -458 -401 -585c99 0 254 8 344 3c25 -3 15 -72 -8 -71c-222 7 -256 -8 -404 0c-31 2 -49 24 -29 63c114 99 271 434 376 564c-131 0 -243 12 -334 4c-27 -2 -17 73 9 73z" />
    <glyph glyph-name="Zacute" unicode="&#x179;" horiz-adv-x="540" 
d="M318 847c23 27 74 -6 51 -33c-17 -20 -56 -49 -73 -69c-21 -23 -64 -1 -42 31c13 19 51 52 64 71zM81 688c192 0 270 -13 415 -3c25 -1 39 -23 32 -48c-156 -164 -291 -458 -401 -585c99 0 254 8 344 3c25 -3 15 -72 -8 -71c-222 7 -256 -8 -404 0c-31 2 -49 24 -29 63
c114 99 271 434 376 564c-131 0 -243 12 -334 4c-27 -2 -17 73 9 73z" />
    <glyph glyph-name="Zcaron" unicode="&#x17d;" horiz-adv-x="540" 
d="M359 853c22 21 58 -18 30 -44c-20 -19 -50 -32 -94 -59c-15 -14 -93 45 -110 65c-15 18 13 57 38 37c21 -16 36 -33 61 -51c18 15 59 37 75 52zM81 688c192 0 270 -13 415 -3c25 -1 39 -23 32 -48c-156 -164 -291 -458 -401 -585c99 0 254 8 344 3c25 -3 15 -72 -8 -71
c-222 7 -256 -8 -404 0c-31 2 -49 24 -29 63c114 99 271 434 376 564c-131 0 -243 12 -334 4c-27 -2 -17 73 9 73z" />
    <glyph glyph-name="Zdotaccent" unicode="&#x17b;" horiz-adv-x="540" 
d="M284 829c73 -2 76 -71 3 -71c-17 0 -38 15 -40 30c-5 25 13 41 37 41zM81 688c192 0 270 -13 415 -3c25 -1 39 -23 32 -48c-156 -164 -291 -458 -401 -585c99 0 254 8 344 3c25 -3 15 -72 -8 -71c-222 7 -256 -8 -404 0c-31 2 -49 24 -29 63c114 99 271 434 376 564
c-131 0 -243 12 -334 4c-27 -2 -17 73 9 73z" />
    <glyph glyph-name="A.ss01" horiz-adv-x="629" 
d="M389 650c4 -97 43 -230 80 -342c8 0 51 1 62 2c60 4 87 -47 -14 -67c-9 -1 -18 -1 -27 -2c25 -72 59 -155 80 -175c42 -38 20 -78 -40 -65c-39 8 -82 129 -120 238c-61 0 -111 9 -190 1c-62 -162 -91 -238 -144 -244c-45 -5 -77 26 -16 76c12 8 44 84 75 164
c-72 0 -112 74 -50 74h79c35 86 112 246 135 343c10 49 86 48 90 -3zM332 510c-18 -46 -67 -146 -87 -199c52 2 100 -2 143 -2c-21 65 -43 140 -56 201z" />
    <glyph glyph-name="Aacute.ss01" horiz-adv-x="629" 
d="M376 847c23 27 74 -6 51 -33c-17 -20 -56 -49 -73 -69c-21 -23 -64 -1 -42 31c13 19 51 52 64 71zM389 650c4 -97 43 -230 80 -342c8 0 51 1 62 2c60 4 87 -47 -14 -67c-9 -1 -18 -1 -27 -2c25 -72 59 -155 80 -175c42 -38 20 -78 -40 -65c-39 8 -82 129 -120 238
c-61 0 -111 9 -190 1c-62 -162 -91 -238 -144 -244c-45 -5 -77 26 -16 76c12 8 44 84 75 164c-72 0 -112 74 -50 74h79c35 86 112 246 135 343c10 49 86 48 90 -3zM332 510c-18 -46 -67 -146 -87 -199c52 2 100 -2 143 -2c-21 65 -43 140 -56 201z" />
    <glyph glyph-name="Abreve.ss01" horiz-adv-x="629" 
d="M405 836c24 25 51 -6 34 -32c-20 -30 -53 -53 -97 -53s-77 23 -97 53c-17 26 10 57 34 32c19 -19 30 -33 63 -33s44 14 63 33zM389 650c4 -97 43 -230 80 -342c8 0 51 1 62 2c60 4 87 -47 -14 -67c-9 -1 -18 -1 -27 -2c25 -72 59 -155 80 -175c42 -38 20 -78 -40 -65
c-39 8 -82 129 -120 238c-61 0 -111 9 -190 1c-62 -162 -91 -238 -144 -244c-45 -5 -77 26 -16 76c12 8 44 84 75 164c-72 0 -112 74 -50 74h79c35 86 112 246 135 343c10 49 86 48 90 -3zM332 510c-18 -46 -67 -146 -87 -199c52 2 100 -2 143 -2c-21 65 -43 140 -56 201z
" />
    <glyph glyph-name="Acircumflex.ss01" horiz-adv-x="629" 
d="M358 852c39 -23 72 -47 94 -63c28 -21 -3 -69 -27 -49c-35 29 -60 46 -78 61c-25 -18 -66 -37 -87 -53c-25 -20 -60 6 -35 34c17 19 118 84 133 70zM389 650c4 -97 43 -230 80 -342c8 0 51 1 62 2c60 4 87 -47 -14 -67c-9 -1 -18 -1 -27 -2c25 -72 59 -155 80 -175
c42 -38 20 -78 -40 -65c-39 8 -82 129 -120 238c-61 0 -111 9 -190 1c-62 -162 -91 -238 -144 -244c-45 -5 -77 26 -16 76c12 8 44 84 75 164c-72 0 -112 74 -50 74h79c35 86 112 246 135 343c10 49 86 48 90 -3zM332 510c-18 -46 -67 -146 -87 -199c52 2 100 -2 143 -2
c-21 65 -43 140 -56 201z" />
    <glyph glyph-name="Adieresis.ss01" horiz-adv-x="629" 
d="M399 806c30 3 47 -6 53 -19c9 -18 -9 -45 -52 -45c-37 0 -36 60 -1 64zM298 807c41 0 42 -67 1 -67c-19 0 -50 7 -50 34c-1 23 13 33 49 33zM389 650c4 -97 43 -230 80 -342c8 0 51 1 62 2c60 4 87 -47 -14 -67c-9 -1 -18 -1 -27 -2c25 -72 59 -155 80 -175
c42 -38 20 -78 -40 -65c-39 8 -82 129 -120 238c-61 0 -111 9 -190 1c-62 -162 -91 -238 -144 -244c-45 -5 -77 26 -16 76c12 8 44 84 75 164c-72 0 -112 74 -50 74h79c35 86 112 246 135 343c10 49 86 48 90 -3zM332 510c-18 -46 -67 -146 -87 -199c52 2 100 -2 143 -2
c-21 65 -43 140 -56 201z" />
    <glyph glyph-name="Agrave.ss01" horiz-adv-x="629" 
d="M338 847c13 -19 42 -52 55 -71c22 -32 -21 -54 -42 -31c-17 20 -48 49 -65 69c-23 27 29 60 52 33zM389 650c4 -97 43 -230 80 -342c8 0 51 1 62 2c60 4 87 -47 -14 -67c-9 -1 -18 -1 -27 -2c25 -72 59 -155 80 -175c42 -38 20 -78 -40 -65c-39 8 -82 129 -120 238
c-61 0 -111 9 -190 1c-62 -162 -91 -238 -144 -244c-45 -5 -77 26 -16 76c12 8 44 84 75 164c-72 0 -112 74 -50 74h79c35 86 112 246 135 343c10 49 86 48 90 -3zM332 510c-18 -46 -67 -146 -87 -199c52 2 100 -2 143 -2c-21 65 -43 140 -56 201z" />
    <glyph glyph-name="Amacron.ss01" horiz-adv-x="629" 
d="M415 814c40 2 49 -51 6 -53c-38 -2 -109 -3 -147 0c-39 3 -44 55 -1 53c37 -2 105 -2 142 0zM389 650c4 -97 43 -230 80 -342c8 0 51 1 62 2c60 4 87 -47 -14 -67c-9 -1 -18 -1 -27 -2c25 -72 59 -155 80 -175c42 -38 20 -78 -40 -65c-39 8 -82 129 -120 238
c-61 0 -111 9 -190 1c-62 -162 -91 -238 -144 -244c-45 -5 -77 26 -16 76c12 8 44 84 75 164c-72 0 -112 74 -50 74h79c35 86 112 246 135 343c10 49 86 48 90 -3zM332 510c-18 -46 -67 -146 -87 -199c52 2 100 -2 143 -2c-21 65 -43 140 -56 201z" />
    <glyph glyph-name="Aogonek.ss01" horiz-adv-x="662" 
d="M593 -87c23 21 43 -16 24 -39c-24 -30 -82 -32 -109 9c-19 30 -13 82 12 122c-36 24 -75 134 -110 234c-61 0 -111 9 -190 1c-62 -162 -91 -238 -144 -244c-45 -5 -77 26 -16 76c12 8 44 84 75 164c-72 0 -112 74 -50 74h79c35 86 112 246 135 343c10 49 86 48 90 -3
c4 -97 43 -230 80 -342c8 0 51 1 62 2c60 4 87 -47 -14 -67c-9 -1 -18 -1 -27 -2c25 -72 59 -155 80 -175c30 -27 27 -55 2 -64c-20 -26 -28 -68 -17 -85c10 -16 23 -18 38 -4zM245 311c52 2 100 -2 143 -2c-21 65 -43 140 -56 201c-18 -46 -67 -146 -87 -199z" />
    <glyph glyph-name="Aring.ss01" horiz-adv-x="629" 
d="M363 869c8 4 20 5 28 -2c62 -39 13 -146 -64 -125c-37 10 -56 48 -41 80c14 32 47 47 77 47zM365 829c-3 2 -8 0 -11 -2c-11 0 -25 -7 -30 -18c-6 -11 2 -24 16 -26c30 -9 46 31 25 46zM389 650c4 -97 43 -230 80 -342c8 0 51 1 62 2c60 4 87 -47 -14 -67
c-9 -1 -18 -1 -27 -2c25 -72 59 -155 80 -175c42 -38 20 -78 -40 -65c-39 8 -82 129 -120 238c-61 0 -111 9 -190 1c-62 -162 -91 -238 -144 -244c-45 -5 -77 26 -16 76c12 8 44 84 75 164c-72 0 -112 74 -50 74h79c35 86 112 246 135 343c10 49 86 48 90 -3zM332 510
c-18 -46 -67 -146 -87 -199c52 2 100 -2 143 -2c-21 65 -43 140 -56 201z" />
    <glyph glyph-name="Atilde.ss01" horiz-adv-x="629" 
d="M310 824c18 -4 53 -29 68 -33c30 -8 35 11 39 17c9 13 44 5 37 -24c-4 -15 -29 -43 -56 -43c-31 0 -61 20 -78 28c-13 6 -30 7 -37 -8c-10 -21 -52 -11 -45 25c6 31 41 44 72 38zM389 650c4 -97 43 -230 80 -342c8 0 51 1 62 2c60 4 87 -47 -14 -67c-9 -1 -18 -1 -27 -2
c25 -72 59 -155 80 -175c42 -38 20 -78 -40 -65c-39 8 -82 129 -120 238c-61 0 -111 9 -190 1c-62 -162 -91 -238 -144 -244c-45 -5 -77 26 -16 76c12 8 44 84 75 164c-72 0 -112 74 -50 74h79c35 86 112 246 135 343c10 49 86 48 90 -3zM332 510c-18 -46 -67 -146 -87 -199
c52 2 100 -2 143 -2c-21 65 -43 140 -56 201z" />
    <glyph glyph-name="M.ss01" horiz-adv-x="796" 
d="M330 670c10 -73 21 -488 92 -543c40 25 129 364 169 541c10 49 85 47 89 -4c0 -243 8 -521 68 -598c47 -56 8 -79 -46 -57c-60 32 -89 240 -96 412c-44 -181 -111 -384 -199 -376c-81 37 -120 171 -135 351c-30 -175 -81 -372 -168 -393c-115 -28 -67 43 -27 67
c85 48 146 509 162 586c14 53 77 60 91 14z" />
    <glyph glyph-name="Y.ss01" horiz-adv-x="553" 
d="M452 687c20 39 86 3 70 -40c-79 -188 -104 -251 -197 -370c2 -35 5 -124 5 -139s-2 -81 -2 -99c0 -26 -79 -38 -79 -7c0 53 1 93 2 127c0 45 -1 78 -9 112c-114 113 -200 209 -224 383c-6 39 65 84 77 24c31 -143 83 -238 181 -329c84 113 105 163 176 338z" />
    <glyph glyph-name="Yacute.ss01" horiz-adv-x="553" 
d="M291 847c23 27 74 -6 51 -33c-17 -20 -56 -49 -73 -69c-21 -23 -64 -1 -42 31c13 19 51 52 64 71zM452 687c20 39 86 3 70 -40c-79 -188 -104 -251 -197 -370c2 -35 5 -124 5 -139s-2 -81 -2 -99c0 -26 -79 -38 -79 -7c0 53 1 93 2 127c0 45 -1 78 -9 112
c-114 113 -200 209 -224 383c-6 39 65 84 77 24c31 -143 83 -238 181 -329c84 113 105 163 176 338z" />
    <glyph glyph-name="Ycircumflex.ss01" horiz-adv-x="553" 
d="M273 852c39 -23 72 -47 94 -63c28 -21 -3 -69 -27 -49c-35 29 -60 46 -78 61c-25 -18 -66 -37 -87 -53c-25 -20 -60 6 -35 34c17 19 118 84 133 70zM452 687c20 39 86 3 70 -40c-79 -188 -104 -251 -197 -370c2 -35 5 -124 5 -139s-2 -81 -2 -99c0 -26 -79 -38 -79 -7
c0 53 1 93 2 127c0 45 -1 78 -9 112c-114 113 -200 209 -224 383c-6 39 65 84 77 24c31 -143 83 -238 181 -329c84 113 105 163 176 338z" />
    <glyph glyph-name="Ydieresis.ss01" horiz-adv-x="553" 
d="M314 806c30 3 47 -6 53 -19c9 -18 -9 -45 -52 -45c-37 0 -36 60 -1 64zM213 807c41 0 42 -67 1 -67c-19 0 -50 7 -50 34c-1 23 13 33 49 33zM452 687c20 39 86 3 70 -40c-79 -188 -104 -251 -197 -370c2 -35 5 -124 5 -139s-2 -81 -2 -99c0 -26 -79 -38 -79 -7
c0 53 1 93 2 127c0 45 -1 78 -9 112c-114 113 -200 209 -224 383c-6 39 65 84 77 24c31 -143 83 -238 181 -329c84 113 105 163 176 338z" />
    <glyph glyph-name="Ygrave.ss01" horiz-adv-x="553" 
d="M253 847c13 -19 42 -52 55 -71c22 -32 -21 -54 -42 -31c-17 20 -48 49 -65 69c-23 27 29 60 52 33zM452 687c20 39 86 3 70 -40c-79 -188 -104 -251 -197 -370c2 -35 5 -124 5 -139s-2 -81 -2 -99c0 -26 -79 -38 -79 -7c0 53 1 93 2 127c0 45 -1 78 -9 112
c-114 113 -200 209 -224 383c-6 39 65 84 77 24c31 -143 83 -238 181 -329c84 113 105 163 176 338z" />
    <glyph glyph-name="Z.ss01" horiz-adv-x="555" 
d="M91 702c171 -31 233 -27 411 -1c27 4 52 -31 40 -56c-159 -168 -269 -419 -379 -550c59 9 107 15 161 14c46 0 144 -19 184 -23c25 -2 14 -82 -9 -82c-72 5 -121 20 -186 22c-79 1 -157 -6 -251 -22c-32 -4 -53 24 -32 63c117 100 275 417 378 544
c-128 -17 -197 -15 -334 12c-24 9 -9 84 17 79z" />
    <glyph glyph-name="Zacute.ss01" horiz-adv-x="555" 
d="M321 847c23 27 74 -6 51 -33c-17 -20 -56 -49 -73 -69c-21 -23 -64 -1 -42 31c13 19 51 52 64 71zM91 702c171 -31 233 -27 411 -1c27 4 52 -31 40 -56c-159 -168 -269 -419 -379 -550c59 9 107 15 161 14c46 0 144 -19 184 -23c25 -2 14 -82 -9 -82
c-72 5 -121 20 -186 22c-79 1 -157 -6 -251 -22c-32 -4 -53 24 -32 63c117 100 275 417 378 544c-128 -17 -197 -15 -334 12c-24 9 -9 84 17 79z" />
    <glyph glyph-name="Zcaron.ss01" horiz-adv-x="555" 
d="M362 853c22 21 58 -18 30 -44c-20 -19 -50 -32 -94 -59c-15 -14 -93 45 -110 65c-15 18 13 57 38 37c21 -16 36 -33 61 -51c18 15 59 37 75 52zM91 702c171 -31 233 -27 411 -1c27 4 52 -31 40 -56c-159 -168 -269 -419 -379 -550c59 9 107 15 161 14
c46 0 144 -19 184 -23c25 -2 14 -82 -9 -82c-72 5 -121 20 -186 22c-79 1 -157 -6 -251 -22c-32 -4 -53 24 -32 63c117 100 275 417 378 544c-128 -17 -197 -15 -334 12c-24 9 -9 84 17 79z" />
    <glyph glyph-name="Zdotaccent.ss01" horiz-adv-x="555" 
d="M287 829c73 -2 76 -71 3 -71c-17 0 -38 15 -40 30c-5 25 13 41 37 41zM91 702c171 -31 233 -27 411 -1c27 4 52 -31 40 -56c-159 -168 -269 -419 -379 -550c59 9 107 15 161 14c46 0 144 -19 184 -23c25 -2 14 -82 -9 -82c-72 5 -121 20 -186 22c-79 1 -157 -6 -251 -22
c-32 -4 -53 24 -32 63c117 100 275 417 378 544c-128 -17 -197 -15 -334 12c-24 9 -9 84 17 79z" />
    <glyph glyph-name="a" unicode="a" horiz-adv-x="581" 
d="M331 625c-13 48 -59 51 -82 -7c-42 -94 -82 -254 -123 -348h-42c-57 1 -58 -60 14 -64c-22 -50 -54 -117 -66 -162c-28 -74 55 -77 67 -37c26 87 48 126 86 199c19 0 171 5 214 4c21 -58 47 -91 82 -180c23 -58 110 -80 77 17c-34 63 -52 99 -76 162c9 0 19 1 28 1
c74 7 71 75 4 75c-24 -1 -42 -3 -62 -4c-35 63 -77 224 -121 344zM293 516c32 -98 47 -179 74 -234c-25 1 -139 -3 -154 -3c22 51 52 160 80 237z" />
    <glyph glyph-name="aacute" unicode="&#xe1;" horiz-adv-x="581" 
d="M323 817c23 27 74 -6 51 -33c-17 -20 -56 -49 -73 -69c-21 -23 -64 -1 -42 31c13 19 51 52 64 71zM331 625c-13 48 -59 51 -82 -7c-42 -94 -82 -254 -123 -348h-42c-57 1 -58 -60 14 -64c-22 -50 -54 -117 -66 -162c-28 -74 55 -77 67 -37c26 87 48 126 86 199
c19 0 171 5 214 4c21 -58 47 -91 82 -180c23 -58 110 -80 77 17c-34 63 -52 99 -76 162c9 0 19 1 28 1c74 7 71 75 4 75c-24 -1 -42 -3 -62 -4c-35 63 -77 224 -121 344zM293 516c32 -98 47 -179 74 -234c-25 1 -139 -3 -154 -3c22 51 52 160 80 237z" />
    <glyph glyph-name="abreve" unicode="&#x103;" horiz-adv-x="581" 
d="M352 806c24 25 51 -6 34 -32c-20 -30 -53 -53 -97 -53s-77 23 -97 53c-17 26 10 57 34 32c19 -19 30 -33 63 -33s44 14 63 33zM331 625c-13 48 -59 51 -82 -7c-42 -94 -82 -254 -123 -348h-42c-57 1 -58 -60 14 -64c-22 -50 -54 -117 -66 -162c-28 -74 55 -77 67 -37
c26 87 48 126 86 199c19 0 171 5 214 4c21 -58 47 -91 82 -180c23 -58 110 -80 77 17c-34 63 -52 99 -76 162c9 0 19 1 28 1c74 7 71 75 4 75c-24 -1 -42 -3 -62 -4c-35 63 -77 224 -121 344zM293 516c32 -98 47 -179 74 -234c-25 1 -139 -3 -154 -3c22 51 52 160 80 237z
" />
    <glyph glyph-name="acircumflex" unicode="&#xe2;" horiz-adv-x="581" 
d="M305 822c39 -23 72 -47 94 -63c28 -21 -3 -69 -27 -49c-35 29 -60 46 -78 61c-25 -18 -66 -37 -87 -53c-25 -20 -60 6 -35 34c17 19 118 84 133 70zM331 625c-13 48 -59 51 -82 -7c-42 -94 -82 -254 -123 -348h-42c-57 1 -58 -60 14 -64c-22 -50 -54 -117 -66 -162
c-28 -74 55 -77 67 -37c26 87 48 126 86 199c19 0 171 5 214 4c21 -58 47 -91 82 -180c23 -58 110 -80 77 17c-34 63 -52 99 -76 162c9 0 19 1 28 1c74 7 71 75 4 75c-24 -1 -42 -3 -62 -4c-35 63 -77 224 -121 344zM293 516c32 -98 47 -179 74 -234c-25 1 -139 -3 -154 -3
c22 51 52 160 80 237z" />
    <glyph glyph-name="adieresis" unicode="&#xe4;" horiz-adv-x="581" 
d="M346 776c30 3 47 -6 53 -19c9 -18 -9 -45 -52 -45c-37 0 -36 60 -1 64zM245 777c41 0 42 -67 1 -67c-19 0 -50 7 -50 34c-1 23 13 33 49 33zM331 625c-13 48 -59 51 -82 -7c-42 -94 -82 -254 -123 -348h-42c-57 1 -58 -60 14 -64c-22 -50 -54 -117 -66 -162
c-28 -74 55 -77 67 -37c26 87 48 126 86 199c19 0 171 5 214 4c21 -58 47 -91 82 -180c23 -58 110 -80 77 17c-34 63 -52 99 -76 162c9 0 19 1 28 1c74 7 71 75 4 75c-24 -1 -42 -3 -62 -4c-35 63 -77 224 -121 344zM293 516c32 -98 47 -179 74 -234c-25 1 -139 -3 -154 -3
c22 51 52 160 80 237z" />
    <glyph glyph-name="agrave" unicode="&#xe0;" horiz-adv-x="581" 
d="M285 817c13 -19 42 -52 55 -71c22 -32 -21 -54 -42 -31c-17 20 -48 49 -65 69c-23 27 29 60 52 33zM331 625c-13 48 -59 51 -82 -7c-42 -94 -82 -254 -123 -348h-42c-57 1 -58 -60 14 -64c-22 -50 -54 -117 -66 -162c-28 -74 55 -77 67 -37c26 87 48 126 86 199
c19 0 171 5 214 4c21 -58 47 -91 82 -180c23 -58 110 -80 77 17c-34 63 -52 99 -76 162c9 0 19 1 28 1c74 7 71 75 4 75c-24 -1 -42 -3 -62 -4c-35 63 -77 224 -121 344zM293 516c32 -98 47 -179 74 -234c-25 1 -139 -3 -154 -3c22 51 52 160 80 237z" />
    <glyph glyph-name="amacron" unicode="&#x101;" horiz-adv-x="581" 
d="M362 784c40 2 49 -51 6 -53c-38 -2 -109 -3 -147 0c-39 3 -44 55 -1 53c37 -2 105 -2 142 0zM331 625c-13 48 -59 51 -82 -7c-42 -94 -82 -254 -123 -348h-42c-57 1 -58 -60 14 -64c-22 -50 -54 -117 -66 -162c-28 -74 55 -77 67 -37c26 87 48 126 86 199
c19 0 171 5 214 4c21 -58 47 -91 82 -180c23 -58 110 -80 77 17c-34 63 -52 99 -76 162c9 0 19 1 28 1c74 7 71 75 4 75c-24 -1 -42 -3 -62 -4c-35 63 -77 224 -121 344zM293 516c32 -98 47 -179 74 -234c-25 1 -139 -3 -154 -3c22 51 52 160 80 237z" />
    <glyph glyph-name="aogonek" unicode="&#x105;" horiz-adv-x="650" 
d="M342 655c44 -120 106 -281 141 -344c20 1 38 3 62 4c70 0 70 -72 -7 -79c-9 0 -19 -1 -28 -1c24 -63 55 -125 79 -188c12 -36 7 -56 -5 -64c-22 -26 -30 -70 -19 -87c10 -16 23 -18 38 -4c23 21 43 -16 24 -39c-24 -30 -82 -32 -109 9c-21 32 -12 91 19 131
c-11 9 -20 22 -25 37c-25 89 -61 148 -82 206c-43 1 -215 0 -234 0c-28 -73 -70 -142 -96 -229c-13 -39 -95 -37 -67 37c12 45 46 142 76 192c-72 4 -71 65 -14 64h42c41 94 81 254 123 348c23 58 69 55 82 7zM304 546c-28 -77 -58 -186 -80 -237c15 0 149 4 174 3
c-27 55 -62 136 -94 234z" />
    <glyph glyph-name="aring" unicode="&#xe5;" horiz-adv-x="581" 
d="M310 839c8 4 20 5 28 -2c62 -39 13 -146 -64 -125c-37 10 -56 48 -41 80c14 32 47 47 77 47zM312 799c-3 2 -8 0 -11 -2c-11 0 -25 -7 -30 -18c-6 -11 2 -24 16 -26c30 -9 46 31 25 46zM331 625c-13 48 -59 51 -82 -7c-42 -94 -82 -254 -123 -348h-42
c-57 1 -58 -60 14 -64c-22 -50 -54 -117 -66 -162c-28 -74 55 -77 67 -37c26 87 48 126 86 199c19 0 171 5 214 4c21 -58 47 -91 82 -180c23 -58 110 -80 77 17c-34 63 -52 99 -76 162c9 0 19 1 28 1c74 7 71 75 4 75c-24 -1 -42 -3 -62 -4c-35 63 -77 224 -121 344z
M293 516c32 -98 47 -179 74 -234c-25 1 -139 -3 -154 -3c22 51 52 160 80 237z" />
    <glyph glyph-name="atilde" unicode="&#xe3;" horiz-adv-x="581" 
d="M257 794c18 -4 53 -29 68 -33c30 -8 35 11 39 17c9 13 44 5 37 -24c-4 -15 -29 -43 -56 -43c-31 0 -61 20 -78 28c-13 6 -30 7 -37 -8c-10 -21 -52 -11 -45 25c6 31 41 44 72 38zM331 625c-13 48 -59 51 -82 -7c-42 -94 -82 -254 -123 -348h-42c-57 1 -58 -60 14 -64
c-22 -50 -54 -117 -66 -162c-28 -74 55 -77 67 -37c26 87 48 126 86 199c19 0 171 5 214 4c21 -58 47 -91 82 -180c23 -58 110 -80 77 17c-34 63 -52 99 -76 162c9 0 19 1 28 1c74 7 71 75 4 75c-24 -1 -42 -3 -62 -4c-35 63 -77 224 -121 344zM293 516
c32 -98 47 -179 74 -234c-25 1 -139 -3 -154 -3c22 51 52 160 80 237z" />
    <glyph glyph-name="ae" unicode="&#xe6;" horiz-adv-x="819" 
d="M397 652c40 6 243 2 339 -3c27 0 25 -70 0 -72c-94 -3 -156 14 -301 1c2 -66 3 -131 5 -197c77 -5 217 -4 288 7c56 4 80 -37 23 -68c-119 -22 -234 -11 -310 -11c0 -86 5 -202 8 -236c92 -4 280 14 315 12c60 -5 49 -62 -13 -70c-21 -3 -50 -5 -81 -7
c-84 -5 -190 -7 -250 -7c-30 0 -36 5 -40 41c-7 73 -13 133 -13 194c-27 2 -135 -1 -155 -1c-40 -68 -85 -150 -118 -216c-19 -36 -94 -24 -57 42c22 47 55 117 91 176c-51 11 -57 69 -2 69h43c30 49 135 269 168 318c17 21 32 27 60 28zM360 524
c-45 -81 -74 -165 -105 -218c20 0 91 3 108 2c0 40 -3 177 -3 216z" />
    <glyph glyph-name="b" unicode="b" horiz-adv-x="599" 
d="M163 655c4 -7 8 -21 9 -28c188 0 300 -24 300 -146c0 -47 -29 -81 -64 -100c14 -4 28 -10 41 -15c79 -35 120 -80 120 -160c0 -126 -83 -165 -183 -190c-83 -23 -144 -8 -230 9c-7 -22 -21 -49 -52 -38c-23 8 -25 23 -18 56l-12 6c-62 27 -47 110 12 76
c7 -3 13 -7 20 -10c9 78 7 140 7 217c-88 22 -70 74 -34 74h32c-1 40 -2 106 -5 144h-5c-50 0 -58 68 -35 70l33 3c-2 43 38 63 64 32zM178 554c4 -34 5 -98 7 -146c31 0 210 2 210 69c0 83 -169 80 -217 77zM190 336c-5 -96 -22 -241 -19 -241c65 -16 130 -23 192 -10
c76 18 131 46 131 119c0 49 -37 78 -83 100c-55 27 -156 35 -221 32z" />
    <glyph glyph-name="c" unicode="c" horiz-adv-x="559" 
d="M322 649c66 -17 91 -39 118 -69c35 -39 60 -75 75 -113c16 -34 -59 -62 -76 -34c-32 72 -80 129 -139 139c-39 6 -95 -26 -129 -65c-46 -57 -64 -134 -64 -212c0 -95 30 -147 79 -187c26 -21 64 -34 102 -33c62 1 111 51 142 109c24 28 86 8 67 -39
c-44 -86 -118 -145 -205 -147c-46 -1 -96 12 -130 33c-82 50 -131 128 -136 240c-6 69 -1 167 74 274c50 71 155 120 222 104z" />
    <glyph glyph-name="cacute" unicode="&#x107;" horiz-adv-x="559" 
d="M321 815c23 27 74 -6 51 -33c-17 -20 -56 -49 -73 -69c-21 -23 -64 -1 -42 31c13 19 51 52 64 71zM322 649c66 -17 91 -39 118 -69c35 -39 60 -75 75 -113c16 -34 -59 -62 -76 -34c-32 72 -80 129 -139 139c-39 6 -95 -26 -129 -65c-46 -57 -64 -134 -64 -212
c0 -95 30 -147 79 -187c26 -21 64 -34 102 -33c62 1 111 51 142 109c24 28 86 8 67 -39c-44 -86 -118 -145 -205 -147c-46 -1 -96 12 -130 33c-82 50 -131 128 -136 240c-6 69 -1 167 74 274c50 71 155 120 222 104z" />
    <glyph glyph-name="ccaron" unicode="&#x10d;" horiz-adv-x="559" 
d="M362 821c22 21 58 -18 30 -44c-20 -19 -50 -32 -94 -59c-15 -14 -93 45 -110 65c-15 18 13 57 38 37c21 -16 36 -33 61 -51c18 15 59 37 75 52zM322 649c66 -17 91 -39 118 -69c35 -39 60 -75 75 -113c16 -34 -59 -62 -76 -34c-32 72 -80 129 -139 139
c-39 6 -95 -26 -129 -65c-46 -57 -64 -134 -64 -212c0 -95 30 -147 79 -187c26 -21 64 -34 102 -33c62 1 111 51 142 109c24 28 86 8 67 -39c-44 -86 -118 -145 -205 -147c-46 -1 -96 12 -130 33c-82 50 -131 128 -136 240c-6 69 -1 167 74 274c50 71 155 120 222 104z" />
    <glyph glyph-name="ccedilla" unicode="&#xe7;" horiz-adv-x="559" 
d="M300 572c-39 6 -95 -26 -129 -65c-46 -57 -64 -134 -64 -212c0 -95 30 -147 79 -187c26 -21 64 -34 102 -33c62 1 111 51 142 109c24 28 86 8 67 -39c-43 -84 -115 -143 -200 -147c-2 -12 -6 -29 -10 -40c38 2 55 -25 58 -51c3 -22 -8 -49 -27 -63
c-32 -24 -94 -12 -105 21c-7 22 19 40 34 20c11 -14 26 -17 39 -7c18 14 16 46 -22 44c-22 -5 -28 0 -23 23l13 55c-34 5 -67 16 -92 31c-82 50 -131 128 -136 240c-6 69 -1 167 74 274c50 71 155 120 222 104c66 -17 91 -39 118 -69c35 -39 60 -75 75 -113
c16 -34 -59 -62 -76 -34c-32 72 -80 129 -139 139z" />
    <glyph glyph-name="cdotaccent" unicode="&#x10b;" horiz-adv-x="559" 
d="M287 797c73 -2 76 -71 3 -71c-17 0 -38 15 -40 30c-5 25 13 41 37 41zM322 649c66 -17 91 -39 118 -69c35 -39 60 -75 75 -113c16 -34 -59 -62 -76 -34c-32 72 -80 129 -139 139c-39 6 -95 -26 -129 -65c-46 -57 -64 -134 -64 -212c0 -95 30 -147 79 -187
c26 -21 64 -34 102 -33c62 1 111 51 142 109c24 28 86 8 67 -39c-44 -86 -118 -145 -205 -147c-46 -1 -96 12 -130 33c-82 50 -131 128 -136 240c-6 69 -1 167 74 274c50 71 155 120 222 104z" />
    <glyph glyph-name="d" unicode="d" horiz-adv-x="618" 
d="M20 621c142 47 289 40 414 -8c107 -50 153 -177 154 -262c2 -137 -64 -222 -176 -283c-104 -53 -218 -70 -302 -59c-32 0 -48 29 -46 50c9 171 17 340 -3 497c-5 -1 -9 -3 -6 -2c-45 -20 -72 53 -35 67zM136 574c18 -130 16 -364 8 -493c69 0 89 4 170 27
c120 40 197 122 197 234c0 104 -61 199 -173 225c-71 16 -140 15 -202 7z" />
    <glyph glyph-name="eth" unicode="&#xf0;" horiz-adv-x="635" 
d="M36 609c138 46 287 42 414 -8c107 -50 154 -165 155 -250c2 -137 -64 -222 -176 -283c-102 -52 -216 -70 -303 -59c-29 1 -44 30 -45 50c5 88 9 164 9 247l-31 1c-41 5 -54 68 -14 68c9 0 29 -1 45 -1c-2 58 -6 115 -12 170c-6 -1 -29 -6 -17 -5c-54 -9 -58 59 -25 70z
M153 562c7 -58 11 -123 13 -189c28 0 63 0 84 2c45 2 43 -63 4 -68c-22 -1 -59 -1 -87 -1c0 -86 -3 -148 -7 -225c69 0 90 4 171 27c119 40 196 122 196 234c0 104 -60 187 -172 213c-72 16 -140 15 -202 7z" />
    <glyph glyph-name="dcaron" unicode="&#x10f;" horiz-adv-x="665" 
d="M568 557l14 74c1 23 59 23 58 -1c-4 -8 -7 -34 -17 -75c-6 -22 -56 -29 -55 2zM20 609c142 47 289 40 414 -8c107 -50 153 -165 154 -250c2 -137 -64 -222 -176 -283c-104 -53 -218 -70 -302 -59c-32 0 -48 29 -46 50c9 171 17 328 -3 485c-5 -1 -9 -3 -6 -2
c-45 -20 -72 53 -35 67zM136 562c18 -130 16 -352 8 -481c69 0 89 4 170 27c120 40 197 122 197 234c0 104 -61 187 -173 213c-71 16 -140 15 -202 7z" />
    <glyph glyph-name="dcroat" unicode="&#x111;" horiz-adv-x="635" 
d="M36 609c138 46 287 42 414 -8c107 -50 154 -165 155 -250c2 -137 -64 -222 -176 -283c-102 -52 -216 -70 -303 -59c-29 1 -44 30 -45 50c5 88 9 164 9 247l-31 1c-41 5 -54 68 -14 68c9 0 29 -1 45 -1c-2 58 -6 115 -12 170c-6 -1 -29 -6 -17 -5c-54 -9 -58 59 -25 70z
M153 562c7 -58 11 -123 13 -189c28 0 63 0 84 2c45 2 43 -63 4 -68c-22 -1 -59 -1 -87 -1c0 -86 -3 -148 -7 -225c69 0 90 4 171 27c119 40 196 122 196 234c0 104 -60 187 -172 213c-72 16 -140 15 -202 7z" />
    <glyph glyph-name="e" unicode="e" horiz-adv-x="592" 
d="M498 645c55 2 54 -71 0 -75c-51 0 -304 6 -346 3c1 -21 6 -161 7 -216c88 -6 248 -3 332 7c58 4 84 -39 25 -70c-125 -23 -283 -12 -356 -12c0 -13 5 -205 8 -228c105 -5 331 15 363 15c71 -6 55 -75 -15 -75c-57 0 -90 -2 -118 -4c-59 -4 -92 -11 -270 -11
c-5 0 -31 13 -32 28c-12 48 -11 82 -11 139c1 40 -4 112 -4 123c-3 111 -7 285 -7 300l-17 -3c-55 -2 -52 62 -9 74c16 2 31 4 44 5c43 6 319 4 406 0z" />
    <glyph glyph-name="eacute" unicode="&#xe9;" horiz-adv-x="592" 
d="M329 820c23 27 74 -6 51 -33c-17 -20 -56 -49 -73 -69c-21 -23 -64 -1 -42 31c13 19 51 52 64 71zM498 645c55 2 54 -71 0 -75c-51 0 -304 6 -346 3c1 -21 6 -161 7 -216c88 -6 248 -3 332 7c58 4 84 -39 25 -70c-125 -23 -283 -12 -356 -12c0 -13 5 -205 8 -228
c105 -5 331 15 363 15c71 -6 55 -75 -15 -75c-57 0 -90 -2 -118 -4c-59 -4 -92 -11 -270 -11c-5 0 -31 13 -32 28c-12 48 -11 82 -11 139c1 40 -4 112 -4 123c-3 111 -7 285 -7 300l-17 -3c-55 -2 -52 62 -9 74c16 2 31 4 44 5c43 6 319 4 406 0z" />
    <glyph glyph-name="ecaron" unicode="&#x11b;" horiz-adv-x="592" 
d="M370 826c22 21 58 -18 30 -44c-20 -19 -50 -32 -94 -59c-15 -14 -93 45 -110 65c-15 18 13 57 38 37c21 -16 36 -33 61 -51c18 15 59 37 75 52zM498 645c55 2 54 -71 0 -75c-51 0 -304 6 -346 3c1 -21 6 -161 7 -216c88 -6 248 -3 332 7c58 4 84 -39 25 -70
c-125 -23 -283 -12 -356 -12c0 -13 5 -205 8 -228c105 -5 331 15 363 15c71 -6 55 -75 -15 -75c-57 0 -90 -2 -118 -4c-59 -4 -92 -11 -270 -11c-5 0 -31 13 -32 28c-12 48 -11 82 -11 139c1 40 -4 112 -4 123c-3 111 -7 285 -7 300l-17 -3c-55 -2 -52 62 -9 74
c16 2 31 4 44 5c43 6 319 4 406 0z" />
    <glyph glyph-name="ecircumflex" unicode="&#xea;" horiz-adv-x="592" 
d="M311 825c39 -23 72 -47 94 -63c28 -21 -3 -69 -27 -49c-35 29 -60 46 -78 61c-25 -18 -66 -37 -87 -53c-25 -20 -60 6 -35 34c17 19 118 84 133 70zM498 645c55 2 54 -71 0 -75c-51 0 -304 6 -346 3c1 -21 6 -161 7 -216c88 -6 248 -3 332 7c58 4 84 -39 25 -70
c-125 -23 -283 -12 -356 -12c0 -13 5 -205 8 -228c105 -5 331 15 363 15c71 -6 55 -75 -15 -75c-57 0 -90 -2 -118 -4c-59 -4 -92 -11 -270 -11c-5 0 -31 13 -32 28c-12 48 -11 82 -11 139c1 40 -4 112 -4 123c-3 111 -7 285 -7 300l-17 -3c-55 -2 -52 62 -9 74
c16 2 31 4 44 5c43 6 319 4 406 0z" />
    <glyph glyph-name="edieresis" unicode="&#xeb;" horiz-adv-x="592" 
d="M352 779c30 3 47 -6 53 -19c9 -18 -9 -45 -52 -45c-37 0 -36 60 -1 64zM251 780c41 0 42 -67 1 -67c-19 0 -50 7 -50 34c-1 23 13 33 49 33zM498 645c55 2 54 -71 0 -75c-51 0 -304 6 -346 3c1 -21 6 -161 7 -216c88 -6 248 -3 332 7c58 4 84 -39 25 -70
c-125 -23 -283 -12 -356 -12c0 -13 5 -205 8 -228c105 -5 331 15 363 15c71 -6 55 -75 -15 -75c-57 0 -90 -2 -118 -4c-59 -4 -92 -11 -270 -11c-5 0 -31 13 -32 28c-12 48 -11 82 -11 139c1 40 -4 112 -4 123c-3 111 -7 285 -7 300l-17 -3c-55 -2 -52 62 -9 74
c16 2 31 4 44 5c43 6 319 4 406 0z" />
    <glyph glyph-name="edotaccent" unicode="&#x117;" horiz-adv-x="592" 
d="M295 802c73 -2 76 -71 3 -71c-17 0 -38 15 -40 30c-5 25 13 41 37 41zM498 645c55 2 54 -71 0 -75c-51 0 -304 6 -346 3c1 -21 6 -161 7 -216c88 -6 248 -3 332 7c58 4 84 -39 25 -70c-125 -23 -283 -12 -356 -12c0 -13 5 -205 8 -228c105 -5 331 15 363 15
c71 -6 55 -75 -15 -75c-57 0 -90 -2 -118 -4c-59 -4 -92 -11 -270 -11c-5 0 -31 13 -32 28c-12 48 -11 82 -11 139c1 40 -4 112 -4 123c-3 111 -7 285 -7 300l-17 -3c-55 -2 -52 62 -9 74c16 2 31 4 44 5c43 6 319 4 406 0z" />
    <glyph glyph-name="egrave" unicode="&#xe8;" horiz-adv-x="592" 
d="M291 820c13 -19 42 -52 55 -71c22 -32 -21 -54 -42 -31c-17 20 -48 49 -65 69c-23 27 29 60 52 33zM498 645c55 2 54 -71 0 -75c-51 0 -304 6 -346 3c1 -21 6 -161 7 -216c88 -6 248 -3 332 7c58 4 84 -39 25 -70c-125 -23 -283 -12 -356 -12c0 -13 5 -205 8 -228
c105 -5 331 15 363 15c71 -6 55 -75 -15 -75c-57 0 -90 -2 -118 -4c-59 -4 -92 -11 -270 -11c-5 0 -31 13 -32 28c-12 48 -11 82 -11 139c1 40 -4 112 -4 123c-3 111 -7 285 -7 300l-17 -3c-55 -2 -52 62 -9 74c16 2 31 4 44 5c43 6 319 4 406 0z" />
    <glyph glyph-name="emacron" unicode="&#x113;" horiz-adv-x="592" 
d="M368 787c40 2 49 -51 6 -53c-38 -2 -109 -3 -147 0c-39 3 -44 55 -1 53c37 -2 105 -2 142 0zM498 645c55 2 54 -71 0 -75c-51 0 -304 6 -346 3c1 -21 6 -161 7 -216c88 -6 248 -3 332 7c58 4 84 -39 25 -70c-125 -23 -283 -12 -356 -12c0 -13 5 -205 8 -228
c105 -5 331 15 363 15c71 -6 55 -75 -15 -75c-57 0 -90 -2 -118 -4c-59 -4 -92 -11 -270 -11c-5 0 -31 13 -32 28c-12 48 -11 82 -11 139c1 40 -4 112 -4 123c-3 111 -7 285 -7 300l-17 -3c-55 -2 -52 62 -9 74c16 2 31 4 44 5c43 6 319 4 406 0z" />
    <glyph glyph-name="eogonek" unicode="&#x119;" horiz-adv-x="614" 
d="M567 -106c23 21 43 -16 24 -39c-24 -30 -82 -32 -109 9c-21 32 -12 89 18 130c-48 0 -77 -2 -102 -4c-59 -4 -92 -11 -270 -11c-5 0 -31 13 -32 28c-12 48 -11 82 -11 139c1 40 -4 112 -4 123c-3 111 -7 285 -7 300l-17 -3c-55 -2 -52 62 -9 74c16 2 31 4 44 5
c43 6 319 4 406 0c55 2 54 -71 0 -75c-51 0 -304 6 -346 3c1 -21 6 -161 7 -216c88 -6 248 -3 332 7c58 4 84 -39 25 -70c-125 -23 -283 -12 -356 -12c0 -13 5 -205 8 -228c105 -5 331 15 363 15c52 -4 57 -43 28 -63c-1 -6 -4 -13 -11 -21c-22 -26 -30 -70 -19 -87
c10 -16 23 -18 38 -4z" />
    <glyph glyph-name="f" unicode="f" horiz-adv-x="551" 
d="M94 648c87 0 418 38 428 -48c4 -33 -13 -62 -36 -62c-35 0 -36 23 -56 50c-23 0 -252 -5 -284 -5c0 0 19 -230 19 -239c81 0 213 -17 284 0c67 9 68 -56 20 -71c-94 -19 -240 -4 -304 -4c0 -57 -2 -204 -2 -236c-5 -55 -73 -33 -73 5c0 26 -3 262 -4 310
c0 24 -7 209 -5 228l-26 -2c-48 -4 -60 44 -20 65c11 6 36 10 59 9z" />
    <glyph glyph-name="g" unicode="g" horiz-adv-x="591" 
d="M271 649c129 5 266 -31 272 -159c1 -22 -66 -45 -73 -6c-17 89 -152 94 -198 89c-56 -2 -94 -35 -121 -69c-62 -78 -55 -165 -44 -244c26 -196 159 -235 300 -175c37 18 72 53 72 111c0 14 3 76 2 90c-39 -1 -130 0 -148 0c-39 0 -46 72 -9 72c25 0 149 1 181 4
c21 2 53 -9 50 -43c0 -49 -1 -66 -1 -97c0 -100 -29 -164 -113 -202c-199 -83 -377 -13 -412 246c-7 82 -11 202 70 294c47 51 102 87 172 89z" />
    <glyph glyph-name="gbreve" unicode="&#x11f;" horiz-adv-x="591" 
d="M353 809c24 25 51 -6 34 -32c-20 -30 -53 -53 -97 -53s-77 23 -97 53c-17 26 10 57 34 32c19 -19 30 -33 63 -33s44 14 63 33zM271 649c129 5 266 -31 272 -159c1 -22 -66 -45 -73 -6c-17 89 -152 94 -198 89c-56 -2 -94 -35 -121 -69c-62 -78 -55 -165 -44 -244
c26 -196 159 -235 300 -175c37 18 72 53 72 111c0 14 3 76 2 90c-39 -1 -130 0 -148 0c-39 0 -46 72 -9 72c25 0 149 1 181 4c21 2 53 -9 50 -43c0 -49 -1 -66 -1 -97c0 -100 -29 -164 -113 -202c-199 -83 -377 -13 -412 246c-7 82 -11 202 70 294c47 51 102 87 172 89z" />
    <glyph glyph-name="gcommaaccent" unicode="&#x123;" horiz-adv-x="591" 
d="M377 804c-10 -34 -14 -48 -29 -77c-20 -35 -76 -46 -65 4c6 23 18 66 23 81c14 33 81 25 71 -8zM271 649c129 5 266 -31 272 -159c1 -22 -66 -45 -73 -6c-17 89 -152 94 -198 89c-56 -2 -94 -35 -121 -69c-62 -78 -55 -165 -44 -244c26 -196 159 -235 300 -175
c37 18 72 53 72 111c0 14 3 76 2 90c-39 -1 -130 0 -148 0c-39 0 -46 72 -9 72c25 0 149 1 181 4c21 2 53 -9 50 -43c0 -49 -1 -66 -1 -97c0 -100 -29 -164 -113 -202c-199 -83 -377 -13 -412 246c-7 82 -11 202 70 294c47 51 102 87 172 89z" />
    <glyph glyph-name="gdotaccent" unicode="&#x121;" horiz-adv-x="591" 
d="M290 802c73 -2 76 -71 3 -71c-17 0 -38 15 -40 30c-5 25 13 41 37 41zM271 649c129 5 266 -31 272 -159c1 -22 -66 -45 -73 -6c-17 89 -152 94 -198 89c-56 -2 -94 -35 -121 -69c-62 -78 -55 -165 -44 -244c26 -196 159 -235 300 -175c37 18 72 53 72 111c0 14 3 76 2 90
c-39 -1 -130 0 -148 0c-39 0 -46 72 -9 72c25 0 149 1 181 4c21 2 53 -9 50 -43c0 -49 -1 -66 -1 -97c0 -100 -29 -164 -113 -202c-199 -83 -377 -13 -412 246c-7 82 -11 202 70 294c47 51 102 87 172 89z" />
    <glyph glyph-name="h" unicode="h" horiz-adv-x="595" 
d="M494 625c0 -128 3 -214 8 -284c17 -3 25 -2 43 -2c28 0 19 -71 -1 -72c-18 -1 -25 0 -35 2c2 -32 17 -179 20 -227c4 -53 -72 -59 -76 -7c-3 48 -19 204 -22 240c-47 3 -195 2 -259 6l4 -116c2 -77 2 -101 2 -142c0 -34 -78 -48 -78 -7c0 28 2 125 0 152
c-4 43 -6 76 -9 119c-9 1 -19 2 -31 2c-50 0 -45 55 -9 69c15 2 26 1 36 0c-3 58 -4 134 -8 249c10 58 78 53 80 7c2 -88 4 -173 8 -258c51 -2 221 -7 259 -9c-11 112 -8 176 -8 273c0 45 76 55 76 5z" />
    <glyph glyph-name="hbar" unicode="&#x127;" horiz-adv-x="763" 
d="M605 611c0 -33 -2 -54 0 -86c33 1 40 3 62 4c34 1 26 -63 -2 -63c-24 -1 -34 -3 -58 -4c3 -74 9 -134 29 -401c-1 -23 -74 -32 -75 -5c-2 60 -6 138 -13 199c-81 0 -227 -11 -328 -2c5 -86 2 -185 2 -217c0 -22 -75 -33 -75 -5c0 132 -9 150 -9 274c0 53 -6 119 -7 161
l-67 3c-31 2 -12 64 12 64l53 -2c0 11 -1 44 -1 64c0 23 74 35 77 7c1 -27 1 -48 1 -73c49 2 291 -3 322 -3c0 46 0 64 1 82c2 23 76 32 76 3zM531 461l-325 3c0 -33 2 -66 6 -138c74 -4 163 -3 329 1c-6 52 -7 87 -10 134z" />
    <glyph glyph-name="i" unicode="i" horiz-adv-x="416" 
d="M303 657c36 0 66 -18 67 -56c0 -41 -44 -51 -66 -19c-13 19 -41 9 -74 9c0 -139 0 -215 5 -284c5 -76 6 -125 6 -232c36 -3 88 -5 124 0c35 2 30 -67 -7 -72c-53 -7 -154 5 -291 0c-29 -3 -24 72 3 73c30 2 69 0 93 0c2 38 0 143 -5 230c-3 67 -4 141 -8 280
c-23 0 -29 -1 -98 -6c-42 0 -23 68 3 70c138 6 62 7 248 7z" />
    <glyph glyph-name="dotlessi" unicode="&#x131;" horiz-adv-x="416" 
d="M303 656c36 0 66 -18 67 -56c0 -41 -44 -51 -66 -19c-13 19 -41 9 -74 9c0 -139 0 -214 5 -283c5 -76 6 -125 6 -232c36 -3 88 -5 124 0c35 2 30 -67 -7 -72c-53 -7 -154 5 -291 0c-29 -3 -24 72 3 73c30 2 69 0 93 0c2 38 0 143 -5 230c-3 67 -4 140 -8 279
c-23 0 -29 -1 -98 -6c-42 0 -23 68 3 70c138 6 62 7 248 7z" />
    <glyph glyph-name="iacute" unicode="&#xed;" horiz-adv-x="416" 
d="M214 817c23 27 74 -6 51 -33c-17 -20 -56 -49 -73 -69c-21 -23 -64 -1 -42 31c13 19 51 52 64 71zM303 656c36 0 66 -18 67 -56c0 -41 -44 -51 -66 -19c-13 19 -41 9 -74 9c0 -139 0 -214 5 -283c5 -76 6 -125 6 -232c36 -3 88 -5 124 0c35 2 30 -67 -7 -72
c-53 -7 -154 5 -291 0c-29 -3 -24 72 3 73c30 2 69 0 93 0c2 38 0 143 -5 230c-3 67 -4 140 -8 279c-23 0 -29 -1 -98 -6c-42 0 -23 68 3 70c138 6 62 7 248 7z" />
    <glyph glyph-name="icircumflex" unicode="&#xee;" horiz-adv-x="416" 
d="M196 822c39 -23 72 -47 94 -63c28 -21 -3 -69 -27 -49c-35 29 -60 46 -78 61c-25 -18 -66 -37 -87 -53c-25 -20 -60 6 -35 34c17 19 118 84 133 70zM303 656c36 0 66 -18 67 -56c0 -41 -44 -51 -66 -19c-13 19 -41 9 -74 9c0 -139 0 -214 5 -283c5 -76 6 -125 6 -232
c36 -3 88 -5 124 0c35 2 30 -67 -7 -72c-53 -7 -154 5 -291 0c-29 -3 -24 72 3 73c30 2 69 0 93 0c2 38 0 143 -5 230c-3 67 -4 140 -8 279c-23 0 -29 -1 -98 -6c-42 0 -23 68 3 70c138 6 62 7 248 7z" />
    <glyph glyph-name="idieresis" unicode="&#xef;" horiz-adv-x="416" 
d="M237 776c30 3 47 -6 53 -19c9 -18 -9 -45 -52 -45c-37 0 -36 60 -1 64zM136 777c41 0 42 -67 1 -67c-19 0 -50 7 -50 34c-1 23 13 33 49 33zM303 656c36 0 66 -18 67 -56c0 -41 -44 -51 -66 -19c-13 19 -41 9 -74 9c0 -139 0 -214 5 -283c5 -76 6 -125 6 -232
c36 -3 88 -5 124 0c35 2 30 -67 -7 -72c-53 -7 -154 5 -291 0c-29 -3 -24 72 3 73c30 2 69 0 93 0c2 38 0 143 -5 230c-3 67 -4 140 -8 279c-23 0 -29 -1 -98 -6c-42 0 -23 68 3 70c138 6 62 7 248 7z" />
    <glyph glyph-name="idotaccent" horiz-adv-x="416" 
d="M180 799c73 -2 76 -71 3 -71c-17 0 -38 15 -40 30c-5 25 13 41 37 41zM303 656c36 0 66 -18 67 -56c0 -41 -44 -51 -66 -19c-13 19 -41 9 -74 9c0 -139 0 -214 5 -283c5 -76 6 -125 6 -232c36 -3 88 -5 124 0c35 2 30 -67 -7 -72c-53 -7 -154 5 -291 0
c-29 -3 -24 72 3 73c30 2 69 0 93 0c2 38 0 143 -5 230c-3 67 -4 140 -8 279c-23 0 -29 -1 -98 -6c-42 0 -23 68 3 70c138 6 62 7 248 7z" />
    <glyph glyph-name="igrave" unicode="&#xec;" horiz-adv-x="416" 
d="M176 817c13 -19 42 -52 55 -71c22 -32 -21 -54 -42 -31c-17 20 -48 49 -65 69c-23 27 29 60 52 33zM303 656c36 0 66 -18 67 -56c0 -41 -44 -51 -66 -19c-13 19 -41 9 -74 9c0 -139 0 -214 5 -283c5 -76 6 -125 6 -232c36 -3 88 -5 124 0c35 2 30 -67 -7 -72
c-53 -7 -154 5 -291 0c-29 -3 -24 72 3 73c30 2 69 0 93 0c2 38 0 143 -5 230c-3 67 -4 140 -8 279c-23 0 -29 -1 -98 -6c-42 0 -23 68 3 70c138 6 62 7 248 7z" />
    <glyph glyph-name="ij" unicode="&#x133;" horiz-adv-x="836" 
d="M303 657c36 0 66 -18 67 -56c0 -41 -44 -51 -66 -19c-13 19 -41 9 -74 9c0 -139 0 -215 5 -284c5 -76 6 -125 6 -232c36 -3 88 -5 124 0c35 2 30 -67 -7 -72c-53 -7 -154 5 -291 0c-29 -3 -24 72 3 73c30 2 69 0 93 0c2 38 0 143 -5 230c-3 67 -4 141 -8 280
c-23 0 -29 -1 -98 -6c-42 0 -23 68 3 70c138 6 62 7 248 7zM752 644c36 -4 43 -35 31 -55c2 -95 8 -214 12 -298c5 -59 -2 -138 -40 -195c-48 -64 -73 -91 -182 -96c-155 21 -171 85 -178 232c-1 25 76 23 77 -2c6 -89 16 -144 104 -154c33 -2 74 6 106 50
c59 76 35 200 35 253c0 19 -3 78 -3 88c-3 45 -4 58 -5 103c-55 6 -114 -13 -215 -3c-40 3 -37 75 2 71c62 -7 241 6 256 6z" />
    <glyph glyph-name="imacron" unicode="&#x12b;" horiz-adv-x="416" 
d="M253 784c40 2 49 -51 6 -53c-38 -2 -109 -3 -147 0c-39 3 -44 55 -1 53c37 -2 105 -2 142 0zM303 656c36 0 66 -18 67 -56c0 -41 -44 -51 -66 -19c-13 19 -41 9 -74 9c0 -139 0 -214 5 -283c5 -76 6 -125 6 -232c36 -3 88 -5 124 0c35 2 30 -67 -7 -72
c-53 -7 -154 5 -291 0c-29 -3 -24 72 3 73c30 2 69 0 93 0c2 38 0 143 -5 230c-3 67 -4 140 -8 279c-23 0 -29 -1 -98 -6c-42 0 -23 68 3 70c138 6 62 7 248 7z" />
    <glyph glyph-name="iogonek" unicode="&#x12f;" horiz-adv-x="437" 
d="M378 -107c23 21 43 -16 24 -39c-24 -30 -82 -32 -109 9c-22 34 -11 97 24 138c-58 -1 -143 6 -250 2c-29 -3 -24 72 3 73c30 2 69 0 93 0c2 38 0 143 -5 230c-3 67 -4 140 -8 279c-23 0 -29 -1 -98 -6c-42 0 -23 68 3 70c138 6 62 7 248 7c36 0 66 -18 67 -56
c0 -41 -44 -51 -66 -19c-13 19 -41 9 -74 9c0 -139 0 -214 5 -283c5 -76 6 -125 6 -232c36 -3 88 -5 124 0c30 2 31 -50 6 -67c-1 -7 -4 -15 -12 -24c-22 -26 -30 -70 -19 -87c10 -16 23 -18 38 -4z" />
    <glyph glyph-name="j" unicode="j" horiz-adv-x="472" 
d="M388 644c36 -4 43 -35 31 -55c2 -95 8 -214 12 -298c5 -59 -2 -138 -40 -195c-48 -64 -73 -91 -182 -96c-155 21 -171 85 -178 232c-1 25 76 23 77 -2c6 -89 16 -144 104 -154c33 -2 74 6 106 50c59 76 35 200 35 253c0 19 -3 78 -3 88c-3 45 -4 58 -5 103
c-55 6 -114 -13 -215 -3c-40 3 -37 75 2 71c62 -7 241 6 256 6z" />
    <glyph glyph-name="k" unicode="k" horiz-adv-x="494" 
d="M106 626c13 -107 21 -234 19 -285c47 7 98 22 141 52c52 36 84 132 102 226c6 32 88 50 79 0c-23 -127 -51 -209 -115 -261c-16 -13 -34 -26 -57 -39c56 -92 135 -150 189 -266c17 -50 -55 -71 -67 -34c-28 86 -152 203 -193 270c-24 -8 -48 -11 -80 -17
c0 -58 -5 -187 -5 -233c0 -34 -76 -62 -76 -7c0 135 19 377 -12 570c2 39 69 74 75 24z" />
    <glyph glyph-name="kcommaaccent" unicode="&#x137;" horiz-adv-x="494" 
d="M106 626c13 -107 21 -234 19 -285c47 7 98 22 141 52c52 36 84 132 102 226c6 32 88 50 79 0c-23 -127 -51 -209 -115 -261c-16 -13 -34 -26 -57 -39c56 -92 135 -150 189 -266c17 -50 -55 -71 -67 -34c-28 86 -152 203 -193 270c-24 -8 -48 -11 -80 -17
c0 -58 -5 -187 -5 -233c0 -34 -76 -62 -76 -7c0 135 19 377 -12 570c2 39 69 74 75 24zM253 -110c-7 -41 -11 -58 -20 -91c-13 -48 -60 -42 -50 18c5 32 9 52 11 74c4 47 67 44 59 -1z" />
    <glyph glyph-name="l" unicode="l" horiz-adv-x="478" 
d="M102 616c-4 -270 35 -347 25 -547c110 12 250 -7 274 -5c0 0 -10 61 -6 83c6 34 72 52 73 2c-2 -21 3 -89 -1 -117c-6 -22 -30 -35 -46 -35c-22 0 -236 12 -332 0c-42 -3 -42 31 -41 50c10 218 -26 298 -22 568c0 53 76 53 76 1z" />
    <glyph glyph-name="lacute" unicode="&#x13a;" horiz-adv-x="481" 
d="M96 819c23 27 74 -6 51 -33c-17 -20 -56 -49 -73 -69c-21 -23 -64 -1 -42 31c13 19 51 52 64 71zM105 616c-4 -270 35 -347 25 -547c110 12 250 -7 274 -5c0 0 -10 61 -6 83c6 34 72 52 73 2c-2 -21 3 -89 -1 -117c-6 -22 -30 -35 -46 -35c-22 0 -236 12 -332 0
c-42 -3 -42 31 -41 50c10 218 -26 298 -22 568c0 53 76 53 76 1z" />
    <glyph glyph-name="lcaron" unicode="&#x13e;" horiz-adv-x="478" 
d="M102 616c-4 -270 35 -347 25 -547c110 12 250 -7 274 -5c0 0 -10 61 -6 83c6 34 72 52 73 2c-2 -21 3 -89 -1 -117c-6 -22 -30 -35 -46 -35c-22 0 -236 12 -332 0c-42 -3 -42 31 -41 50c10 218 -26 298 -22 568c0 53 76 53 76 1zM421 629c-6 -22 -22 -61 -28 -83
c-6 -17 -54 -20 -53 2c2 18 14 80 16 85c9 28 73 28 65 -4z" />
    <glyph glyph-name="lcommaaccent" unicode="&#x13c;" horiz-adv-x="478" 
d="M102 616c-4 -270 35 -347 25 -547c110 12 250 -7 274 -5c0 0 -10 61 -6 83c6 34 72 52 73 2c-2 -21 3 -89 -1 -117c-6 -22 -30 -35 -46 -35c-22 0 -236 12 -332 0c-42 -3 -42 31 -41 50c10 218 -26 298 -22 568c0 53 76 53 76 1zM274 -92c-7 -41 -11 -58 -20 -91
c-13 -48 -60 -42 -50 18c5 32 9 52 11 74c4 47 67 44 59 -1z" />
    <glyph glyph-name="ldot" unicode="&#x140;" horiz-adv-x="478" 
d="M102 616c-4 -270 35 -347 25 -547c110 12 250 -7 274 -5c0 0 -10 61 -6 83c6 34 72 52 73 2c-2 -21 3 -89 -1 -117c-6 -22 -30 -35 -46 -35c-22 0 -236 12 -332 0c-42 -3 -42 31 -41 50c10 218 -26 298 -22 568c0 53 76 53 76 1zM261 397c34 -1 41 -31 40 -55
c0 -25 -26 -38 -45 -38c-50 4 -46 97 5 93z" />
    <glyph glyph-name="lslash" unicode="&#x142;" horiz-adv-x="553" 
d="M131 612c-1 -86 6 -142 13 -231c18 9 51 31 65 38c40 16 52 -45 25 -63c-21 -14 -56 -36 -84 -49c5 -76 10 -197 8 -233c82 3 292 -12 319 -10c0 0 -8 49 -2 94c5 22 71 26 68 2c-3 -31 5 -85 -3 -129c-6 -20 -29 -32 -47 -32c-21 0 -276 13 -375 0c-29 0 -38 32 -38 52
c4 75 0 143 -3 230c-4 -2 -11 -8 -26 -15c-24 -19 -66 29 -36 51c11 7 40 22 56 29c-9 119 -15 164 -15 265c0 55 75 57 75 1z" />
    <glyph glyph-name="m" unicode="m" horiz-adv-x="807" 
d="M261 620c16 -52 68 -192 80 -285c6 -47 34 -119 58 -184c26 63 48 120 65 178c42 147 72 230 102 294c17 32 69 31 74 -5c22 -104 17 -155 53 -306c16 -65 66 -211 93 -261c18 -52 -57 -79 -73 -39c-29 55 -76 216 -93 280c-10 35 -22 121 -32 178
c-45 -136 -59 -194 -68 -223c-30 -83 -60 -155 -92 -213c-32 -53 -54 -20 -73 26c-32 81 -67 171 -85 253c-19 84 -35 140 -46 177c-9 -49 -74 -364 -120 -461c-22 -48 -89 -35 -73 22c79 171 84 391 152 558c15 45 67 55 78 11z" />
    <glyph glyph-name="n" unicode="n" horiz-adv-x="571" 
d="M107 643c57 -69 144 -224 172 -261c45 -78 143 -197 182 -248c-2 41 -11 99 -14 137l-15 345c-4 54 74 43 76 -7c10 -214 13 -308 15 -333c4 -55 2 -187 6 -240c-1 -38 -39 -51 -63 -29c-59 77 -154 197 -232 313c-17 25 -61 104 -120 191c0 -161 19 -308 4 -487
c-17 -49 -79 -20 -76 14c21 244 -11 358 4 587c1 33 38 37 61 18z" />
    <glyph glyph-name="nacute" unicode="&#x144;" horiz-adv-x="571" 
d="M310 777c23 27 74 -6 51 -33c-17 -20 -56 -49 -73 -69c-21 -23 -64 -1 -42 31c13 19 51 52 64 71zM107 643c57 -69 144 -224 172 -261c45 -78 143 -197 182 -248c-2 41 -11 99 -14 137l-15 345c-4 54 74 43 76 -7c10 -214 13 -308 15 -333c4 -55 2 -187 6 -240
c-1 -38 -39 -51 -63 -29c-59 77 -154 197 -232 313c-17 25 -61 104 -120 191c0 -161 19 -308 4 -487c-17 -49 -79 -20 -76 14c21 244 -11 358 4 587c1 33 38 37 61 18z" />
    <glyph glyph-name="ncaron" unicode="&#x148;" horiz-adv-x="571" 
d="M351 783c22 21 58 -18 30 -44c-20 -19 -50 -32 -94 -59c-15 -14 -93 45 -110 65c-15 18 13 57 38 37c21 -16 36 -33 61 -51c18 15 59 37 75 52zM107 643c57 -69 144 -224 172 -261c45 -78 143 -197 182 -248c-2 41 -11 99 -14 137l-15 345c-4 54 74 43 76 -7
c10 -214 13 -308 15 -333c4 -55 2 -187 6 -240c-1 -38 -39 -51 -63 -29c-59 77 -154 197 -232 313c-17 25 -61 104 -120 191c0 -161 19 -308 4 -487c-17 -49 -79 -20 -76 14c21 244 -11 358 4 587c1 33 38 37 61 18z" />
    <glyph glyph-name="ncommaaccent" unicode="&#x146;" horiz-adv-x="571" 
d="M107 643c57 -69 144 -224 172 -261c45 -78 143 -197 182 -248c-2 41 -11 99 -14 137l-15 345c-4 54 74 43 76 -7c10 -214 13 -308 15 -333c4 -55 2 -187 6 -240c-1 -38 -39 -51 -63 -29c-59 77 -154 197 -232 313c-17 25 -61 104 -120 191c0 -161 19 -308 4 -487
c-17 -49 -79 -20 -76 14c21 244 -11 358 4 587c1 33 38 37 61 18zM319 -92c-7 -41 -11 -58 -20 -91c-13 -48 -60 -42 -50 18c5 32 9 52 11 74c4 47 67 44 59 -1z" />
    <glyph glyph-name="eng" unicode="&#x14b;" horiz-adv-x="574" 
d="M107 638c47 -56 119 -190 165 -259c52 -77 135 -190 191 -255c-2 41 -13 127 -16 167c-5 68 -13 273 -15 315c-3 45 75 27 76 -7c10 -152 14 -240 16 -323c2 -65 9 -151 10 -238c0 -178 -31 -357 -211 -357c-130 0 -156 106 -164 231c1 39 78 35 78 -3
c0 -34 -2 -151 90 -152c102 -1 127 99 127 266c-91 108 -178 213 -248 323c-21 33 -38 66 -92 160c0 -133 17 -327 4 -482c-12 -46 -79 -18 -76 14c18 200 -8 409 4 582c1 33 38 37 61 18z" />
    <glyph glyph-name="ntilde" unicode="&#xf1;" horiz-adv-x="571" 
d="M244 754c18 -4 53 -29 68 -33c30 -8 35 11 39 17c9 13 44 5 37 -24c-4 -15 -29 -43 -56 -43c-31 0 -61 20 -78 28c-13 6 -30 7 -37 -8c-10 -21 -52 -11 -45 25c6 31 41 44 72 38zM107 643c57 -69 144 -224 172 -261c45 -78 143 -197 182 -248c-2 41 -11 99 -14 137
l-15 345c-4 54 74 43 76 -7c10 -214 13 -308 15 -333c4 -55 2 -187 6 -240c-1 -38 -39 -51 -63 -29c-59 77 -154 197 -232 313c-17 25 -61 104 -120 191c0 -161 19 -308 4 -487c-17 -49 -79 -20 -76 14c21 244 -11 358 4 587c1 33 38 37 61 18z" />
    <glyph glyph-name="o" unicode="o" horiz-adv-x="562" 
d="M310 652c161 -61 228 -174 228 -365c0 -71 -48 -180 -130 -251c-66 -57 -169 -53 -238 -10c-82 50 -138 143 -144 244c-6 79 -1 170 70 271c41 58 96 79 138 96c9 27 51 23 76 15zM292 583c-43 -8 -97 -38 -132 -78c-46 -58 -59 -132 -59 -212c0 -86 40 -158 90 -199
c48 -41 134 -42 180 3c76 77 101 167 89 241c-15 136 -87 220 -168 245z" />
    <glyph glyph-name="oacute" unicode="&#xf3;" horiz-adv-x="562" 
d="M316 811c23 27 74 -6 51 -33c-17 -20 -56 -49 -73 -69c-21 -23 -64 -1 -42 31c13 19 51 52 64 71zM310 652c161 -61 228 -174 228 -365c0 -71 -48 -180 -130 -251c-66 -57 -169 -53 -238 -10c-82 50 -138 143 -144 244c-6 79 -1 170 70 271c41 58 96 79 138 96
c9 27 51 23 76 15zM292 583c-43 -8 -97 -38 -132 -78c-46 -58 -59 -132 -59 -212c0 -86 40 -158 90 -199c48 -41 134 -42 180 3c76 77 101 167 89 241c-15 136 -87 220 -168 245z" />
    <glyph glyph-name="ocircumflex" unicode="&#xf4;" horiz-adv-x="562" 
d="M298 816c39 -23 72 -47 94 -63c28 -21 -3 -69 -27 -49c-35 29 -60 46 -78 61c-25 -18 -66 -37 -87 -53c-25 -20 -60 6 -35 34c17 19 118 84 133 70zM310 652c161 -61 228 -174 228 -365c0 -71 -48 -180 -130 -251c-66 -57 -169 -53 -238 -10c-82 50 -138 143 -144 244
c-6 79 -1 170 70 271c41 58 96 79 138 96c9 27 51 23 76 15zM292 583c-43 -8 -97 -38 -132 -78c-46 -58 -59 -132 -59 -212c0 -86 40 -158 90 -199c48 -41 134 -42 180 3c76 77 101 167 89 241c-15 136 -87 220 -168 245z" />
    <glyph glyph-name="odieresis" unicode="&#xf6;" horiz-adv-x="562" 
d="M339 770c30 3 47 -6 53 -19c9 -18 -9 -45 -52 -45c-37 0 -36 60 -1 64zM238 771c41 0 42 -67 1 -67c-19 0 -50 7 -50 34c-1 23 13 33 49 33zM310 652c161 -61 228 -174 228 -365c0 -71 -48 -180 -130 -251c-66 -57 -169 -53 -238 -10c-82 50 -138 143 -144 244
c-6 79 -1 170 70 271c41 58 96 79 138 96c9 27 51 23 76 15zM292 583c-43 -8 -97 -38 -132 -78c-46 -58 -59 -132 -59 -212c0 -86 40 -158 90 -199c48 -41 134 -42 180 3c76 77 101 167 89 241c-15 136 -87 220 -168 245z" />
    <glyph glyph-name="ograve" unicode="&#xf2;" horiz-adv-x="562" 
d="M278 811c13 -19 42 -52 55 -71c22 -32 -21 -54 -42 -31c-17 20 -48 49 -65 69c-23 27 29 60 52 33zM310 652c161 -61 228 -174 228 -365c0 -71 -48 -180 -130 -251c-66 -57 -169 -53 -238 -10c-82 50 -138 143 -144 244c-6 79 -1 170 70 271c41 58 96 79 138 96
c9 27 51 23 76 15zM292 583c-43 -8 -97 -38 -132 -78c-46 -58 -59 -132 -59 -212c0 -86 40 -158 90 -199c48 -41 134 -42 180 3c76 77 101 167 89 241c-15 136 -87 220 -168 245z" />
    <glyph glyph-name="ohungarumlaut" unicode="&#x151;" horiz-adv-x="562" 
d="M238 806c16 31 74 12 57 -19l-36 -71c-14 -27 -62 -16 -48 20c8 22 19 48 27 70zM333 804c16 32 74 13 58 -19l-37 -70c-14 -28 -61 -17 -48 19c8 23 19 49 27 70zM310 652c161 -61 228 -174 228 -365c0 -71 -48 -180 -130 -251c-66 -57 -169 -53 -238 -10
c-82 50 -138 143 -144 244c-6 79 -1 170 70 271c41 58 96 79 138 96c9 27 51 23 76 15zM292 583c-43 -8 -97 -38 -132 -78c-46 -58 -59 -132 -59 -212c0 -86 40 -158 90 -199c48 -41 134 -42 180 3c76 77 101 167 89 241c-15 136 -87 220 -168 245z" />
    <glyph glyph-name="omacron" unicode="&#x14d;" horiz-adv-x="562" 
d="M355 778c40 2 49 -51 6 -53c-38 -2 -109 -3 -147 0c-39 3 -44 55 -1 53c37 -2 105 -2 142 0zM310 652c161 -61 228 -174 228 -365c0 -71 -48 -180 -130 -251c-66 -57 -169 -53 -238 -10c-82 50 -138 143 -144 244c-6 79 -1 170 70 271c41 58 96 79 138 96
c9 27 51 23 76 15zM292 583c-43 -8 -97 -38 -132 -78c-46 -58 -59 -132 -59 -212c0 -86 40 -158 90 -199c48 -41 134 -42 180 3c76 77 101 167 89 241c-15 136 -87 220 -168 245z" />
    <glyph glyph-name="oslash" unicode="&#xf8;" horiz-adv-x="571" 
d="M498 626l-40 -61c62 -65 89 -156 89 -278c0 -81 -48 -190 -130 -261c-66 -57 -169 -53 -238 -10c-15 9 -29 20 -43 32c-18 -26 -35 -50 -51 -70c-20 -23 -77 24 -57 47c18 23 38 50 59 81c-30 46 -48 102 -52 164c-6 79 -1 170 70 271c41 58 96 79 138 96
c9 27 51 23 76 15c31 -12 58 -25 82 -40c13 21 26 41 38 58c18 25 76 -19 59 -44zM110 293c0 -45 9 -84 23 -117c76 118 160 262 230 375c-20 15 -40 25 -62 32c-43 -8 -97 -38 -132 -78c-46 -58 -59 -132 -59 -212zM380 87c76 77 101 177 89 251c-7 64 -27 117 -54 158
c-73 -119 -162 -270 -239 -388c8 -9 16 -17 24 -24c48 -41 134 -42 180 3z" />
    <glyph glyph-name="otilde" unicode="&#xf5;" horiz-adv-x="562" 
d="M250 788c18 -4 53 -29 68 -33c30 -8 35 11 39 17c9 13 44 5 37 -24c-4 -15 -29 -43 -56 -43c-31 0 -61 20 -78 28c-13 6 -30 7 -37 -8c-10 -21 -52 -11 -45 25c6 31 41 44 72 38zM310 652c161 -61 228 -174 228 -365c0 -71 -48 -180 -130 -251c-66 -57 -169 -53 -238 -10
c-82 50 -138 143 -144 244c-6 79 -1 170 70 271c41 58 96 79 138 96c9 27 51 23 76 15zM292 583c-43 -8 -97 -38 -132 -78c-46 -58 -59 -132 -59 -212c0 -86 40 -158 90 -199c48 -41 134 -42 180 3c76 77 101 167 89 241c-15 136 -87 220 -168 245z" />
    <glyph glyph-name="oe" unicode="&#x153;" horiz-adv-x="996" 
d="M340 658c72 -23 132 -73 144 -100c-2 13 -2 38 -2 49c1 24 11 40 49 42c68 5 270 2 373 -1c55 2 53 -72 -1 -74c-14 0 -289 6 -338 3c0 -85 5 -136 7 -212c83 -4 243 -6 322 8c57 3 85 -39 26 -69c-134 -25 -270 -12 -345 -12c0 -114 1 -173 6 -219c110 -6 329 14 354 15
c70 4 55 -73 -14 -73c-12 0 -191 -15 -367 -15c-17 0 -43 16 -45 37c-2 10 -3 28 -3 38c-48 -42 -121 -75 -200 -79c-97 -3 -162 56 -206 111c-41 54 -66 58 -73 192c-7 80 -9 135 54 225c44 59 122 94 178 113c13 32 50 31 81 21zM327 585c-48 -9 -142 -54 -181 -98
c-40 -49 -41 -91 -40 -151c0 -93 3 -114 60 -188c35 -43 81 -79 138 -79c77 0 174 55 195 118c0 24 -1 18 -6 223c-21 77 -91 155 -166 175z" />
    <glyph glyph-name="p" unicode="p" horiz-adv-x="582" 
d="M351 650c117 -6 204 -69 201 -205c-9 -114 -66 -189 -158 -221c-73 -25 -183 -21 -222 -19c2 -59 6 -116 14 -159c8 -57 -60 -59 -70 -13c-9 46 -15 103 -17 170c-17 1 -34 3 -43 6c-42 9 -48 51 2 70c10 2 28 1 40 0c0 21 -5 221 -5 247c-9 -5 -23 -9 -33 -13
c-44 -13 -67 42 -31 60c104 48 225 81 322 77zM362 576c-54 8 -123 -2 -199 -26c1 -24 7 -252 6 -279c46 -3 137 -3 198 18c61 25 102 84 103 169c1 81 -46 109 -108 118z" />
    <glyph glyph-name="thorn" unicode="&#xfe;" horiz-adv-x="584" 
d="M150 600c-7 42 -78 28 -72 -16c6 -24 8 -51 9 -72c-21 -8 -44 -19 -66 -31c-29 -17 9 -82 37 -69l27 14c0 -27 4 -164 4 -220c-17 0 -22 5 -39 3c-50 -6 -42 -55 -2 -74c9 -4 25 -6 42 -7c1 -27 1 -55 8 -94c11 -59 78 -31 72 11c-5 33 -4 52 -4 80c72 -3 145 -7 230 22
c89 33 154 105 158 197c7 144 -103 204 -230 211c-37 4 -105 -1 -165 -18c-1 24 -3 39 -9 63zM158 457c67 21 126 23 177 17c75 -10 134 -46 134 -118c0 -57 -47 -112 -105 -137c-107 -32 -159 -18 -200 -18c0 53 1 183 -6 256z" />
    <glyph glyph-name="q" unicode="q" horiz-adv-x="560" 
d="M311 639c179 -60 225 -187 225 -352c0 -98 -28 -168 -85 -219l15 -24c26 -41 -26 -79 -52 -43c-6 11 -13 23 -20 32c-32 -12 -76 -26 -116 -26c-185 0 -263 204 -253 319c14 159 50 242 207 293c-1 31 50 37 79 20zM298 570c-164 -48 -196 -107 -196 -259
c0 -130 85 -225 175 -230c19 -1 50 0 70 12c-12 15 -23 32 -30 44c-17 43 30 67 56 32c7 -11 19 -29 31 -44c24 22 45 53 51 81c23 108 9 323 -157 364z" />
    <glyph glyph-name="r" unicode="r" horiz-adv-x="630" 
d="M145 652c80 5 164 3 259 -40c68 -28 134 -97 127 -192c-14 -103 -124 -142 -219 -133c51 -47 166 -213 257 -214c46 0 30 -70 -12 -70c-144 -5 -255 209 -352 275c-14 6 -28 11 -46 14c2 -82 7 -180 9 -261c-3 -43 -74 -39 -74 6c-10 237 -15 407 -12 535
c-12 -3 -23 -6 -30 -7c-41 -8 -49 52 -17 65c25 10 55 20 110 22zM164 580c-4 -57 -4 -122 -1 -214c109 -34 270 -35 286 53c8 45 -18 97 -71 121c-71 31 -161 45 -214 40z" />
    <glyph glyph-name="racute" unicode="&#x155;" horiz-adv-x="630" 
d="M273 779c23 27 74 -6 51 -33c-17 -20 -56 -49 -73 -69c-21 -23 -64 -1 -42 31c13 19 51 52 64 71zM145 652c80 5 164 3 259 -40c68 -28 134 -97 127 -192c-14 -103 -124 -142 -219 -133c51 -47 166 -213 257 -214c46 0 30 -70 -12 -70c-144 -5 -255 209 -352 275
c-14 6 -28 11 -46 14c2 -82 7 -180 9 -261c-3 -43 -74 -39 -74 6c-10 237 -15 407 -12 535c-12 -3 -23 -6 -30 -7c-41 -8 -49 52 -17 65c25 10 55 20 110 22zM164 580c-4 -57 -4 -122 -1 -214c109 -34 270 -35 286 53c8 45 -18 97 -71 121c-71 31 -161 45 -214 40z" />
    <glyph glyph-name="rcaron" unicode="&#x159;" horiz-adv-x="630" 
d="M314 785c22 21 58 -18 30 -44c-20 -19 -50 -32 -94 -59c-15 -14 -93 45 -110 65c-15 18 13 57 38 37c21 -16 36 -33 61 -51c18 15 59 37 75 52zM145 652c80 5 164 3 259 -40c68 -28 134 -97 127 -192c-14 -103 -124 -142 -219 -133c51 -47 166 -213 257 -214
c46 0 30 -70 -12 -70c-144 -5 -255 209 -352 275c-14 6 -28 11 -46 14c2 -82 7 -180 9 -261c-3 -43 -74 -39 -74 6c-10 237 -15 407 -12 535c-12 -3 -23 -6 -30 -7c-41 -8 -49 52 -17 65c25 10 55 20 110 22zM164 580c-4 -57 -4 -122 -1 -214c109 -34 270 -35 286 53
c8 45 -18 97 -71 121c-71 31 -161 45 -214 40z" />
    <glyph glyph-name="rcommaaccent" unicode="&#x157;" horiz-adv-x="630" 
d="M145 652c80 5 164 3 259 -40c68 -28 134 -97 127 -192c-14 -103 -124 -142 -219 -133c51 -47 166 -213 257 -214c46 0 30 -70 -12 -70c-144 -5 -255 209 -352 275c-14 6 -28 11 -46 14c2 -82 7 -180 9 -261c-3 -43 -74 -39 -74 6c-10 237 -15 407 -12 535
c-12 -3 -23 -6 -30 -7c-41 -8 -49 52 -17 65c25 10 55 20 110 22zM164 580c-4 -57 -4 -122 -1 -214c109 -34 270 -35 286 53c8 45 -18 97 -71 121c-71 31 -161 45 -214 40zM330 -92c-7 -41 -11 -58 -20 -91c-13 -48 -60 -42 -50 18c5 32 9 52 11 74c4 47 67 44 59 -1z" />
    <glyph glyph-name="s" unicode="s" horiz-adv-x="525" 
d="M442 639c7 -60 -2 -127 10 -196c9 -32 -65 -33 -63 6c-6 52 -50 100 -88 118c-38 19 -87 29 -115 4c-26 -29 -30 -94 22 -137c39 -33 84 -57 122 -78c65 -37 127 -84 148 -163c26 -103 -40 -190 -171 -193c-79 -2 -170 20 -232 106c-22 33 -41 88 -43 127
c-2 42 72 52 74 11c2 -36 13 -69 39 -106c30 -39 94 -69 145 -69c65 0 124 31 115 101c-24 101 -182 150 -255 218c-87 80 -69 182 -22 229c65 63 202 25 252 -40c3 17 -5 39 -9 52c-8 25 60 37 71 10z" />
    <glyph glyph-name="sacute" unicode="&#x15b;" horiz-adv-x="525" 
d="M289 784c23 27 74 -6 51 -33c-17 -20 -56 -49 -73 -69c-21 -23 -64 -1 -42 31c13 19 51 52 64 71zM442 639c7 -60 -2 -127 10 -196c9 -32 -65 -33 -63 6c-6 52 -50 100 -88 118c-38 19 -87 29 -115 4c-26 -29 -30 -94 22 -137c39 -33 84 -57 122 -78
c65 -37 127 -84 148 -163c26 -103 -40 -190 -171 -193c-79 -2 -170 20 -232 106c-22 33 -41 88 -43 127c-2 42 72 52 74 11c2 -36 13 -69 39 -106c30 -39 94 -69 145 -69c65 0 124 31 115 101c-24 101 -182 150 -255 218c-87 80 -69 182 -22 229c65 63 202 25 252 -40
c3 17 -5 39 -9 52c-8 25 60 37 71 10z" />
    <glyph glyph-name="scaron" unicode="&#x161;" horiz-adv-x="525" 
d="M330 790c22 21 58 -18 30 -44c-20 -19 -50 -32 -94 -59c-15 -14 -93 45 -110 65c-15 18 13 57 38 37c21 -16 36 -33 61 -51c18 15 59 37 75 52zM442 639c7 -60 -2 -127 10 -196c9 -32 -65 -33 -63 6c-6 52 -50 100 -88 118c-38 19 -87 29 -115 4c-26 -29 -30 -94 22 -137
c39 -33 84 -57 122 -78c65 -37 127 -84 148 -163c26 -103 -40 -190 -171 -193c-79 -2 -170 20 -232 106c-22 33 -41 88 -43 127c-2 42 72 52 74 11c2 -36 13 -69 39 -106c30 -39 94 -69 145 -69c65 0 124 31 115 101c-24 101 -182 150 -255 218c-87 80 -69 182 -22 229
c65 63 202 25 252 -40c3 17 -5 39 -9 52c-8 25 60 37 71 10z" />
    <glyph glyph-name="scedilla" unicode="&#x15f;" horiz-adv-x="525" 
d="M307 0h-13c-3 -11 -7 -34 -12 -47c38 2 55 -25 58 -51c3 -22 -8 -49 -27 -63c-32 -24 -94 -12 -105 21c-7 22 19 40 34 20c11 -14 26 -17 39 -7c18 14 16 46 -22 44c-22 -5 -28 0 -23 23l15 63c-63 9 -128 37 -176 103c-22 33 -41 88 -43 127c-2 42 72 52 74 11
c2 -36 13 -69 39 -106c30 -39 94 -69 145 -69c65 0 124 31 115 101c-24 101 -182 150 -255 218c-87 80 -69 182 -22 229c65 63 202 25 252 -40c3 17 -5 39 -9 52c-8 25 60 37 71 10c7 -60 -2 -127 10 -196c9 -32 -65 -33 -63 6c-6 52 -50 100 -88 118c-38 19 -87 29 -115 4
c-26 -29 -30 -94 22 -137c39 -33 84 -57 122 -78c65 -37 127 -84 148 -163c26 -103 -40 -190 -171 -193z" />
    <glyph glyph-name="scommaaccent" unicode="&#x219;" horiz-adv-x="525" 
d="M442 639c7 -60 -2 -127 10 -196c9 -32 -65 -33 -63 6c-6 52 -50 100 -88 118c-38 19 -87 29 -115 4c-26 -29 -30 -94 22 -137c39 -33 84 -57 122 -78c65 -37 127 -84 148 -163c26 -103 -40 -190 -171 -193c-79 -2 -170 20 -232 106c-22 33 -41 88 -43 127
c-2 42 72 52 74 11c2 -36 13 -69 39 -106c30 -39 94 -69 145 -69c65 0 124 31 115 101c-24 101 -182 150 -255 218c-87 80 -69 182 -22 229c65 63 202 25 252 -40c3 17 -5 39 -9 52c-8 25 60 37 71 10zM291 -119c-7 -41 -11 -58 -20 -91c-13 -48 -60 -42 -50 18
c5 32 9 52 11 74c4 47 67 44 59 -1z" />
    <glyph glyph-name="germandbls" unicode="&#xdf;" horiz-adv-x="527" 
d="M285 628c76 -1 143 -38 149 -110c4 -51 -21 -108 -64 -155c124 -81 157 -175 125 -264c-36 -109 -144 -123 -228 -101c-49 15 -91 68 -98 105c-6 39 64 43 68 25c4 -23 22 -52 53 -61c51 -16 120 -4 133 60c17 68 -23 142 -110 190c-34 18 -31 49 -3 80
c30 34 53 74 49 107c-5 34 -39 50 -78 49c-41 0 -88 -17 -116 -46c-43 -48 -40 -145 -35 -190c4 -82 6 -195 -2 -290c-7 -39 -76 -34 -76 -1c7 152 12 190 3 318c-6 75 -1 157 60 218c45 44 112 67 170 66z" />
    <glyph glyph-name="t" unicode="t" horiz-adv-x="555" 
d="M36 655c62 -3 403 -2 462 -3c45 0 23 -72 -11 -74c-51 2 -173 2 -190 1c14 -125 6 -445 -2 -545c-4 -51 -77 -43 -77 -6c0 84 33 428 3 552c-38 -1 -158 -1 -198 1c-37 3 -19 71 13 74z" />
    <glyph glyph-name="tbar" unicode="&#x167;" horiz-adv-x="553" 
d="M37 646c65 -3 403 -2 462 -3c38 -3 23 -74 -11 -74c-51 2 -173 2 -190 1c5 -50 7 -180 6 -208c21 0 54 1 65 2c33 4 34 -64 5 -66c-12 -1 -46 -2 -71 -2c-4 -142 -7 -217 -7 -267c1 -41 -77 -37 -77 -6c0 49 2 104 6 276c-19 1 -45 0 -55 -1c-30 -2 -37 64 -7 66
c11 2 42 2 64 1c0 60 3 135 -5 206c-42 -1 -160 -1 -198 1c-36 2 -22 74 13 74z" />
    <glyph glyph-name="tcaron" unicode="&#x165;" horiz-adv-x="586" 
d="M36 655c62 -3 403 -2 462 -3c45 0 23 -72 -11 -74c-51 2 -173 2 -190 1c14 -125 6 -445 -2 -545c-4 -51 -77 -43 -77 -6c0 84 33 428 3 552c-38 -1 -158 -1 -198 1c-37 3 -19 71 13 74zM612 626l-18 -73c-5 -29 -64 -39 -56 6c4 24 8 54 10 72c6 32 68 24 64 -5z" />
    <glyph glyph-name="tcedilla" unicode="&#x163;" horiz-adv-x="555" 
d="M498 652c45 0 23 -72 -11 -74c-51 2 -173 2 -190 1c14 -125 6 -445 -2 -545c-1 -8 -3 -15 -6 -20c0 -2 -1 -4 -1 -6c-3 -11 -7 -34 -12 -47c38 2 55 -25 58 -51c3 -22 -8 -49 -27 -63c-32 -24 -94 -12 -105 21c-7 22 19 40 34 20c11 -14 26 -17 39 -7c18 14 16 46 -22 44
c-22 -5 -28 0 -23 23l12 52c-13 4 -24 14 -24 28c0 84 33 428 3 552c-38 -1 -158 -1 -198 1c-37 3 -19 71 13 74c62 -3 403 -2 462 -3z" />
    <glyph glyph-name="tcommaaccent" unicode="&#x21b;" horiz-adv-x="555" 
d="M36 655c62 -3 403 -2 462 -3c45 0 23 -72 -11 -74c-51 2 -173 2 -190 1c14 -125 6 -445 -2 -545c-4 -51 -77 -43 -77 -6c0 84 33 428 3 552c-38 -1 -158 -1 -198 1c-37 3 -19 71 13 74zM285 -111c-7 -41 -11 -58 -20 -91c-13 -48 -60 -42 -50 18c5 32 9 52 11 74
c4 47 67 44 59 -1z" />
    <glyph glyph-name="u" unicode="u" horiz-adv-x="554" 
d="M430 636c1 32 84 19 82 -7c-3 -124 24 -355 -18 -466c-35 -82 -107 -167 -205 -166c-55 1 -117 24 -155 59c-59 54 -91 108 -92 231c0 115 -1 222 -1 337c5 34 80 40 78 4v-322c1 -73 6 -134 49 -175c41 -40 85 -55 122 -55c63 0 113 60 133 129c13 47 16 110 16 185
c0 127 -7 223 -9 246z" />
    <glyph glyph-name="uacute" unicode="&#xfa;" horiz-adv-x="554" 
d="M300 777c23 27 74 -6 51 -33c-17 -20 -56 -49 -73 -69c-21 -23 -64 -1 -42 31c13 19 51 52 64 71zM430 636c1 32 84 19 82 -7c-3 -124 24 -355 -18 -466c-35 -82 -107 -167 -205 -166c-55 1 -117 24 -155 59c-59 54 -91 108 -92 231c0 115 -1 222 -1 337c5 34 80 40 78 4
v-322c1 -73 6 -134 49 -175c41 -40 85 -55 122 -55c63 0 113 60 133 129c13 47 16 110 16 185c0 127 -7 223 -9 246z" />
    <glyph glyph-name="ucircumflex" unicode="&#xfb;" horiz-adv-x="554" 
d="M282 782c39 -23 72 -47 94 -63c28 -21 -3 -69 -27 -49c-35 29 -60 46 -78 61c-25 -18 -66 -37 -87 -53c-25 -20 -60 6 -35 34c17 19 118 84 133 70zM430 636c1 32 84 19 82 -7c-3 -124 24 -355 -18 -466c-35 -82 -107 -167 -205 -166c-55 1 -117 24 -155 59
c-59 54 -91 108 -92 231c0 115 -1 222 -1 337c5 34 80 40 78 4v-322c1 -73 6 -134 49 -175c41 -40 85 -55 122 -55c63 0 113 60 133 129c13 47 16 110 16 185c0 127 -7 223 -9 246z" />
    <glyph glyph-name="udieresis" unicode="&#xfc;" horiz-adv-x="554" 
d="M323 736c30 3 47 -6 53 -19c9 -18 -9 -45 -52 -45c-37 0 -36 60 -1 64zM222 737c41 0 42 -67 1 -67c-19 0 -50 7 -50 34c-1 23 13 33 49 33zM430 636c1 32 84 19 82 -7c-3 -124 24 -355 -18 -466c-35 -82 -107 -167 -205 -166c-55 1 -117 24 -155 59
c-59 54 -91 108 -92 231c0 115 -1 222 -1 337c5 34 80 40 78 4v-322c1 -73 6 -134 49 -175c41 -40 85 -55 122 -55c63 0 113 60 133 129c13 47 16 110 16 185c0 127 -7 223 -9 246z" />
    <glyph glyph-name="ugrave" unicode="&#xf9;" horiz-adv-x="554" 
d="M262 777c13 -19 42 -52 55 -71c22 -32 -21 -54 -42 -31c-17 20 -48 49 -65 69c-23 27 29 60 52 33zM430 636c1 32 84 19 82 -7c-3 -124 24 -355 -18 -466c-35 -82 -107 -167 -205 -166c-55 1 -117 24 -155 59c-59 54 -91 108 -92 231c0 115 -1 222 -1 337
c5 34 80 40 78 4v-322c1 -73 6 -134 49 -175c41 -40 85 -55 122 -55c63 0 113 60 133 129c13 47 16 110 16 185c0 127 -7 223 -9 246z" />
    <glyph glyph-name="uhungarumlaut" unicode="&#x171;" horiz-adv-x="554" 
d="M222 772c16 31 74 12 57 -19l-36 -71c-14 -27 -62 -16 -48 20c8 22 19 48 27 70zM317 770c16 32 74 13 58 -19l-37 -70c-14 -28 -61 -17 -48 19c8 23 19 49 27 70zM430 636c1 32 84 19 82 -7c-3 -124 24 -355 -18 -466c-35 -82 -107 -167 -205 -166
c-55 1 -117 24 -155 59c-59 54 -91 108 -92 231c0 115 -1 222 -1 337c5 34 80 40 78 4v-322c1 -73 6 -134 49 -175c41 -40 85 -55 122 -55c63 0 113 60 133 129c13 47 16 110 16 185c0 127 -7 223 -9 246z" />
    <glyph glyph-name="umacron" unicode="&#x16b;" horiz-adv-x="554" 
d="M339 744c40 2 49 -51 6 -53c-38 -2 -109 -3 -147 0c-39 3 -44 55 -1 53c37 -2 105 -2 142 0zM430 636c1 32 84 19 82 -7c-3 -124 24 -355 -18 -466c-35 -82 -107 -167 -205 -166c-55 1 -117 24 -155 59c-59 54 -91 108 -92 231c0 115 -1 222 -1 337c5 34 80 40 78 4v-322
c1 -73 6 -134 49 -175c41 -40 85 -55 122 -55c63 0 113 60 133 129c13 47 16 110 16 185c0 127 -7 223 -9 246z" />
    <glyph glyph-name="uogonek" unicode="&#x173;" horiz-adv-x="554" 
d="M496 163c-17 -47 -40 -84 -61 -118c-33 -54 -56 -123 -38 -146c12 -15 23 -18 38 -4c23 21 43 -16 24 -39c-24 -30 -82 -32 -109 9c-20 31 -7 120 34 172c-35 -34 -83 -40 -103 -40c-55 0 -109 24 -147 59c-59 54 -91 108 -92 231c0 115 -1 222 -1 337c5 34 80 40 78 4
v-322c1 -73 6 -134 49 -175c41 -40 85 -55 122 -55c63 0 113 60 133 129c13 47 16 110 16 185c0 127 -7 223 -9 246c1 32 84 19 82 -7c-3 -124 24 -354 -16 -466z" />
    <glyph glyph-name="uring" unicode="&#x16f;" horiz-adv-x="554" 
d="M287 799c8 4 20 5 28 -2c62 -39 13 -146 -64 -125c-37 10 -56 48 -41 80c14 32 47 47 77 47zM289 759c-3 2 -8 0 -11 -2c-11 0 -25 -7 -30 -18c-6 -11 2 -24 16 -26c30 -9 46 31 25 46zM430 636c1 32 84 19 82 -7c-3 -124 24 -355 -18 -466c-35 -82 -107 -167 -205 -166
c-55 1 -117 24 -155 59c-59 54 -91 108 -92 231c0 115 -1 222 -1 337c5 34 80 40 78 4v-322c1 -73 6 -134 49 -175c41 -40 85 -55 122 -55c63 0 113 60 133 129c13 47 16 110 16 185c0 127 -7 223 -9 246z" />
    <glyph glyph-name="v" unicode="v" horiz-adv-x="515" 
d="M503 607c-20 -86 -71 -184 -114 -269c-42 -84 -85 -173 -113 -283c-12 -78 -59 -66 -84 4c-80 220 -145 396 -184 551c-6 36 64 56 75 19c32 -126 94 -318 151 -488c25 94 66 203 96 256c37 66 89 178 98 230c7 41 84 29 75 -20z" />
    <glyph glyph-name="w" unicode="w" horiz-adv-x="840" 
d="M90 633c95 -194 101 -343 149 -491c32 106 127 348 146 446c11 56 65 43 77 -4c44 -116 122 -337 143 -437c50 181 102 374 141 475c20 48 97 35 76 -18c-62 -175 -136 -401 -189 -577c-14 -45 -61 -39 -72 13c-30 153 -96 321 -133 440c-47 -162 -111 -299 -158 -460
c-14 -35 -60 -30 -72 6c-41 128 -108 439 -175 570c-21 42 47 78 67 37z" />
    <glyph glyph-name="wacute" unicode="&#x1e83;" horiz-adv-x="840" 
d="M450 817c23 27 74 -6 51 -33c-17 -20 -56 -49 -73 -69c-21 -23 -64 -1 -42 31c13 19 51 52 64 71zM90 633c95 -194 101 -343 149 -491c32 106 127 348 146 446c11 56 65 43 77 -4c44 -116 122 -337 143 -437c50 181 102 374 141 475c20 48 97 35 76 -18
c-62 -175 -136 -401 -189 -577c-14 -45 -61 -39 -72 13c-30 153 -96 321 -133 440c-47 -162 -111 -299 -158 -460c-14 -35 -60 -30 -72 6c-41 128 -108 439 -175 570c-21 42 47 78 67 37z" />
    <glyph glyph-name="wcircumflex" unicode="&#x175;" horiz-adv-x="840" 
d="M432 822c39 -23 72 -47 94 -63c28 -21 -3 -69 -27 -49c-35 29 -60 46 -78 61c-25 -18 -66 -37 -87 -53c-25 -20 -60 6 -35 34c17 19 118 84 133 70zM90 633c95 -194 101 -343 149 -491c32 106 127 348 146 446c11 56 65 43 77 -4c44 -116 122 -337 143 -437
c50 181 102 374 141 475c20 48 97 35 76 -18c-62 -175 -136 -401 -189 -577c-14 -45 -61 -39 -72 13c-30 153 -96 321 -133 440c-47 -162 -111 -299 -158 -460c-14 -35 -60 -30 -72 6c-41 128 -108 439 -175 570c-21 42 47 78 67 37z" />
    <glyph glyph-name="wdieresis" unicode="&#x1e85;" horiz-adv-x="840" 
d="M473 776c30 3 47 -6 53 -19c9 -18 -9 -45 -52 -45c-37 0 -36 60 -1 64zM372 777c41 0 42 -67 1 -67c-19 0 -50 7 -50 34c-1 23 13 33 49 33zM90 633c95 -194 101 -343 149 -491c32 106 127 348 146 446c11 56 65 43 77 -4c44 -116 122 -337 143 -437
c50 181 102 374 141 475c20 48 97 35 76 -18c-62 -175 -136 -401 -189 -577c-14 -45 -61 -39 -72 13c-30 153 -96 321 -133 440c-47 -162 -111 -299 -158 -460c-14 -35 -60 -30 -72 6c-41 128 -108 439 -175 570c-21 42 47 78 67 37z" />
    <glyph glyph-name="wgrave" unicode="&#x1e81;" horiz-adv-x="840" 
d="M412 817c13 -19 42 -52 55 -71c22 -32 -21 -54 -42 -31c-17 20 -48 49 -65 69c-23 27 29 60 52 33zM90 633c95 -194 101 -343 149 -491c32 106 127 348 146 446c11 56 65 43 77 -4c44 -116 122 -337 143 -437c50 181 102 374 141 475c20 48 97 35 76 -18
c-62 -175 -136 -401 -189 -577c-14 -45 -61 -39 -72 13c-30 153 -96 321 -133 440c-47 -162 -111 -299 -158 -460c-14 -35 -60 -30 -72 6c-41 128 -108 439 -175 570c-21 42 47 78 67 37z" />
    <glyph glyph-name="x" unicode="x" horiz-adv-x="549" 
d="M83 646c42 -42 146 -190 206 -272c41 58 110 203 127 247c33 56 109 26 81 -22c-82 -163 -129 -235 -166 -285c70 -110 141 -197 186 -256c22 -31 -37 -77 -63 -52c-66 86 -116 156 -169 244c-59 -78 -121 -156 -194 -238c-42 -47 -114 -6 -66 43c38 38 162 170 220 258
c-29 42 -158 217 -221 278c-18 32 34 82 59 55z" />
    <glyph glyph-name="y" unicode="y" horiz-adv-x="472" 
d="M377 633c8 38 80 12 75 -22c-47 -143 -58 -297 -87 -367c49 -20 32 -71 -28 -73c-33 -82 -87 -181 -189 -173c-83 6 -101 53 -107 168c-1 23 77 27 77 -6c0 -77 18 -92 52 -92c37 0 75 63 98 130c-52 26 -110 69 -150 140c-33 64 -81 193 -105 266c-6 50 58 68 73 29
c26 -80 63 -176 86 -227c34 -77 80 -112 124 -135c41 112 45 249 81 362z" />
    <glyph glyph-name="yacute" unicode="&#xfd;" horiz-adv-x="472" 
d="M267 818c23 27 74 -6 51 -33c-17 -20 -56 -49 -73 -69c-21 -23 -64 -1 -42 31c13 19 51 52 64 71zM380 633c8 38 77 12 72 -22c-47 -143 -58 -297 -87 -367c49 -20 32 -71 -28 -73c-33 -82 -87 -181 -189 -173c-83 6 -101 53 -107 168c-1 23 77 27 77 -6
c0 -77 20 -95 54 -95c37 0 79 66 102 133c-52 26 -116 69 -156 140c-33 64 -81 193 -105 266c-6 50 56 68 71 29c26 -80 62 -176 85 -227c34 -77 85 -117 129 -140c41 112 46 254 82 367z" />
    <glyph glyph-name="ycircumflex" unicode="&#x177;" horiz-adv-x="472" 
d="M249 823c39 -23 72 -47 94 -63c28 -21 -3 -69 -27 -49c-35 29 -60 46 -78 61c-25 -18 -66 -37 -87 -53c-25 -20 -60 6 -35 34c17 19 118 84 133 70zM380 633c8 38 77 12 72 -22c-47 -143 -58 -297 -87 -367c49 -20 32 -71 -28 -73c-33 -82 -87 -181 -189 -173
c-83 6 -101 53 -107 168c-1 23 77 27 77 -6c0 -77 20 -95 54 -95c37 0 79 66 102 133c-52 26 -116 69 -156 140c-33 64 -81 193 -105 266c-6 50 56 68 71 29c26 -80 62 -176 85 -227c34 -77 85 -117 129 -140c41 112 46 254 82 367z" />
    <glyph glyph-name="ydieresis" unicode="&#xff;" horiz-adv-x="472" 
d="M290 777c30 3 47 -6 53 -19c9 -18 -9 -45 -52 -45c-37 0 -36 60 -1 64zM189 778c41 0 42 -67 1 -67c-19 0 -50 7 -50 34c-1 23 13 33 49 33zM380 633c8 38 77 12 72 -22c-47 -143 -58 -297 -87 -367c49 -20 32 -71 -28 -73c-33 -82 -87 -181 -189 -173
c-83 6 -101 53 -107 168c-1 23 77 27 77 -6c0 -77 20 -95 54 -95c37 0 79 66 102 133c-52 26 -116 69 -156 140c-33 64 -81 193 -105 266c-6 50 56 68 71 29c26 -80 62 -176 85 -227c34 -77 85 -117 129 -140c41 112 46 254 82 367z" />
    <glyph glyph-name="ygrave" unicode="&#x1ef3;" horiz-adv-x="472" 
d="M229 818c13 -19 42 -52 55 -71c22 -32 -21 -54 -42 -31c-17 20 -48 49 -65 69c-23 27 29 60 52 33zM380 633c8 38 77 12 72 -22c-47 -143 -58 -297 -87 -367c49 -20 32 -71 -28 -73c-33 -82 -87 -181 -189 -173c-83 6 -101 53 -107 168c-1 23 77 27 77 -6
c0 -77 20 -95 54 -95c37 0 79 66 102 133c-52 26 -116 69 -156 140c-33 64 -81 193 -105 266c-6 50 56 68 71 29c26 -80 62 -176 85 -227c34 -77 85 -117 129 -140c41 112 46 254 82 367z" />
    <glyph glyph-name="z" unicode="z" horiz-adv-x="512" 
d="M431 651c50 -3 55 -39 31 -69c-141 -251 -236 -422 -327 -512c64 -12 251 5 322 7c42 2 36 -71 -4 -73c-114 -4 -283 -5 -370 -1c-64 2 -61 61 -19 95c117 97 256 393 325 489c-127 4 -214 -9 -297 -4c-24 2 -21 68 12 68c173 -9 141 13 327 0z" />
    <glyph glyph-name="zacute" unicode="&#x17a;" horiz-adv-x="512" 
d="M302 819c23 27 74 -6 51 -33c-17 -20 -56 -49 -73 -69c-21 -23 -64 -1 -42 31c13 19 51 52 64 71zM431 651c50 -3 55 -39 31 -69c-141 -251 -236 -422 -327 -512c64 -12 251 5 322 7c42 2 36 -71 -4 -73c-114 -4 -283 -5 -370 -1c-64 2 -61 61 -19 95
c117 97 256 393 325 489c-127 4 -214 -9 -297 -4c-24 2 -21 68 12 68c173 -9 141 13 327 0z" />
    <glyph glyph-name="zcaron" unicode="&#x17e;" horiz-adv-x="512" 
d="M343 825c22 21 58 -18 30 -44c-20 -19 -50 -32 -94 -59c-15 -14 -93 45 -110 65c-15 18 13 57 38 37c21 -16 36 -33 61 -51c18 15 59 37 75 52zM431 651c50 -3 55 -39 31 -69c-141 -251 -236 -422 -327 -512c64 -12 251 5 322 7c42 2 36 -71 -4 -73
c-114 -4 -283 -5 -370 -1c-64 2 -61 61 -19 95c117 97 256 393 325 489c-127 4 -214 -9 -297 -4c-24 2 -21 68 12 68c173 -9 141 13 327 0z" />
    <glyph glyph-name="zdotaccent" unicode="&#x17c;" horiz-adv-x="512" 
d="M268 801c73 -2 76 -71 3 -71c-17 0 -38 15 -40 30c-5 25 13 41 37 41zM431 651c50 -3 55 -39 31 -69c-141 -251 -236 -422 -327 -512c64 -12 251 5 322 7c42 2 36 -71 -4 -73c-114 -4 -283 -5 -370 -1c-64 2 -61 61 -19 95c117 97 256 393 325 489
c-127 4 -214 -9 -297 -4c-24 2 -21 68 12 68c173 -9 141 13 327 0z" />
    <glyph glyph-name="a.ss01" horiz-adv-x="558" 
d="M366 614c0 -95 28 -241 62 -349l67 2c38 3 68 -52 -8 -58l-38 -3c38 -97 48 -130 78 -155c32 -26 12 -60 -39 -48c-35 7 -81 97 -118 200c-27 0 -58 -1 -140 -1c-46 -113 -98 -202 -151 -204c-69 -2 -70 73 -4 81c16 2 42 50 73 121c-90 7 -103 67 -41 67h70
c45 121 84 264 103 350c11 53 84 47 86 -3zM313 524c-11 -52 -41 -206 -61 -260h101c-18 56 -39 209 -40 260z" />
    <glyph glyph-name="aacute.ss01" horiz-adv-x="558" 
d="M356 819c23 27 74 -6 51 -33c-17 -20 -56 -49 -73 -69c-21 -23 -64 -1 -42 31c13 19 51 52 64 71zM366 614c0 -95 28 -241 62 -349l67 2c38 3 68 -52 -8 -58l-38 -3c38 -97 48 -130 78 -155c32 -26 12 -60 -39 -48c-35 7 -81 97 -118 200c-27 0 -58 -1 -140 -1
c-46 -113 -98 -202 -151 -204c-69 -2 -70 73 -4 81c16 2 42 50 73 121c-90 7 -103 67 -41 67h70c45 121 84 264 103 350c11 53 84 47 86 -3zM313 524c-11 -52 -41 -206 -61 -260h101c-18 56 -39 209 -40 260z" />
    <glyph glyph-name="abreve.ss01" horiz-adv-x="558" 
d="M385 808c24 25 51 -6 34 -32c-20 -30 -53 -53 -97 -53s-77 23 -97 53c-17 26 10 57 34 32c19 -19 30 -33 63 -33s44 14 63 33zM366 614c0 -95 28 -241 62 -349l67 2c38 3 68 -52 -8 -58l-38 -3c38 -97 48 -130 78 -155c32 -26 12 -60 -39 -48c-35 7 -81 97 -118 200
c-27 0 -58 -1 -140 -1c-46 -113 -98 -202 -151 -204c-69 -2 -70 73 -4 81c16 2 42 50 73 121c-90 7 -103 67 -41 67h70c45 121 84 264 103 350c11 53 84 47 86 -3zM313 524c-11 -52 -41 -206 -61 -260h101c-18 56 -39 209 -40 260z" />
    <glyph glyph-name="acircumflex.ss01" horiz-adv-x="558" 
d="M338 824c39 -23 72 -47 94 -63c28 -21 -3 -69 -27 -49c-35 29 -60 46 -78 61c-25 -18 -66 -37 -87 -53c-25 -20 -60 6 -35 34c17 19 118 84 133 70zM366 614c0 -95 28 -241 62 -349l67 2c38 3 68 -52 -8 -58l-38 -3c38 -97 48 -130 78 -155c32 -26 12 -60 -39 -48
c-35 7 -81 97 -118 200c-27 0 -58 -1 -140 -1c-46 -113 -98 -202 -151 -204c-69 -2 -70 73 -4 81c16 2 42 50 73 121c-90 7 -103 67 -41 67h70c45 121 84 264 103 350c11 53 84 47 86 -3zM313 524c-11 -52 -41 -206 -61 -260h101c-18 56 -39 209 -40 260z" />
    <glyph glyph-name="adieresis.ss01" horiz-adv-x="558" 
d="M379 778c30 3 47 -6 53 -19c9 -18 -9 -45 -52 -45c-37 0 -36 60 -1 64zM278 779c41 0 42 -67 1 -67c-19 0 -50 7 -50 34c-1 23 13 33 49 33zM366 614c0 -95 28 -241 62 -349l67 2c38 3 68 -52 -8 -58l-38 -3c38 -97 48 -130 78 -155c32 -26 12 -60 -39 -48
c-35 7 -81 97 -118 200c-27 0 -58 -1 -140 -1c-46 -113 -98 -202 -151 -204c-69 -2 -70 73 -4 81c16 2 42 50 73 121c-90 7 -103 67 -41 67h70c45 121 84 264 103 350c11 53 84 47 86 -3zM313 524c-11 -52 -41 -206 -61 -260h101c-18 56 -39 209 -40 260z" />
    <glyph glyph-name="agrave.ss01" horiz-adv-x="558" 
d="M318 819c13 -19 42 -52 55 -71c22 -32 -21 -54 -42 -31c-17 20 -48 49 -65 69c-23 27 29 60 52 33zM366 614c0 -95 28 -241 62 -349l67 2c38 3 68 -52 -8 -58l-38 -3c38 -97 48 -130 78 -155c32 -26 12 -60 -39 -48c-35 7 -81 97 -118 200c-27 0 -58 -1 -140 -1
c-46 -113 -98 -202 -151 -204c-69 -2 -70 73 -4 81c16 2 42 50 73 121c-90 7 -103 67 -41 67h70c45 121 84 264 103 350c11 53 84 47 86 -3zM313 524c-11 -52 -41 -206 -61 -260h101c-18 56 -39 209 -40 260z" />
    <glyph glyph-name="amacron.ss01" horiz-adv-x="558" 
d="M395 786c40 2 49 -51 6 -53c-38 -2 -109 -3 -147 0c-39 3 -44 55 -1 53c37 -2 105 -2 142 0zM366 614c0 -95 28 -241 62 -349l67 2c38 3 68 -52 -8 -58l-38 -3c38 -97 48 -130 78 -155c32 -26 12 -60 -39 -48c-35 7 -81 97 -118 200c-27 0 -58 -1 -140 -1
c-46 -113 -98 -202 -151 -204c-69 -2 -70 73 -4 81c16 2 42 50 73 121c-90 7 -103 67 -41 67h70c45 121 84 264 103 350c11 53 84 47 86 -3zM313 524c-11 -52 -41 -206 -61 -260h101c-18 56 -39 209 -40 260z" />
    <glyph glyph-name="aogonek.ss01" horiz-adv-x="595" 
d="M548 -84c23 21 43 -16 24 -39c-24 -30 -82 -32 -109 9c-20 30 -13 83 13 123c-33 22 -73 103 -106 194c-27 0 -58 -1 -140 -1c-46 -113 -98 -202 -151 -204c-69 -2 -70 73 -4 81c16 2 42 50 73 121c-90 7 -103 67 -41 67h70c45 121 84 264 103 350c11 53 84 47 86 -3
c0 -95 28 -241 62 -349l67 2c38 3 68 -52 -8 -58l-38 -3c38 -97 48 -130 78 -155l6 -5c4 -3 8 -7 8 -13c4 -12 -1 -24 -15 -29c-20 -27 -27 -68 -16 -84c10 -16 23 -18 38 -4zM252 264h101c-18 56 -39 209 -40 260c-11 -52 -41 -206 -61 -260z" />
    <glyph glyph-name="aring.ss01" horiz-adv-x="558" 
d="M343 841c8 4 20 5 28 -2c62 -39 13 -146 -64 -125c-37 10 -56 48 -41 80c14 32 47 47 77 47zM345 801c-3 2 -8 0 -11 -2c-11 0 -25 -7 -30 -18c-6 -11 2 -24 16 -26c30 -9 46 31 25 46zM366 614c0 -95 28 -241 62 -349l67 2c38 3 68 -52 -8 -58l-38 -3
c38 -97 48 -130 78 -155c32 -26 12 -60 -39 -48c-35 7 -81 97 -118 200c-27 0 -58 -1 -140 -1c-46 -113 -98 -202 -151 -204c-69 -2 -70 73 -4 81c16 2 42 50 73 121c-90 7 -103 67 -41 67h70c45 121 84 264 103 350c11 53 84 47 86 -3zM313 524c-11 -52 -41 -206 -61 -260
h101c-18 56 -39 209 -40 260z" />
    <glyph glyph-name="atilde.ss01" horiz-adv-x="558" 
d="M290 796c18 -4 53 -29 68 -33c30 -8 35 11 39 17c9 13 44 5 37 -24c-4 -15 -29 -43 -56 -43c-31 0 -61 20 -78 28c-13 6 -30 7 -37 -8c-10 -21 -52 -11 -45 25c6 31 41 44 72 38zM366 614c0 -95 28 -241 62 -349l67 2c38 3 68 -52 -8 -58l-38 -3c38 -97 48 -130 78 -155
c32 -26 12 -60 -39 -48c-35 7 -81 97 -118 200c-27 0 -58 -1 -140 -1c-46 -113 -98 -202 -151 -204c-69 -2 -70 73 -4 81c16 2 42 50 73 121c-90 7 -103 67 -41 67h70c45 121 84 264 103 350c11 53 84 47 86 -3zM313 524c-11 -52 -41 -206 -61 -260h101
c-18 56 -39 209 -40 260z" />
    <glyph glyph-name="m.ss01" horiz-adv-x="744" 
d="M310 620c12 -75 2 -448 71 -496c44 7 141 323 171 495c9 50 78 48 82 -5c0 -225 11 -472 75 -548c36 -48 8 -78 -42 -59c-67 26 -98 235 -105 389c-45 -160 -109 -359 -195 -352c-75 34 -103 175 -114 316c-29 -145 -81 -342 -165 -361c-94 -21 -55 54 -24 70
c109 55 145 468 159 538c12 53 75 58 87 13z" />
    <glyph glyph-name="v.ss01" horiz-adv-x="525" 
d="M20 603c110 64 170 12 151 -116c-12 -115 -39 -410 64 -414c137 19 188 380 172 502c-10 80 77 85 81 8c9 -151 -50 -583 -250 -588c-203 -3 -162 352 -143 509c5 44 5 69 -39 39c-20 -17 -77 36 -36 60z" />
    <glyph glyph-name="w.ss01" horiz-adv-x="786" 
d="M18 617c110 64 166 13 154 -118c-12 -110 -42 -423 55 -419c67 2 138 139 148 306c3 49 11 115 12 192c2 68 77 74 79 7c0 -89 -22 -207 -15 -306c3 -104 23 -203 81 -201c132 5 152 400 136 507c-8 79 71 87 78 11c17 -169 -24 -608 -210 -596c-75 2 -126 71 -145 154
c-42 -105 -105 -149 -162 -151c-194 -8 -149 362 -132 516c6 59 -7 67 -43 38c-21 -14 -70 39 -36 60z" />
    <glyph glyph-name="wacute.ss01" horiz-adv-x="810" 
d="M480 814c23 27 74 -6 51 -33c-17 -20 -56 -49 -73 -69c-21 -23 -64 -1 -42 31c13 19 51 52 64 71zM42 617c110 64 166 13 154 -118c-12 -110 -42 -423 55 -419c67 2 138 139 148 306c3 49 11 115 12 192c2 68 77 74 79 7c0 -89 -22 -207 -15 -306c3 -104 23 -203 81 -201
c132 5 152 400 136 507c-8 79 71 87 78 11c17 -169 -24 -608 -210 -596c-75 2 -126 71 -145 154c-42 -105 -105 -149 -162 -151c-194 -8 -149 362 -132 516c6 59 -7 67 -43 38c-21 -14 -70 39 -36 60z" />
    <glyph glyph-name="wcircumflex.ss01" horiz-adv-x="810" 
d="M462 819c39 -23 72 -47 94 -63c28 -21 -3 -69 -27 -49c-35 29 -60 46 -78 61c-25 -18 -66 -37 -87 -53c-25 -20 -60 6 -35 34c17 19 118 84 133 70zM42 617c110 64 166 13 154 -118c-12 -110 -42 -423 55 -419c67 2 138 139 148 306c3 49 11 115 12 192c2 68 77 74 79 7
c0 -89 -22 -207 -15 -306c3 -104 23 -203 81 -201c132 5 152 400 136 507c-8 79 71 87 78 11c17 -169 -24 -608 -210 -596c-75 2 -126 71 -145 154c-42 -105 -105 -149 -162 -151c-194 -8 -149 362 -132 516c6 59 -7 67 -43 38c-21 -14 -70 39 -36 60z" />
    <glyph glyph-name="wdieresis.ss01" horiz-adv-x="810" 
d="M503 773c30 3 47 -6 53 -19c9 -18 -9 -45 -52 -45c-37 0 -36 60 -1 64zM402 774c41 0 42 -67 1 -67c-19 0 -50 7 -50 34c-1 23 13 33 49 33zM42 617c110 64 166 13 154 -118c-12 -110 -42 -423 55 -419c67 2 138 139 148 306c3 49 11 115 12 192c2 68 77 74 79 7
c0 -89 -22 -207 -15 -306c3 -104 23 -203 81 -201c132 5 152 400 136 507c-8 79 71 87 78 11c17 -169 -24 -608 -210 -596c-75 2 -126 71 -145 154c-42 -105 -105 -149 -162 -151c-194 -8 -149 362 -132 516c6 59 -7 67 -43 38c-21 -14 -70 39 -36 60z" />
    <glyph glyph-name="wgrave.ss01" horiz-adv-x="810" 
d="M442 814c13 -19 42 -52 55 -71c22 -32 -21 -54 -42 -31c-17 20 -48 49 -65 69c-23 27 29 60 52 33zM42 617c110 64 166 13 154 -118c-12 -110 -42 -423 55 -419c67 2 138 139 148 306c3 49 11 115 12 192c2 68 77 74 79 7c0 -89 -22 -207 -15 -306
c3 -104 23 -203 81 -201c132 5 152 400 136 507c-8 79 71 87 78 11c17 -169 -24 -608 -210 -596c-75 2 -126 71 -145 154c-42 -105 -105 -149 -162 -151c-194 -8 -149 362 -132 516c6 59 -7 67 -43 38c-21 -14 -70 39 -36 60z" />
    <glyph glyph-name="x.ss01" horiz-adv-x="645" 
d="M176 642c89 -16 128 -80 149 -139c27 66 75 128 173 127c40 0 63 -6 104 -35c18 -35 -16 -76 -56 -53c-19 11 -27 11 -46 11c-122 0 -140 -179 -140 -264c0 -168 53 -226 116 -210c34 10 47 20 77 44c23 27 76 -23 61 -45c-48 -54 -108 -80 -162 -80
c-71 0 -122 49 -147 116c-16 -28 -38 -55 -66 -76c-69 -53 -132 -50 -197 13c-47 47 9 120 47 68c51 -49 68 -55 110 -13c70 75 83 129 82 235c-1 112 -47 210 -118 224c-25 5 -42 -6 -70 -26c-42 -33 -107 -4 -51 56c39 42 88 54 134 47z" />
    <glyph glyph-name="y.ss01" horiz-adv-x="449" 
d="M350 635c12 42 88 15 78 -19c-38 -126 -40 -303 -57 -372c-33 -152 -83 -249 -201 -248c-80 2 -116 57 -131 129c-7 38 69 47 78 3c8 -41 32 -58 67 -57c58 1 87 73 108 163c-28 -16 -58 -23 -88 -23c-201 0 -198 245 -188 397c5 47 83 54 78 11
c-9 -99 -18 -327 107 -330c47 -2 100 22 107 75c11 86 25 185 42 271z" />
    <glyph glyph-name="yacute.ss01" horiz-adv-x="449" 
d="M233 818c23 27 74 -6 51 -33c-17 -20 -56 -49 -73 -69c-21 -23 -64 -1 -42 31c13 19 51 52 64 71zM350 635c12 42 88 15 78 -19c-38 -126 -40 -303 -57 -372c-33 -152 -83 -249 -201 -248c-80 2 -116 57 -131 129c-7 38 69 47 78 3c8 -41 32 -58 67 -57
c58 1 87 73 108 163c-28 -16 -58 -23 -88 -23c-201 0 -198 245 -188 397c5 47 83 54 78 11c-9 -99 -18 -327 107 -330c47 -2 100 22 107 75c11 86 25 185 42 271z" />
    <glyph glyph-name="ycircumflex.ss01" horiz-adv-x="449" 
d="M215 823c39 -23 72 -47 94 -63c28 -21 -3 -69 -27 -49c-35 29 -60 46 -78 61c-25 -18 -66 -37 -87 -53c-25 -20 -60 6 -35 34c17 19 118 84 133 70zM350 635c12 42 88 15 78 -19c-38 -126 -40 -303 -57 -372c-33 -152 -83 -249 -201 -248c-80 2 -116 57 -131 129
c-7 38 69 47 78 3c8 -41 32 -58 67 -57c58 1 87 73 108 163c-28 -16 -58 -23 -88 -23c-201 0 -198 245 -188 397c5 47 83 54 78 11c-9 -99 -18 -327 107 -330c47 -2 100 22 107 75c11 86 25 185 42 271z" />
    <glyph glyph-name="ydieresis.ss01" horiz-adv-x="449" 
d="M256 777c30 3 47 -6 53 -19c9 -18 -9 -45 -52 -45c-37 0 -36 60 -1 64zM155 778c41 0 42 -67 1 -67c-19 0 -50 7 -50 34c-1 23 13 33 49 33zM350 635c12 42 88 15 78 -19c-38 -126 -40 -303 -57 -372c-33 -152 -83 -249 -201 -248c-80 2 -116 57 -131 129
c-7 38 69 47 78 3c8 -41 32 -58 67 -57c58 1 87 73 108 163c-28 -16 -58 -23 -88 -23c-201 0 -198 245 -188 397c5 47 83 54 78 11c-9 -99 -18 -327 107 -330c47 -2 100 22 107 75c11 86 25 185 42 271z" />
    <glyph glyph-name="ygrave.ss01" horiz-adv-x="449" 
d="M195 818c13 -19 42 -52 55 -71c22 -32 -21 -54 -42 -31c-17 20 -48 49 -65 69c-23 27 29 60 52 33zM350 635c12 42 88 15 78 -19c-38 -126 -40 -303 -57 -372c-33 -152 -83 -249 -201 -248c-80 2 -116 57 -131 129c-7 38 69 47 78 3c8 -41 32 -58 67 -57
c58 1 87 73 108 163c-28 -16 -58 -23 -88 -23c-201 0 -198 245 -188 397c5 47 83 54 78 11c-9 -99 -18 -327 107 -330c47 -2 100 22 107 75c11 86 25 185 42 271z" />
    <glyph glyph-name="z.ss01" horiz-adv-x="510" 
d="M436 652c52 9 58 -38 34 -69c-143 -249 -216 -395 -300 -487c34 6 74 10 106 10c62 -2 118 -22 163 -22c56 0 59 -84 1 -80c-54 4 -121 25 -174 25c-58 -1 -131 -10 -165 -24c-77 -36 -88 41 -31 91c113 98 243 380 308 473c-100 -19 -152 -19 -262 8
c-49 16 -39 88 19 74c117 -32 130 -26 301 1z" />
    <glyph glyph-name="zacute.ss01" horiz-adv-x="510" 
d="M306 818c23 27 74 -6 51 -33c-17 -20 -56 -49 -73 -69c-21 -23 -64 -1 -42 31c13 19 51 52 64 71zM436 652c52 9 58 -38 34 -69c-143 -249 -216 -395 -300 -487c34 6 74 10 106 10c62 -2 118 -22 163 -22c56 0 59 -84 1 -80c-54 4 -121 25 -174 25
c-58 -1 -131 -10 -165 -24c-77 -36 -88 41 -31 91c113 98 243 380 308 473c-100 -19 -152 -19 -262 8c-49 16 -39 88 19 74c117 -32 130 -26 301 1z" />
    <glyph glyph-name="zcaron.ss01" horiz-adv-x="510" 
d="M347 824c22 21 58 -18 30 -44c-20 -19 -50 -32 -94 -59c-15 -14 -93 45 -110 65c-15 18 13 57 38 37c21 -16 36 -33 61 -51c18 15 59 37 75 52zM436 652c52 9 58 -38 34 -69c-143 -249 -216 -395 -300 -487c34 6 74 10 106 10c62 -2 118 -22 163 -22c56 0 59 -84 1 -80
c-54 4 -121 25 -174 25c-58 -1 -131 -10 -165 -24c-77 -36 -88 41 -31 91c113 98 243 380 308 473c-100 -19 -152 -19 -262 8c-49 16 -39 88 19 74c117 -32 130 -26 301 1z" />
    <glyph glyph-name="zdotaccent.ss01" horiz-adv-x="510" 
d="M272 800c73 -2 76 -71 3 -71c-17 0 -38 15 -40 30c-5 25 13 41 37 41zM436 652c52 9 58 -38 34 -69c-143 -249 -216 -395 -300 -487c34 6 74 10 106 10c62 -2 118 -22 163 -22c56 0 59 -84 1 -80c-54 4 -121 25 -174 25c-58 -1 -131 -10 -165 -24c-77 -36 -88 41 -31 91
c113 98 243 380 308 473c-100 -19 -152 -19 -262 8c-49 16 -39 88 19 74c117 -32 130 -26 301 1z" />
    <glyph glyph-name="y.ss02" horiz-adv-x="457" 
d="M360 606c15 45 87 14 76 -27c-81 -271 -48 -163 -98 -329c8 -2 15 -6 21 -14c21 -30 -8 -58 -47 -60c-25 -72 -41 -97 -76 -155c-32 -52 -100 -20 -68 37c13 31 45 71 70 138c-52 29 -112 69 -150 148c-30 65 -54 155 -75 232c-10 34 60 82 75 28c15 -60 34 -134 58 -194
c30 -80 77 -114 117 -138c22 69 88 304 97 334z" />
    <glyph glyph-name="yacute.ss02" horiz-adv-x="457" 
d="M257 820c23 27 74 -6 51 -33c-17 -20 -56 -49 -73 -69c-21 -23 -64 -1 -42 31c13 19 51 52 64 71zM360 606c15 45 87 14 76 -27c-81 -271 -48 -163 -98 -329c8 -2 15 -6 21 -14c21 -30 -8 -58 -47 -60c-25 -72 -41 -97 -76 -155c-32 -52 -100 -20 -68 37
c13 31 45 71 70 138c-52 29 -112 69 -150 148c-30 65 -54 155 -75 232c-10 34 60 82 75 28c15 -60 34 -134 58 -194c30 -80 77 -114 117 -138c22 69 88 304 97 334z" />
    <glyph glyph-name="ycircumflex.ss02" horiz-adv-x="457" 
d="M239 825c39 -23 72 -47 94 -63c28 -21 -3 -69 -27 -49c-35 29 -60 46 -78 61c-25 -18 -66 -37 -87 -53c-25 -20 -60 6 -35 34c17 19 118 84 133 70zM360 606c15 45 87 14 76 -27c-81 -271 -48 -163 -98 -329c8 -2 15 -6 21 -14c21 -30 -8 -58 -47 -60
c-25 -72 -41 -97 -76 -155c-32 -52 -100 -20 -68 37c13 31 45 71 70 138c-52 29 -112 69 -150 148c-30 65 -54 155 -75 232c-10 34 60 82 75 28c15 -60 34 -134 58 -194c30 -80 77 -114 117 -138c22 69 88 304 97 334z" />
    <glyph glyph-name="ydieresis.ss02" horiz-adv-x="457" 
d="M280 779c30 3 47 -6 53 -19c9 -18 -9 -45 -52 -45c-37 0 -36 60 -1 64zM179 780c41 0 42 -67 1 -67c-19 0 -50 7 -50 34c-1 23 13 33 49 33zM360 606c15 45 87 14 76 -27c-81 -271 -48 -163 -98 -329c8 -2 15 -6 21 -14c21 -30 -8 -58 -47 -60c-25 -72 -41 -97 -76 -155
c-32 -52 -100 -20 -68 37c13 31 45 71 70 138c-52 29 -112 69 -150 148c-30 65 -54 155 -75 232c-10 34 60 82 75 28c15 -60 34 -134 58 -194c30 -80 77 -114 117 -138c22 69 88 304 97 334z" />
    <glyph glyph-name="ygrave.ss02" horiz-adv-x="457" 
d="M219 820c13 -19 42 -52 55 -71c22 -32 -21 -54 -42 -31c-17 20 -48 49 -65 69c-23 27 29 60 52 33zM360 606c15 45 87 14 76 -27c-81 -271 -48 -163 -98 -329c8 -2 15 -6 21 -14c21 -30 -8 -58 -47 -60c-25 -72 -41 -97 -76 -155c-32 -52 -100 -20 -68 37
c13 31 45 71 70 138c-52 29 -112 69 -150 148c-30 65 -54 155 -75 232c-10 34 60 82 75 28c15 -60 34 -134 58 -194c30 -80 77 -114 117 -138c22 69 88 304 97 334z" />
    <glyph glyph-name="zero" unicode="0" horiz-adv-x="533" 
d="M248 686c16 4 34 -6 43 -15c119 -44 177 -137 195 -229c16 -88 15 -150 6 -230c-18 -108 -89 -212 -217 -212c-193 0 -254 117 -256 316c-1 178 79 314 229 370zM254 608c-77 -36 -124 -92 -144 -178c-18 -91 -16 -113 -7 -200c4 -76 45 -154 172 -154c55 0 96 32 121 78
c18 37 28 90 26 167c0 51 -8 93 -17 137c-21 67 -72 120 -151 150z" />
    <glyph glyph-name="one" unicode="1" horiz-adv-x="457" 
d="M28 451c47 48 122 99 183 210c30 49 87 26 74 -24c-31 -93 0 -471 -10 -568c14 0 36 1 115 4c36 0 46 -67 9 -71c-106 -8 -210 -3 -327 -3c-26 0 -28 75 -1 75c53 0 100 0 125 -2c11 103 -1 359 10 475c-66 -86 -113 -124 -130 -137c-19 -14 -68 21 -48 41z" />
    <glyph glyph-name="two" unicode="2" horiz-adv-x="545" 
d="M240 695c182 3 244 -127 159 -257c-56 -99 -174 -251 -246 -339c46 16 99 6 157 -16c44 -16 103 -28 118 -8c27 44 -15 129 -15 154c-11 39 70 42 75 0c6 -87 50 -193 -31 -224c-69 -28 -147 -3 -247 35c-39 14 -97 -2 -142 -37c-51 -26 -98 2 -4 95
c53 53 109 135 172 219c73 98 124 158 118 243c-4 53 -55 61 -114 60c-52 -1 -87 -41 -101 -81c-19 -50 -27 -92 -25 -117c-3 -43 -78 -49 -78 0c-1 44 8 140 60 200c34 43 90 72 144 73z" />
    <glyph glyph-name="three" unicode="3" horiz-adv-x="503" 
d="M95 679l279 3c44 4 63 -28 37 -60c-38 -53 -124 -90 -173 -136c66 8 145 21 200 -29c80 -78 58 -207 13 -313c-44 -99 -106 -144 -212 -144c-147 0 -203 58 -211 205c-1 40 0 65 4 101c9 29 79 22 76 -11c-5 -30 -5 -145 22 -182c21 -24 51 -45 106 -45
c92 0 117 47 141 104c29 75 47 172 6 227c-61 64 -156 15 -213 15c-54 0 -66 34 -40 60c36 37 109 91 190 147c-48 0 -173 -3 -225 -13c-43 -5 -41 66 0 71z" />
    <glyph glyph-name="four" unicode="4" horiz-adv-x="627" 
d="M387 670c27 45 69 36 69 -28c0 -186 -11 -263 3 -428c31 2 71 2 96 1c26 -1 16 -71 -8 -71c-23 0 -58 2 -82 -1c1 -21 2 -85 -2 -104c-16 -42 -89 -55 -77 -5c2 17 2 73 1 100c-112 -11 -182 12 -330 -11c-22 1 -54 39 -19 79c65 83 270 382 349 468zM382 544
c-88 -114 -170 -227 -246 -341c116 9 139 -5 243 3c-5 50 -3 171 3 338z" />
    <glyph glyph-name="five" unicode="5" horiz-adv-x="472" 
d="M370 691c72 8 42 -77 -4 -77c-121 4 -161 -22 -266 -12l6 -102c35 10 75 19 117 20c100 2 190 -43 212 -144c8 -38 4 -129 4 -159c0 -73 -18 -129 -67 -172c-60 -55 -188 -59 -262 -19c-110 59 -81 209 -95 281c-3 22 74 34 77 12c6 -40 -2 -184 37 -215
c57 -42 141 -42 193 -3c26 17 36 52 36 81c0 16 3 117 2 140c-2 72 -25 95 -83 117c-70 23 -116 15 -193 -8c-36 -19 -63 10 -54 42c3 30 -5 114 -5 145c-12 22 3 68 32 66c161 -11 172 2 313 7z" />
    <glyph glyph-name="six" unicode="6" horiz-adv-x="560" 
d="M311 693c132 0 168 -55 189 -177c4 -50 -61 -70 -73 -17c-13 70 -32 119 -116 119c-69 0 -121 -49 -141 -111c-9 -33 -16 -76 -18 -142c48 45 110 85 168 85c75 0 161 -16 183 -124c19 -63 17 -155 -13 -223c-39 -99 -119 -108 -183 -108c-109 0 -179 54 -208 133
c-10 25 -18 54 -17 91c-40 -33 -76 -38 -72 -1c8 23 43 65 68 84c0 39 0 106 6 169c15 135 114 222 227 222zM320 375c-52 0 -110 -38 -167 -98c2 -44 10 -73 18 -108c25 -83 86 -98 136 -98c50 3 77 16 95 35c29 33 34 81 31 138c-5 82 -29 131 -113 131z" />
    <glyph glyph-name="seven" unicode="7" horiz-adv-x="509" 
d="M426 689c49 4 59 -29 47 -53c-139 -284 -207 -422 -276 -611c-6 -20 -84 -2 -75 20c36 97 75 196 119 290c52 115 86 170 137 282c-129 0 -257 -11 -325 -5c-26 12 -16 76 8 74c145 -13 255 8 365 3z" />
    <glyph glyph-name="eight" unicode="8" horiz-adv-x="557" 
d="M253 693c112 1 170 -51 179 -128c4 -39 -16 -102 -57 -139c47 -17 100 -38 122 -83c38 -83 32 -166 -17 -252c-60 -100 -222 -98 -297 -84c-133 22 -171 131 -162 229c6 76 61 139 136 176c-73 36 -80 97 -76 136c8 76 68 144 172 145zM249 618c-54 0 -89 -38 -89 -87
c0 -58 52 -101 98 -99c46 3 96 49 97 116c1 49 -40 70 -106 70zM275 378c-97 -16 -179 -67 -174 -165c7 -156 134 -159 237 -137c52 14 96 68 104 131c3 35 7 64 -17 105c-29 51 -72 57 -150 66z" />
    <glyph glyph-name="nine" unicode="9" horiz-adv-x="459" 
d="M220 706c174 0 220 -120 205 -220c-27 -167 -141 -359 -187 -457c-21 -43 -91 -36 -74 16c31 82 101 186 131 264c-25 -12 -58 -33 -107 -29c-128 10 -168 114 -166 219c2 110 62 197 198 207zM222 630c-98 -7 -120 -77 -122 -129c-2 -50 0 -140 98 -158
c133 -1 177 142 151 221c-13 45 -62 65 -127 66z" />
    <glyph glyph-name="fraction" unicode="&#x2044;" horiz-adv-x="377" 
d="M303 633c25 34 82 -10 59 -44c-100 -145 -164 -388 -279 -535c-37 -40 -96 6 -58 47c116 143 177 388 278 532z" />
    <glyph glyph-name="asterisk" unicode="*" 
d="M185 492l15 -33h15l-64 141h-14l-63 -141h15l15 33h81zM290 459l59 141h-16l-51 -126l-53 126h-15l60 -141h16zM460 492l14 -33h15l-63 141h-14l-64 -141h15l15 33h82zM513 459h14v141h-14v-141zM580 600h-14v-141h93v13h-79v128zM777 492l15 -33h15l-63 141h-14
l-64 -141h15l15 33h81zM891 600h-60v-141h60c25 0 51 9 51 38c0 14 -9 29 -26 34c14 5 22 17 22 30c0 28 -22 39 -47 39zM987 600h-14v-141h92v13h-78v128zM1189 459v13h-87v51h82v13h-82v51h86v13h-100v-141h101zM845 538v49h46c17 0 33 -7 33 -26c0 -17 -15 -23 -32 -23
h-47zM109 504l35 81l36 -81h-71zM383 504l36 81l35 -81h-71zM701 504l36 81l35 -81h-71zM845 472v53h47c17 0 36 -8 36 -28s-21 -25 -37 -25h-46zM50 281h14v141h-14v-141zM203 307l-91 115h-9v-141h14v113l91 -113h9v141h-14v-115zM336 408v-127h14v127h50v14h-114v-14h50z
M522 281h14v141h-14v-66h-85v66h-14v-141h14v62h85v-62zM677 281v13h-87v51h81v13h-81v50h85v14h-100v-141h102zM760 281h14v61h80v13h-80v53h83v14h-97v-141zM997 422h-14v-87c0 -30 -20 -43 -42 -43c-24 0 -42 16 -42 43v87h-14v-87c0 -38 26 -56 56 -56c31 0 56 18 56 56
v87zM1049 422h-15v-141h93v13h-78v128zM1164 422h-14v-141h93v13h-79v128zM702 214l12 7c-13 19 -34 25 -53 25c-24 0 -54 -10 -54 -39c0 -28 27 -33 53 -38c22 -4 43 -9 43 -28c0 -23 -24 -27 -42 -27c-17 0 -37 6 -46 24l-13 -7c11 -22 36 -31 59 -31c26 0 57 9 57 41
c0 30 -28 36 -56 41c-22 4 -41 8 -41 25c0 20 23 25 40 25c15 0 33 -4 41 -18zM934 173c0 37 -24 73 -72 73c-45 0 -71 -34 -71 -73c0 -37 23 -74 71 -73c48 -1 72 36 72 73zM255 102l59 142h-16l-51 -126l-53 126h-15l60 -142h16zM440 102v14h-87v51h81v13h-81v50h85v14
h-99v-142h101zM587 102l-49 53c30 2 43 22 43 44c0 24 -16 45 -47 45h-63v-142h14v52h36l47 -52h19zM747 102h14v142h-14v-142zM1064 129l-91 115h-9v-142h14v114l91 -114h8v142h-14v-68zM862 113c-38 0 -56 29 -57 60c-1 32 19 60 57 59c39 1 58 -28 58 -59
s-19 -60 -58 -60zM485 230h49c22 0 33 -14 33 -31c0 -18 -11 -31 -34 -31h-48v62z" />
    <glyph glyph-name="backslash" unicode="\" 
d="M185 492l15 -33h15l-64 141h-14l-63 -141h15l15 33h81zM290 459l59 141h-16l-51 -126l-53 126h-15l60 -141h16zM460 492l14 -33h15l-63 141h-14l-64 -141h15l15 33h82zM513 459h14v141h-14v-141zM580 600h-14v-141h93v13h-79v128zM777 492l15 -33h15l-63 141h-14
l-64 -141h15l15 33h81zM891 600h-60v-141h60c25 0 51 9 51 38c0 14 -9 29 -26 34c14 5 22 17 22 30c0 28 -22 39 -47 39zM987 600h-14v-141h92v13h-78v128zM1189 459v13h-87v51h82v13h-82v51h86v13h-100v-141h101zM845 538v49h46c17 0 33 -7 33 -26c0 -17 -15 -23 -32 -23
h-47zM109 504l35 81l36 -81h-71zM383 504l36 81l35 -81h-71zM701 504l36 81l35 -81h-71zM845 472v53h47c17 0 36 -8 36 -28s-21 -25 -37 -25h-46zM50 281h14v141h-14v-141zM203 307l-91 115h-9v-141h14v113l91 -113h9v141h-14v-115zM336 408v-127h14v127h50v14h-114v-14h50z
M522 281h14v141h-14v-66h-85v66h-14v-141h14v62h85v-62zM677 281v13h-87v51h81v13h-81v50h85v14h-100v-141h102zM760 281h14v61h80v13h-80v53h83v14h-97v-141zM997 422h-14v-87c0 -30 -20 -43 -42 -43c-24 0 -42 16 -42 43v87h-14v-87c0 -38 26 -56 56 -56c31 0 56 18 56 56
v87zM1049 422h-15v-141h93v13h-78v128zM1164 422h-14v-141h93v13h-79v128zM702 214l12 7c-13 19 -34 25 -53 25c-24 0 -54 -10 -54 -39c0 -28 27 -33 53 -38c22 -4 43 -9 43 -28c0 -23 -24 -27 -42 -27c-17 0 -37 6 -46 24l-13 -7c11 -22 36 -31 59 -31c26 0 57 9 57 41
c0 30 -28 36 -56 41c-22 4 -41 8 -41 25c0 20 23 25 40 25c15 0 33 -4 41 -18zM934 173c0 37 -24 73 -72 73c-45 0 -71 -34 -71 -73c0 -37 23 -74 71 -73c48 -1 72 36 72 73zM255 102l59 142h-16l-51 -126l-53 126h-15l60 -142h16zM440 102v14h-87v51h81v13h-81v50h85v14
h-99v-142h101zM587 102l-49 53c30 2 43 22 43 44c0 24 -16 45 -47 45h-63v-142h14v52h36l47 -52h19zM747 102h14v142h-14v-142zM1064 129l-91 115h-9v-142h14v114l91 -114h8v142h-14v-68zM862 113c-38 0 -56 29 -57 60c-1 32 19 60 57 59c39 1 58 -28 58 -59
s-19 -60 -58 -60zM485 230h49c22 0 33 -14 33 -31c0 -18 -11 -31 -34 -31h-48v62z" />
    <glyph glyph-name="bullet" unicode="&#x2022;" 
d="M185 492l15 -33h15l-64 141h-14l-63 -141h15l15 33h81zM290 459l59 141h-16l-51 -126l-53 126h-15l60 -141h16zM460 492l14 -33h15l-63 141h-14l-64 -141h15l15 33h82zM513 459h14v141h-14v-141zM580 600h-14v-141h93v13h-79v128zM777 492l15 -33h15l-63 141h-14
l-64 -141h15l15 33h81zM891 600h-60v-141h60c25 0 51 9 51 38c0 14 -9 29 -26 34c14 5 22 17 22 30c0 28 -22 39 -47 39zM987 600h-14v-141h92v13h-78v128zM1189 459v13h-87v51h82v13h-82v51h86v13h-100v-141h101zM845 538v49h46c17 0 33 -7 33 -26c0 -17 -15 -23 -32 -23
h-47zM109 504l35 81l36 -81h-71zM383 504l36 81l35 -81h-71zM701 504l36 81l35 -81h-71zM845 472v53h47c17 0 36 -8 36 -28s-21 -25 -37 -25h-46zM50 281h14v141h-14v-141zM203 307l-91 115h-9v-141h14v113l91 -113h9v141h-14v-115zM336 408v-127h14v127h50v14h-114v-14h50z
M522 281h14v141h-14v-66h-85v66h-14v-141h14v62h85v-62zM677 281v13h-87v51h81v13h-81v50h85v14h-100v-141h102zM760 281h14v61h80v13h-80v53h83v14h-97v-141zM997 422h-14v-87c0 -30 -20 -43 -42 -43c-24 0 -42 16 -42 43v87h-14v-87c0 -38 26 -56 56 -56c31 0 56 18 56 56
v87zM1049 422h-15v-141h93v13h-78v128zM1164 422h-14v-141h93v13h-79v128zM702 214l12 7c-13 19 -34 25 -53 25c-24 0 -54 -10 -54 -39c0 -28 27 -33 53 -38c22 -4 43 -9 43 -28c0 -23 -24 -27 -42 -27c-17 0 -37 6 -46 24l-13 -7c11 -22 36 -31 59 -31c26 0 57 9 57 41
c0 30 -28 36 -56 41c-22 4 -41 8 -41 25c0 20 23 25 40 25c15 0 33 -4 41 -18zM934 173c0 37 -24 73 -72 73c-45 0 -71 -34 -71 -73c0 -37 23 -74 71 -73c48 -1 72 36 72 73zM255 102l59 142h-16l-51 -126l-53 126h-15l60 -142h16zM440 102v14h-87v51h81v13h-81v50h85v14
h-99v-142h101zM587 102l-49 53c30 2 43 22 43 44c0 24 -16 45 -47 45h-63v-142h14v52h36l47 -52h19zM747 102h14v142h-14v-142zM1064 129l-91 115h-9v-142h14v114l91 -114h8v142h-14v-68zM862 113c-38 0 -56 29 -57 60c-1 32 19 60 57 59c39 1 58 -28 58 -59
s-19 -60 -58 -60zM485 230h49c22 0 33 -14 33 -31c0 -18 -11 -31 -34 -31h-48v62z" />
    <glyph glyph-name="colon" unicode=":" 
d="M185 492l15 -33h15l-64 141h-14l-63 -141h15l15 33h81zM290 459l59 141h-16l-51 -126l-53 126h-15l60 -141h16zM460 492l14 -33h15l-63 141h-14l-64 -141h15l15 33h82zM513 459h14v141h-14v-141zM580 600h-14v-141h93v13h-79v128zM777 492l15 -33h15l-63 141h-14
l-64 -141h15l15 33h81zM891 600h-60v-141h60c25 0 51 9 51 38c0 14 -9 29 -26 34c14 5 22 17 22 30c0 28 -22 39 -47 39zM987 600h-14v-141h92v13h-78v128zM1189 459v13h-87v51h82v13h-82v51h86v13h-100v-141h101zM845 538v49h46c17 0 33 -7 33 -26c0 -17 -15 -23 -32 -23
h-47zM109 504l35 81l36 -81h-71zM383 504l36 81l35 -81h-71zM701 504l36 81l35 -81h-71zM845 472v53h47c17 0 36 -8 36 -28s-21 -25 -37 -25h-46zM50 281h14v141h-14v-141zM203 307l-91 115h-9v-141h14v113l91 -113h9v141h-14v-115zM336 408v-127h14v127h50v14h-114v-14h50z
M522 281h14v141h-14v-66h-85v66h-14v-141h14v62h85v-62zM677 281v13h-87v51h81v13h-81v50h85v14h-100v-141h102zM760 281h14v61h80v13h-80v53h83v14h-97v-141zM997 422h-14v-87c0 -30 -20 -43 -42 -43c-24 0 -42 16 -42 43v87h-14v-87c0 -38 26 -56 56 -56c31 0 56 18 56 56
v87zM1049 422h-15v-141h93v13h-78v128zM1164 422h-14v-141h93v13h-79v128zM702 214l12 7c-13 19 -34 25 -53 25c-24 0 -54 -10 -54 -39c0 -28 27 -33 53 -38c22 -4 43 -9 43 -28c0 -23 -24 -27 -42 -27c-17 0 -37 6 -46 24l-13 -7c11 -22 36 -31 59 -31c26 0 57 9 57 41
c0 30 -28 36 -56 41c-22 4 -41 8 -41 25c0 20 23 25 40 25c15 0 33 -4 41 -18zM934 173c0 37 -24 73 -72 73c-45 0 -71 -34 -71 -73c0 -37 23 -74 71 -73c48 -1 72 36 72 73zM255 102l59 142h-16l-51 -126l-53 126h-15l60 -142h16zM440 102v14h-87v51h81v13h-81v50h85v14
h-99v-142h101zM587 102l-49 53c30 2 43 22 43 44c0 24 -16 45 -47 45h-63v-142h14v52h36l47 -52h19zM747 102h14v142h-14v-142zM1064 129l-91 115h-9v-142h14v114l91 -114h8v142h-14v-68zM862 113c-38 0 -56 29 -57 60c-1 32 19 60 57 59c39 1 58 -28 58 -59
s-19 -60 -58 -60zM485 230h49c22 0 33 -14 33 -31c0 -18 -11 -31 -34 -31h-48v62z" />
    <glyph glyph-name="comma" unicode="," horiz-adv-x="170" 
d="M135 33c0 -66 -7 -103 -28 -162c-10 -19 -81 -3 -71 21c18 47 19 74 19 136c0 43 80 42 80 5z" />
    <glyph glyph-name="ellipsis" unicode="&#x2026;" 
d="M185 492l15 -33h15l-64 141h-14l-63 -141h15l15 33h81zM290 459l59 141h-16l-51 -126l-53 126h-15l60 -141h16zM460 492l14 -33h15l-63 141h-14l-64 -141h15l15 33h82zM513 459h14v141h-14v-141zM580 600h-14v-141h93v13h-79v128zM777 492l15 -33h15l-63 141h-14
l-64 -141h15l15 33h81zM891 600h-60v-141h60c25 0 51 9 51 38c0 14 -9 29 -26 34c14 5 22 17 22 30c0 28 -22 39 -47 39zM987 600h-14v-141h92v13h-78v128zM1189 459v13h-87v51h82v13h-82v51h86v13h-100v-141h101zM845 538v49h46c17 0 33 -7 33 -26c0 -17 -15 -23 -32 -23
h-47zM109 504l35 81l36 -81h-71zM383 504l36 81l35 -81h-71zM701 504l36 81l35 -81h-71zM845 472v53h47c17 0 36 -8 36 -28s-21 -25 -37 -25h-46zM50 281h14v141h-14v-141zM203 307l-91 115h-9v-141h14v113l91 -113h9v141h-14v-115zM336 408v-127h14v127h50v14h-114v-14h50z
M522 281h14v141h-14v-66h-85v66h-14v-141h14v62h85v-62zM677 281v13h-87v51h81v13h-81v50h85v14h-100v-141h102zM760 281h14v61h80v13h-80v53h83v14h-97v-141zM997 422h-14v-87c0 -30 -20 -43 -42 -43c-24 0 -42 16 -42 43v87h-14v-87c0 -38 26 -56 56 -56c31 0 56 18 56 56
v87zM1049 422h-15v-141h93v13h-78v128zM1164 422h-14v-141h93v13h-79v128zM702 214l12 7c-13 19 -34 25 -53 25c-24 0 -54 -10 -54 -39c0 -28 27 -33 53 -38c22 -4 43 -9 43 -28c0 -23 -24 -27 -42 -27c-17 0 -37 6 -46 24l-13 -7c11 -22 36 -31 59 -31c26 0 57 9 57 41
c0 30 -28 36 -56 41c-22 4 -41 8 -41 25c0 20 23 25 40 25c15 0 33 -4 41 -18zM934 173c0 37 -24 73 -72 73c-45 0 -71 -34 -71 -73c0 -37 23 -74 71 -73c48 -1 72 36 72 73zM255 102l59 142h-16l-51 -126l-53 126h-15l60 -142h16zM440 102v14h-87v51h81v13h-81v50h85v14
h-99v-142h101zM587 102l-49 53c30 2 43 22 43 44c0 24 -16 45 -47 45h-63v-142h14v52h36l47 -52h19zM747 102h14v142h-14v-142zM1064 129l-91 115h-9v-142h14v114l91 -114h8v142h-14v-68zM862 113c-38 0 -56 29 -57 60c-1 32 19 60 57 59c39 1 58 -28 58 -59
s-19 -60 -58 -60zM485 230h49c22 0 33 -14 33 -31c0 -18 -11 -31 -34 -31h-48v62z" />
    <glyph glyph-name="exclam" unicode="!" 
d="M185 492l15 -33h15l-64 141h-14l-63 -141h15l15 33h81zM290 459l59 141h-16l-51 -126l-53 126h-15l60 -141h16zM460 492l14 -33h15l-63 141h-14l-64 -141h15l15 33h82zM513 459h14v141h-14v-141zM580 600h-14v-141h93v13h-79v128zM777 492l15 -33h15l-63 141h-14
l-64 -141h15l15 33h81zM891 600h-60v-141h60c25 0 51 9 51 38c0 14 -9 29 -26 34c14 5 22 17 22 30c0 28 -22 39 -47 39zM987 600h-14v-141h92v13h-78v128zM1189 459v13h-87v51h82v13h-82v51h86v13h-100v-141h101zM845 538v49h46c17 0 33 -7 33 -26c0 -17 -15 -23 -32 -23
h-47zM109 504l35 81l36 -81h-71zM383 504l36 81l35 -81h-71zM701 504l36 81l35 -81h-71zM845 472v53h47c17 0 36 -8 36 -28s-21 -25 -37 -25h-46zM50 281h14v141h-14v-141zM203 307l-91 115h-9v-141h14v113l91 -113h9v141h-14v-115zM336 408v-127h14v127h50v14h-114v-14h50z
M522 281h14v141h-14v-66h-85v66h-14v-141h14v62h85v-62zM677 281v13h-87v51h81v13h-81v50h85v14h-100v-141h102zM760 281h14v61h80v13h-80v53h83v14h-97v-141zM997 422h-14v-87c0 -30 -20 -43 -42 -43c-24 0 -42 16 -42 43v87h-14v-87c0 -38 26 -56 56 -56c31 0 56 18 56 56
v87zM1049 422h-15v-141h93v13h-78v128zM1164 422h-14v-141h93v13h-79v128zM702 214l12 7c-13 19 -34 25 -53 25c-24 0 -54 -10 -54 -39c0 -28 27 -33 53 -38c22 -4 43 -9 43 -28c0 -23 -24 -27 -42 -27c-17 0 -37 6 -46 24l-13 -7c11 -22 36 -31 59 -31c26 0 57 9 57 41
c0 30 -28 36 -56 41c-22 4 -41 8 -41 25c0 20 23 25 40 25c15 0 33 -4 41 -18zM934 173c0 37 -24 73 -72 73c-45 0 -71 -34 -71 -73c0 -37 23 -74 71 -73c48 -1 72 36 72 73zM255 102l59 142h-16l-51 -126l-53 126h-15l60 -142h16zM440 102v14h-87v51h81v13h-81v50h85v14
h-99v-142h101zM587 102l-49 53c30 2 43 22 43 44c0 24 -16 45 -47 45h-63v-142h14v52h36l47 -52h19zM747 102h14v142h-14v-142zM1064 129l-91 115h-9v-142h14v114l91 -114h8v142h-14v-68zM862 113c-38 0 -56 29 -57 60c-1 32 19 60 57 59c39 1 58 -28 58 -59
s-19 -60 -58 -60zM485 230h49c22 0 33 -14 33 -31c0 -18 -11 -31 -34 -31h-48v62z" />
    <glyph glyph-name="exclamdown" unicode="&#xa1;" 
d="M185 492l15 -33h15l-64 141h-14l-63 -141h15l15 33h81zM290 459l59 141h-16l-51 -126l-53 126h-15l60 -141h16zM460 492l14 -33h15l-63 141h-14l-64 -141h15l15 33h82zM513 459h14v141h-14v-141zM580 600h-14v-141h93v13h-79v128zM777 492l15 -33h15l-63 141h-14
l-64 -141h15l15 33h81zM891 600h-60v-141h60c25 0 51 9 51 38c0 14 -9 29 -26 34c14 5 22 17 22 30c0 28 -22 39 -47 39zM987 600h-14v-141h92v13h-78v128zM1189 459v13h-87v51h82v13h-82v51h86v13h-100v-141h101zM845 538v49h46c17 0 33 -7 33 -26c0 -17 -15 -23 -32 -23
h-47zM109 504l35 81l36 -81h-71zM383 504l36 81l35 -81h-71zM701 504l36 81l35 -81h-71zM845 472v53h47c17 0 36 -8 36 -28s-21 -25 -37 -25h-46zM50 281h14v141h-14v-141zM203 307l-91 115h-9v-141h14v113l91 -113h9v141h-14v-115zM336 408v-127h14v127h50v14h-114v-14h50z
M522 281h14v141h-14v-66h-85v66h-14v-141h14v62h85v-62zM677 281v13h-87v51h81v13h-81v50h85v14h-100v-141h102zM760 281h14v61h80v13h-80v53h83v14h-97v-141zM997 422h-14v-87c0 -30 -20 -43 -42 -43c-24 0 -42 16 -42 43v87h-14v-87c0 -38 26 -56 56 -56c31 0 56 18 56 56
v87zM1049 422h-15v-141h93v13h-78v128zM1164 422h-14v-141h93v13h-79v128zM702 214l12 7c-13 19 -34 25 -53 25c-24 0 -54 -10 -54 -39c0 -28 27 -33 53 -38c22 -4 43 -9 43 -28c0 -23 -24 -27 -42 -27c-17 0 -37 6 -46 24l-13 -7c11 -22 36 -31 59 -31c26 0 57 9 57 41
c0 30 -28 36 -56 41c-22 4 -41 8 -41 25c0 20 23 25 40 25c15 0 33 -4 41 -18zM934 173c0 37 -24 73 -72 73c-45 0 -71 -34 -71 -73c0 -37 23 -74 71 -73c48 -1 72 36 72 73zM255 102l59 142h-16l-51 -126l-53 126h-15l60 -142h16zM440 102v14h-87v51h81v13h-81v50h85v14
h-99v-142h101zM587 102l-49 53c30 2 43 22 43 44c0 24 -16 45 -47 45h-63v-142h14v52h36l47 -52h19zM747 102h14v142h-14v-142zM1064 129l-91 115h-9v-142h14v114l91 -114h8v142h-14v-68zM862 113c-38 0 -56 29 -57 60c-1 32 19 60 57 59c39 1 58 -28 58 -59
s-19 -60 -58 -60zM485 230h49c22 0 33 -14 33 -31c0 -18 -11 -31 -34 -31h-48v62z" />
    <glyph glyph-name="numbersign" unicode="#" 
d="M185 492l15 -33h15l-64 141h-14l-63 -141h15l15 33h81zM290 459l59 141h-16l-51 -126l-53 126h-15l60 -141h16zM460 492l14 -33h15l-63 141h-14l-64 -141h15l15 33h82zM513 459h14v141h-14v-141zM580 600h-14v-141h93v13h-79v128zM777 492l15 -33h15l-63 141h-14
l-64 -141h15l15 33h81zM891 600h-60v-141h60c25 0 51 9 51 38c0 14 -9 29 -26 34c14 5 22 17 22 30c0 28 -22 39 -47 39zM987 600h-14v-141h92v13h-78v128zM1189 459v13h-87v51h82v13h-82v51h86v13h-100v-141h101zM845 538v49h46c17 0 33 -7 33 -26c0 -17 -15 -23 -32 -23
h-47zM109 504l35 81l36 -81h-71zM383 504l36 81l35 -81h-71zM701 504l36 81l35 -81h-71zM845 472v53h47c17 0 36 -8 36 -28s-21 -25 -37 -25h-46zM50 281h14v141h-14v-141zM203 307l-91 115h-9v-141h14v113l91 -113h9v141h-14v-115zM336 408v-127h14v127h50v14h-114v-14h50z
M522 281h14v141h-14v-66h-85v66h-14v-141h14v62h85v-62zM677 281v13h-87v51h81v13h-81v50h85v14h-100v-141h102zM760 281h14v61h80v13h-80v53h83v14h-97v-141zM997 422h-14v-87c0 -30 -20 -43 -42 -43c-24 0 -42 16 -42 43v87h-14v-87c0 -38 26 -56 56 -56c31 0 56 18 56 56
v87zM1049 422h-15v-141h93v13h-78v128zM1164 422h-14v-141h93v13h-79v128zM702 214l12 7c-13 19 -34 25 -53 25c-24 0 -54 -10 -54 -39c0 -28 27 -33 53 -38c22 -4 43 -9 43 -28c0 -23 -24 -27 -42 -27c-17 0 -37 6 -46 24l-13 -7c11 -22 36 -31 59 -31c26 0 57 9 57 41
c0 30 -28 36 -56 41c-22 4 -41 8 -41 25c0 20 23 25 40 25c15 0 33 -4 41 -18zM934 173c0 37 -24 73 -72 73c-45 0 -71 -34 -71 -73c0 -37 23 -74 71 -73c48 -1 72 36 72 73zM255 102l59 142h-16l-51 -126l-53 126h-15l60 -142h16zM440 102v14h-87v51h81v13h-81v50h85v14
h-99v-142h101zM587 102l-49 53c30 2 43 22 43 44c0 24 -16 45 -47 45h-63v-142h14v52h36l47 -52h19zM747 102h14v142h-14v-142zM1064 129l-91 115h-9v-142h14v114l91 -114h8v142h-14v-68zM862 113c-38 0 -56 29 -57 60c-1 32 19 60 57 59c39 1 58 -28 58 -59
s-19 -60 -58 -60zM485 230h49c22 0 33 -14 33 -31c0 -18 -11 -31 -34 -31h-48v62z" />
    <glyph glyph-name="period" unicode="." horiz-adv-x="161" 
d="M82 93c36 -1 46 -37 43 -67c-2 -25 -29 -40 -52 -40c-58 7 -46 113 9 107z" />
    <glyph glyph-name="periodcentered" unicode="&#xb7;" horiz-adv-x="150" 
d="M75 358c33 0 40 -30 40 -55c0 -24 -24 -37 -45 -37c-50 4 -45 94 5 92z" />
    <glyph glyph-name="question" unicode="?" horiz-adv-x="447" 
d="M231 658c77 0 179 -38 181 -153c1 -115 -126 -192 -170 -261c-21 -36 -10 -67 -10 -96c0 -25 -77 -45 -77 -13c0 20 0 97 19 132c40 78 162 162 162 235c0 37 -16 52 -33 65c-25 18 -50 19 -84 19c-51 0 -90 -27 -105 -89c-3 -10 -2 -24 0 -48c0 -42 -74 -68 -76 -25
c-8 54 -3 128 48 179c39 38 89 55 145 55zM203 94c28 -4 32 -35 32 -51c-3 -27 -21 -49 -46 -40c-52 11 -45 91 14 91z" />
    <glyph glyph-name="questiondown" unicode="&#xbf;" 
d="M185 492l15 -33h15l-64 141h-14l-63 -141h15l15 33h81zM290 459l59 141h-16l-51 -126l-53 126h-15l60 -141h16zM460 492l14 -33h15l-63 141h-14l-64 -141h15l15 33h82zM513 459h14v141h-14v-141zM580 600h-14v-141h93v13h-79v128zM777 492l15 -33h15l-63 141h-14
l-64 -141h15l15 33h81zM891 600h-60v-141h60c25 0 51 9 51 38c0 14 -9 29 -26 34c14 5 22 17 22 30c0 28 -22 39 -47 39zM987 600h-14v-141h92v13h-78v128zM1189 459v13h-87v51h82v13h-82v51h86v13h-100v-141h101zM845 538v49h46c17 0 33 -7 33 -26c0 -17 -15 -23 -32 -23
h-47zM109 504l35 81l36 -81h-71zM383 504l36 81l35 -81h-71zM701 504l36 81l35 -81h-71zM845 472v53h47c17 0 36 -8 36 -28s-21 -25 -37 -25h-46zM50 281h14v141h-14v-141zM203 307l-91 115h-9v-141h14v113l91 -113h9v141h-14v-115zM336 408v-127h14v127h50v14h-114v-14h50z
M522 281h14v141h-14v-66h-85v66h-14v-141h14v62h85v-62zM677 281v13h-87v51h81v13h-81v50h85v14h-100v-141h102zM760 281h14v61h80v13h-80v53h83v14h-97v-141zM997 422h-14v-87c0 -30 -20 -43 -42 -43c-24 0 -42 16 -42 43v87h-14v-87c0 -38 26 -56 56 -56c31 0 56 18 56 56
v87zM1049 422h-15v-141h93v13h-78v128zM1164 422h-14v-141h93v13h-79v128zM702 214l12 7c-13 19 -34 25 -53 25c-24 0 -54 -10 -54 -39c0 -28 27 -33 53 -38c22 -4 43 -9 43 -28c0 -23 -24 -27 -42 -27c-17 0 -37 6 -46 24l-13 -7c11 -22 36 -31 59 -31c26 0 57 9 57 41
c0 30 -28 36 -56 41c-22 4 -41 8 -41 25c0 20 23 25 40 25c15 0 33 -4 41 -18zM934 173c0 37 -24 73 -72 73c-45 0 -71 -34 -71 -73c0 -37 23 -74 71 -73c48 -1 72 36 72 73zM255 102l59 142h-16l-51 -126l-53 126h-15l60 -142h16zM440 102v14h-87v51h81v13h-81v50h85v14
h-99v-142h101zM587 102l-49 53c30 2 43 22 43 44c0 24 -16 45 -47 45h-63v-142h14v52h36l47 -52h19zM747 102h14v142h-14v-142zM1064 129l-91 115h-9v-142h14v114l91 -114h8v142h-14v-68zM862 113c-38 0 -56 29 -57 60c-1 32 19 60 57 59c39 1 58 -28 58 -59
s-19 -60 -58 -60zM485 230h49c22 0 33 -14 33 -31c0 -18 -11 -31 -34 -31h-48v62z" />
    <glyph glyph-name="quotedbl" unicode="&#x22;" 
d="M185 492l15 -33h15l-64 141h-14l-63 -141h15l15 33h81zM290 459l59 141h-16l-51 -126l-53 126h-15l60 -141h16zM460 492l14 -33h15l-63 141h-14l-64 -141h15l15 33h82zM513 459h14v141h-14v-141zM580 600h-14v-141h93v13h-79v128zM777 492l15 -33h15l-63 141h-14
l-64 -141h15l15 33h81zM891 600h-60v-141h60c25 0 51 9 51 38c0 14 -9 29 -26 34c14 5 22 17 22 30c0 28 -22 39 -47 39zM987 600h-14v-141h92v13h-78v128zM1189 459v13h-87v51h82v13h-82v51h86v13h-100v-141h101zM845 538v49h46c17 0 33 -7 33 -26c0 -17 -15 -23 -32 -23
h-47zM109 504l35 81l36 -81h-71zM383 504l36 81l35 -81h-71zM701 504l36 81l35 -81h-71zM845 472v53h47c17 0 36 -8 36 -28s-21 -25 -37 -25h-46zM50 281h14v141h-14v-141zM203 307l-91 115h-9v-141h14v113l91 -113h9v141h-14v-115zM336 408v-127h14v127h50v14h-114v-14h50z
M522 281h14v141h-14v-66h-85v66h-14v-141h14v62h85v-62zM677 281v13h-87v51h81v13h-81v50h85v14h-100v-141h102zM760 281h14v61h80v13h-80v53h83v14h-97v-141zM997 422h-14v-87c0 -30 -20 -43 -42 -43c-24 0 -42 16 -42 43v87h-14v-87c0 -38 26 -56 56 -56c31 0 56 18 56 56
v87zM1049 422h-15v-141h93v13h-78v128zM1164 422h-14v-141h93v13h-79v128zM702 214l12 7c-13 19 -34 25 -53 25c-24 0 -54 -10 -54 -39c0 -28 27 -33 53 -38c22 -4 43 -9 43 -28c0 -23 -24 -27 -42 -27c-17 0 -37 6 -46 24l-13 -7c11 -22 36 -31 59 -31c26 0 57 9 57 41
c0 30 -28 36 -56 41c-22 4 -41 8 -41 25c0 20 23 25 40 25c15 0 33 -4 41 -18zM934 173c0 37 -24 73 -72 73c-45 0 -71 -34 -71 -73c0 -37 23 -74 71 -73c48 -1 72 36 72 73zM255 102l59 142h-16l-51 -126l-53 126h-15l60 -142h16zM440 102v14h-87v51h81v13h-81v50h85v14
h-99v-142h101zM587 102l-49 53c30 2 43 22 43 44c0 24 -16 45 -47 45h-63v-142h14v52h36l47 -52h19zM747 102h14v142h-14v-142zM1064 129l-91 115h-9v-142h14v114l91 -114h8v142h-14v-68zM862 113c-38 0 -56 29 -57 60c-1 32 19 60 57 59c39 1 58 -28 58 -59
s-19 -60 -58 -60zM485 230h49c22 0 33 -14 33 -31c0 -18 -11 -31 -34 -31h-48v62z" />
    <glyph glyph-name="quotesingle" unicode="'" 
d="M185 492l15 -33h15l-64 141h-14l-63 -141h15l15 33h81zM290 459l59 141h-16l-51 -126l-53 126h-15l60 -141h16zM460 492l14 -33h15l-63 141h-14l-64 -141h15l15 33h82zM513 459h14v141h-14v-141zM580 600h-14v-141h93v13h-79v128zM777 492l15 -33h15l-63 141h-14
l-64 -141h15l15 33h81zM891 600h-60v-141h60c25 0 51 9 51 38c0 14 -9 29 -26 34c14 5 22 17 22 30c0 28 -22 39 -47 39zM987 600h-14v-141h92v13h-78v128zM1189 459v13h-87v51h82v13h-82v51h86v13h-100v-141h101zM845 538v49h46c17 0 33 -7 33 -26c0 -17 -15 -23 -32 -23
h-47zM109 504l35 81l36 -81h-71zM383 504l36 81l35 -81h-71zM701 504l36 81l35 -81h-71zM845 472v53h47c17 0 36 -8 36 -28s-21 -25 -37 -25h-46zM50 281h14v141h-14v-141zM203 307l-91 115h-9v-141h14v113l91 -113h9v141h-14v-115zM336 408v-127h14v127h50v14h-114v-14h50z
M522 281h14v141h-14v-66h-85v66h-14v-141h14v62h85v-62zM677 281v13h-87v51h81v13h-81v50h85v14h-100v-141h102zM760 281h14v61h80v13h-80v53h83v14h-97v-141zM997 422h-14v-87c0 -30 -20 -43 -42 -43c-24 0 -42 16 -42 43v87h-14v-87c0 -38 26 -56 56 -56c31 0 56 18 56 56
v87zM1049 422h-15v-141h93v13h-78v128zM1164 422h-14v-141h93v13h-79v128zM702 214l12 7c-13 19 -34 25 -53 25c-24 0 -54 -10 -54 -39c0 -28 27 -33 53 -38c22 -4 43 -9 43 -28c0 -23 -24 -27 -42 -27c-17 0 -37 6 -46 24l-13 -7c11 -22 36 -31 59 -31c26 0 57 9 57 41
c0 30 -28 36 -56 41c-22 4 -41 8 -41 25c0 20 23 25 40 25c15 0 33 -4 41 -18zM934 173c0 37 -24 73 -72 73c-45 0 -71 -34 -71 -73c0 -37 23 -74 71 -73c48 -1 72 36 72 73zM255 102l59 142h-16l-51 -126l-53 126h-15l60 -142h16zM440 102v14h-87v51h81v13h-81v50h85v14
h-99v-142h101zM587 102l-49 53c30 2 43 22 43 44c0 24 -16 45 -47 45h-63v-142h14v52h36l47 -52h19zM747 102h14v142h-14v-142zM1064 129l-91 115h-9v-142h14v114l91 -114h8v142h-14v-68zM862 113c-38 0 -56 29 -57 60c-1 32 19 60 57 59c39 1 58 -28 58 -59
s-19 -60 -58 -60zM485 230h49c22 0 33 -14 33 -31c0 -18 -11 -31 -34 -31h-48v62z" />
    <glyph glyph-name="semicolon" unicode=";" 
d="M185 492l15 -33h15l-64 141h-14l-63 -141h15l15 33h81zM290 459l59 141h-16l-51 -126l-53 126h-15l60 -141h16zM460 492l14 -33h15l-63 141h-14l-64 -141h15l15 33h82zM513 459h14v141h-14v-141zM580 600h-14v-141h93v13h-79v128zM777 492l15 -33h15l-63 141h-14
l-64 -141h15l15 33h81zM891 600h-60v-141h60c25 0 51 9 51 38c0 14 -9 29 -26 34c14 5 22 17 22 30c0 28 -22 39 -47 39zM987 600h-14v-141h92v13h-78v128zM1189 459v13h-87v51h82v13h-82v51h86v13h-100v-141h101zM845 538v49h46c17 0 33 -7 33 -26c0 -17 -15 -23 -32 -23
h-47zM109 504l35 81l36 -81h-71zM383 504l36 81l35 -81h-71zM701 504l36 81l35 -81h-71zM845 472v53h47c17 0 36 -8 36 -28s-21 -25 -37 -25h-46zM50 281h14v141h-14v-141zM203 307l-91 115h-9v-141h14v113l91 -113h9v141h-14v-115zM336 408v-127h14v127h50v14h-114v-14h50z
M522 281h14v141h-14v-66h-85v66h-14v-141h14v62h85v-62zM677 281v13h-87v51h81v13h-81v50h85v14h-100v-141h102zM760 281h14v61h80v13h-80v53h83v14h-97v-141zM997 422h-14v-87c0 -30 -20 -43 -42 -43c-24 0 -42 16 -42 43v87h-14v-87c0 -38 26 -56 56 -56c31 0 56 18 56 56
v87zM1049 422h-15v-141h93v13h-78v128zM1164 422h-14v-141h93v13h-79v128zM702 214l12 7c-13 19 -34 25 -53 25c-24 0 -54 -10 -54 -39c0 -28 27 -33 53 -38c22 -4 43 -9 43 -28c0 -23 -24 -27 -42 -27c-17 0 -37 6 -46 24l-13 -7c11 -22 36 -31 59 -31c26 0 57 9 57 41
c0 30 -28 36 -56 41c-22 4 -41 8 -41 25c0 20 23 25 40 25c15 0 33 -4 41 -18zM934 173c0 37 -24 73 -72 73c-45 0 -71 -34 -71 -73c0 -37 23 -74 71 -73c48 -1 72 36 72 73zM255 102l59 142h-16l-51 -126l-53 126h-15l60 -142h16zM440 102v14h-87v51h81v13h-81v50h85v14
h-99v-142h101zM587 102l-49 53c30 2 43 22 43 44c0 24 -16 45 -47 45h-63v-142h14v52h36l47 -52h19zM747 102h14v142h-14v-142zM1064 129l-91 115h-9v-142h14v114l91 -114h8v142h-14v-68zM862 113c-38 0 -56 29 -57 60c-1 32 19 60 57 59c39 1 58 -28 58 -59
s-19 -60 -58 -60zM485 230h49c22 0 33 -14 33 -31c0 -18 -11 -31 -34 -31h-48v62z" />
    <glyph glyph-name="slash" unicode="/" 
d="M185 492l15 -33h15l-64 141h-14l-63 -141h15l15 33h81zM290 459l59 141h-16l-51 -126l-53 126h-15l60 -141h16zM460 492l14 -33h15l-63 141h-14l-64 -141h15l15 33h82zM513 459h14v141h-14v-141zM580 600h-14v-141h93v13h-79v128zM777 492l15 -33h15l-63 141h-14
l-64 -141h15l15 33h81zM891 600h-60v-141h60c25 0 51 9 51 38c0 14 -9 29 -26 34c14 5 22 17 22 30c0 28 -22 39 -47 39zM987 600h-14v-141h92v13h-78v128zM1189 459v13h-87v51h82v13h-82v51h86v13h-100v-141h101zM845 538v49h46c17 0 33 -7 33 -26c0 -17 -15 -23 -32 -23
h-47zM109 504l35 81l36 -81h-71zM383 504l36 81l35 -81h-71zM701 504l36 81l35 -81h-71zM845 472v53h47c17 0 36 -8 36 -28s-21 -25 -37 -25h-46zM50 281h14v141h-14v-141zM203 307l-91 115h-9v-141h14v113l91 -113h9v141h-14v-115zM336 408v-127h14v127h50v14h-114v-14h50z
M522 281h14v141h-14v-66h-85v66h-14v-141h14v62h85v-62zM677 281v13h-87v51h81v13h-81v50h85v14h-100v-141h102zM760 281h14v61h80v13h-80v53h83v14h-97v-141zM997 422h-14v-87c0 -30 -20 -43 -42 -43c-24 0 -42 16 -42 43v87h-14v-87c0 -38 26 -56 56 -56c31 0 56 18 56 56
v87zM1049 422h-15v-141h93v13h-78v128zM1164 422h-14v-141h93v13h-79v128zM702 214l12 7c-13 19 -34 25 -53 25c-24 0 -54 -10 -54 -39c0 -28 27 -33 53 -38c22 -4 43 -9 43 -28c0 -23 -24 -27 -42 -27c-17 0 -37 6 -46 24l-13 -7c11 -22 36 -31 59 -31c26 0 57 9 57 41
c0 30 -28 36 -56 41c-22 4 -41 8 -41 25c0 20 23 25 40 25c15 0 33 -4 41 -18zM934 173c0 37 -24 73 -72 73c-45 0 -71 -34 -71 -73c0 -37 23 -74 71 -73c48 -1 72 36 72 73zM255 102l59 142h-16l-51 -126l-53 126h-15l60 -142h16zM440 102v14h-87v51h81v13h-81v50h85v14
h-99v-142h101zM587 102l-49 53c30 2 43 22 43 44c0 24 -16 45 -47 45h-63v-142h14v52h36l47 -52h19zM747 102h14v142h-14v-142zM1064 129l-91 115h-9v-142h14v114l91 -114h8v142h-14v-68zM862 113c-38 0 -56 29 -57 60c-1 32 19 60 57 59c39 1 58 -28 58 -59
s-19 -60 -58 -60zM485 230h49c22 0 33 -14 33 -31c0 -18 -11 -31 -34 -31h-48v62z" />
    <glyph glyph-name="underscore" unicode="_" 
d="M185 492l15 -33h15l-64 141h-14l-63 -141h15l15 33h81zM290 459l59 141h-16l-51 -126l-53 126h-15l60 -141h16zM460 492l14 -33h15l-63 141h-14l-64 -141h15l15 33h82zM513 459h14v141h-14v-141zM580 600h-14v-141h93v13h-79v128zM777 492l15 -33h15l-63 141h-14
l-64 -141h15l15 33h81zM891 600h-60v-141h60c25 0 51 9 51 38c0 14 -9 29 -26 34c14 5 22 17 22 30c0 28 -22 39 -47 39zM987 600h-14v-141h92v13h-78v128zM1189 459v13h-87v51h82v13h-82v51h86v13h-100v-141h101zM845 538v49h46c17 0 33 -7 33 -26c0 -17 -15 -23 -32 -23
h-47zM109 504l35 81l36 -81h-71zM383 504l36 81l35 -81h-71zM701 504l36 81l35 -81h-71zM845 472v53h47c17 0 36 -8 36 -28s-21 -25 -37 -25h-46zM50 281h14v141h-14v-141zM203 307l-91 115h-9v-141h14v113l91 -113h9v141h-14v-115zM336 408v-127h14v127h50v14h-114v-14h50z
M522 281h14v141h-14v-66h-85v66h-14v-141h14v62h85v-62zM677 281v13h-87v51h81v13h-81v50h85v14h-100v-141h102zM760 281h14v61h80v13h-80v53h83v14h-97v-141zM997 422h-14v-87c0 -30 -20 -43 -42 -43c-24 0 -42 16 -42 43v87h-14v-87c0 -38 26 -56 56 -56c31 0 56 18 56 56
v87zM1049 422h-15v-141h93v13h-78v128zM1164 422h-14v-141h93v13h-79v128zM702 214l12 7c-13 19 -34 25 -53 25c-24 0 -54 -10 -54 -39c0 -28 27 -33 53 -38c22 -4 43 -9 43 -28c0 -23 -24 -27 -42 -27c-17 0 -37 6 -46 24l-13 -7c11 -22 36 -31 59 -31c26 0 57 9 57 41
c0 30 -28 36 -56 41c-22 4 -41 8 -41 25c0 20 23 25 40 25c15 0 33 -4 41 -18zM934 173c0 37 -24 73 -72 73c-45 0 -71 -34 -71 -73c0 -37 23 -74 71 -73c48 -1 72 36 72 73zM255 102l59 142h-16l-51 -126l-53 126h-15l60 -142h16zM440 102v14h-87v51h81v13h-81v50h85v14
h-99v-142h101zM587 102l-49 53c30 2 43 22 43 44c0 24 -16 45 -47 45h-63v-142h14v52h36l47 -52h19zM747 102h14v142h-14v-142zM1064 129l-91 115h-9v-142h14v114l91 -114h8v142h-14v-68zM862 113c-38 0 -56 29 -57 60c-1 32 19 60 57 59c39 1 58 -28 58 -59
s-19 -60 -58 -60zM485 230h49c22 0 33 -14 33 -31c0 -18 -11 -31 -34 -31h-48v62z" />
    <glyph glyph-name="braceleft" unicode="{" 
d="M185 492l15 -33h15l-64 141h-14l-63 -141h15l15 33h81zM290 459l59 141h-16l-51 -126l-53 126h-15l60 -141h16zM460 492l14 -33h15l-63 141h-14l-64 -141h15l15 33h82zM513 459h14v141h-14v-141zM580 600h-14v-141h93v13h-79v128zM777 492l15 -33h15l-63 141h-14
l-64 -141h15l15 33h81zM891 600h-60v-141h60c25 0 51 9 51 38c0 14 -9 29 -26 34c14 5 22 17 22 30c0 28 -22 39 -47 39zM987 600h-14v-141h92v13h-78v128zM1189 459v13h-87v51h82v13h-82v51h86v13h-100v-141h101zM845 538v49h46c17 0 33 -7 33 -26c0 -17 -15 -23 -32 -23
h-47zM109 504l35 81l36 -81h-71zM383 504l36 81l35 -81h-71zM701 504l36 81l35 -81h-71zM845 472v53h47c17 0 36 -8 36 -28s-21 -25 -37 -25h-46zM50 281h14v141h-14v-141zM203 307l-91 115h-9v-141h14v113l91 -113h9v141h-14v-115zM336 408v-127h14v127h50v14h-114v-14h50z
M522 281h14v141h-14v-66h-85v66h-14v-141h14v62h85v-62zM677 281v13h-87v51h81v13h-81v50h85v14h-100v-141h102zM760 281h14v61h80v13h-80v53h83v14h-97v-141zM997 422h-14v-87c0 -30 -20 -43 -42 -43c-24 0 -42 16 -42 43v87h-14v-87c0 -38 26 -56 56 -56c31 0 56 18 56 56
v87zM1049 422h-15v-141h93v13h-78v128zM1164 422h-14v-141h93v13h-79v128zM702 214l12 7c-13 19 -34 25 -53 25c-24 0 -54 -10 -54 -39c0 -28 27 -33 53 -38c22 -4 43 -9 43 -28c0 -23 -24 -27 -42 -27c-17 0 -37 6 -46 24l-13 -7c11 -22 36 -31 59 -31c26 0 57 9 57 41
c0 30 -28 36 -56 41c-22 4 -41 8 -41 25c0 20 23 25 40 25c15 0 33 -4 41 -18zM934 173c0 37 -24 73 -72 73c-45 0 -71 -34 -71 -73c0 -37 23 -74 71 -73c48 -1 72 36 72 73zM255 102l59 142h-16l-51 -126l-53 126h-15l60 -142h16zM440 102v14h-87v51h81v13h-81v50h85v14
h-99v-142h101zM587 102l-49 53c30 2 43 22 43 44c0 24 -16 45 -47 45h-63v-142h14v52h36l47 -52h19zM747 102h14v142h-14v-142zM1064 129l-91 115h-9v-142h14v114l91 -114h8v142h-14v-68zM862 113c-38 0 -56 29 -57 60c-1 32 19 60 57 59c39 1 58 -28 58 -59
s-19 -60 -58 -60zM485 230h49c22 0 33 -14 33 -31c0 -18 -11 -31 -34 -31h-48v62z" />
    <glyph glyph-name="braceright" unicode="}" 
d="M185 492l15 -33h15l-64 141h-14l-63 -141h15l15 33h81zM290 459l59 141h-16l-51 -126l-53 126h-15l60 -141h16zM460 492l14 -33h15l-63 141h-14l-64 -141h15l15 33h82zM513 459h14v141h-14v-141zM580 600h-14v-141h93v13h-79v128zM777 492l15 -33h15l-63 141h-14
l-64 -141h15l15 33h81zM891 600h-60v-141h60c25 0 51 9 51 38c0 14 -9 29 -26 34c14 5 22 17 22 30c0 28 -22 39 -47 39zM987 600h-14v-141h92v13h-78v128zM1189 459v13h-87v51h82v13h-82v51h86v13h-100v-141h101zM845 538v49h46c17 0 33 -7 33 -26c0 -17 -15 -23 -32 -23
h-47zM109 504l35 81l36 -81h-71zM383 504l36 81l35 -81h-71zM701 504l36 81l35 -81h-71zM845 472v53h47c17 0 36 -8 36 -28s-21 -25 -37 -25h-46zM50 281h14v141h-14v-141zM203 307l-91 115h-9v-141h14v113l91 -113h9v141h-14v-115zM336 408v-127h14v127h50v14h-114v-14h50z
M522 281h14v141h-14v-66h-85v66h-14v-141h14v62h85v-62zM677 281v13h-87v51h81v13h-81v50h85v14h-100v-141h102zM760 281h14v61h80v13h-80v53h83v14h-97v-141zM997 422h-14v-87c0 -30 -20 -43 -42 -43c-24 0 -42 16 -42 43v87h-14v-87c0 -38 26 -56 56 -56c31 0 56 18 56 56
v87zM1049 422h-15v-141h93v13h-78v128zM1164 422h-14v-141h93v13h-79v128zM702 214l12 7c-13 19 -34 25 -53 25c-24 0 -54 -10 -54 -39c0 -28 27 -33 53 -38c22 -4 43 -9 43 -28c0 -23 -24 -27 -42 -27c-17 0 -37 6 -46 24l-13 -7c11 -22 36 -31 59 -31c26 0 57 9 57 41
c0 30 -28 36 -56 41c-22 4 -41 8 -41 25c0 20 23 25 40 25c15 0 33 -4 41 -18zM934 173c0 37 -24 73 -72 73c-45 0 -71 -34 -71 -73c0 -37 23 -74 71 -73c48 -1 72 36 72 73zM255 102l59 142h-16l-51 -126l-53 126h-15l60 -142h16zM440 102v14h-87v51h81v13h-81v50h85v14
h-99v-142h101zM587 102l-49 53c30 2 43 22 43 44c0 24 -16 45 -47 45h-63v-142h14v52h36l47 -52h19zM747 102h14v142h-14v-142zM1064 129l-91 115h-9v-142h14v114l91 -114h8v142h-14v-68zM862 113c-38 0 -56 29 -57 60c-1 32 19 60 57 59c39 1 58 -28 58 -59
s-19 -60 -58 -60zM485 230h49c22 0 33 -14 33 -31c0 -18 -11 -31 -34 -31h-48v62z" />
    <glyph glyph-name="bracketleft" unicode="[" 
d="M185 492l15 -33h15l-64 141h-14l-63 -141h15l15 33h81zM290 459l59 141h-16l-51 -126l-53 126h-15l60 -141h16zM460 492l14 -33h15l-63 141h-14l-64 -141h15l15 33h82zM513 459h14v141h-14v-141zM580 600h-14v-141h93v13h-79v128zM777 492l15 -33h15l-63 141h-14
l-64 -141h15l15 33h81zM891 600h-60v-141h60c25 0 51 9 51 38c0 14 -9 29 -26 34c14 5 22 17 22 30c0 28 -22 39 -47 39zM987 600h-14v-141h92v13h-78v128zM1189 459v13h-87v51h82v13h-82v51h86v13h-100v-141h101zM845 538v49h46c17 0 33 -7 33 -26c0 -17 -15 -23 -32 -23
h-47zM109 504l35 81l36 -81h-71zM383 504l36 81l35 -81h-71zM701 504l36 81l35 -81h-71zM845 472v53h47c17 0 36 -8 36 -28s-21 -25 -37 -25h-46zM50 281h14v141h-14v-141zM203 307l-91 115h-9v-141h14v113l91 -113h9v141h-14v-115zM336 408v-127h14v127h50v14h-114v-14h50z
M522 281h14v141h-14v-66h-85v66h-14v-141h14v62h85v-62zM677 281v13h-87v51h81v13h-81v50h85v14h-100v-141h102zM760 281h14v61h80v13h-80v53h83v14h-97v-141zM997 422h-14v-87c0 -30 -20 -43 -42 -43c-24 0 -42 16 -42 43v87h-14v-87c0 -38 26 -56 56 -56c31 0 56 18 56 56
v87zM1049 422h-15v-141h93v13h-78v128zM1164 422h-14v-141h93v13h-79v128zM702 214l12 7c-13 19 -34 25 -53 25c-24 0 -54 -10 -54 -39c0 -28 27 -33 53 -38c22 -4 43 -9 43 -28c0 -23 -24 -27 -42 -27c-17 0 -37 6 -46 24l-13 -7c11 -22 36 -31 59 -31c26 0 57 9 57 41
c0 30 -28 36 -56 41c-22 4 -41 8 -41 25c0 20 23 25 40 25c15 0 33 -4 41 -18zM934 173c0 37 -24 73 -72 73c-45 0 -71 -34 -71 -73c0 -37 23 -74 71 -73c48 -1 72 36 72 73zM255 102l59 142h-16l-51 -126l-53 126h-15l60 -142h16zM440 102v14h-87v51h81v13h-81v50h85v14
h-99v-142h101zM587 102l-49 53c30 2 43 22 43 44c0 24 -16 45 -47 45h-63v-142h14v52h36l47 -52h19zM747 102h14v142h-14v-142zM1064 129l-91 115h-9v-142h14v114l91 -114h8v142h-14v-68zM862 113c-38 0 -56 29 -57 60c-1 32 19 60 57 59c39 1 58 -28 58 -59
s-19 -60 -58 -60zM485 230h49c22 0 33 -14 33 -31c0 -18 -11 -31 -34 -31h-48v62z" />
    <glyph glyph-name="bracketright" unicode="]" 
d="M185 492l15 -33h15l-64 141h-14l-63 -141h15l15 33h81zM290 459l59 141h-16l-51 -126l-53 126h-15l60 -141h16zM460 492l14 -33h15l-63 141h-14l-64 -141h15l15 33h82zM513 459h14v141h-14v-141zM580 600h-14v-141h93v13h-79v128zM777 492l15 -33h15l-63 141h-14
l-64 -141h15l15 33h81zM891 600h-60v-141h60c25 0 51 9 51 38c0 14 -9 29 -26 34c14 5 22 17 22 30c0 28 -22 39 -47 39zM987 600h-14v-141h92v13h-78v128zM1189 459v13h-87v51h82v13h-82v51h86v13h-100v-141h101zM845 538v49h46c17 0 33 -7 33 -26c0 -17 -15 -23 -32 -23
h-47zM109 504l35 81l36 -81h-71zM383 504l36 81l35 -81h-71zM701 504l36 81l35 -81h-71zM845 472v53h47c17 0 36 -8 36 -28s-21 -25 -37 -25h-46zM50 281h14v141h-14v-141zM203 307l-91 115h-9v-141h14v113l91 -113h9v141h-14v-115zM336 408v-127h14v127h50v14h-114v-14h50z
M522 281h14v141h-14v-66h-85v66h-14v-141h14v62h85v-62zM677 281v13h-87v51h81v13h-81v50h85v14h-100v-141h102zM760 281h14v61h80v13h-80v53h83v14h-97v-141zM997 422h-14v-87c0 -30 -20 -43 -42 -43c-24 0 -42 16 -42 43v87h-14v-87c0 -38 26 -56 56 -56c31 0 56 18 56 56
v87zM1049 422h-15v-141h93v13h-78v128zM1164 422h-14v-141h93v13h-79v128zM702 214l12 7c-13 19 -34 25 -53 25c-24 0 -54 -10 -54 -39c0 -28 27 -33 53 -38c22 -4 43 -9 43 -28c0 -23 -24 -27 -42 -27c-17 0 -37 6 -46 24l-13 -7c11 -22 36 -31 59 -31c26 0 57 9 57 41
c0 30 -28 36 -56 41c-22 4 -41 8 -41 25c0 20 23 25 40 25c15 0 33 -4 41 -18zM934 173c0 37 -24 73 -72 73c-45 0 -71 -34 -71 -73c0 -37 23 -74 71 -73c48 -1 72 36 72 73zM255 102l59 142h-16l-51 -126l-53 126h-15l60 -142h16zM440 102v14h-87v51h81v13h-81v50h85v14
h-99v-142h101zM587 102l-49 53c30 2 43 22 43 44c0 24 -16 45 -47 45h-63v-142h14v52h36l47 -52h19zM747 102h14v142h-14v-142zM1064 129l-91 115h-9v-142h14v114l91 -114h8v142h-14v-68zM862 113c-38 0 -56 29 -57 60c-1 32 19 60 57 59c39 1 58 -28 58 -59
s-19 -60 -58 -60zM485 230h49c22 0 33 -14 33 -31c0 -18 -11 -31 -34 -31h-48v62z" />
    <glyph glyph-name="parenleft" unicode="(" 
d="M185 492l15 -33h15l-64 141h-14l-63 -141h15l15 33h81zM290 459l59 141h-16l-51 -126l-53 126h-15l60 -141h16zM460 492l14 -33h15l-63 141h-14l-64 -141h15l15 33h82zM513 459h14v141h-14v-141zM580 600h-14v-141h93v13h-79v128zM777 492l15 -33h15l-63 141h-14
l-64 -141h15l15 33h81zM891 600h-60v-141h60c25 0 51 9 51 38c0 14 -9 29 -26 34c14 5 22 17 22 30c0 28 -22 39 -47 39zM987 600h-14v-141h92v13h-78v128zM1189 459v13h-87v51h82v13h-82v51h86v13h-100v-141h101zM845 538v49h46c17 0 33 -7 33 -26c0 -17 -15 -23 -32 -23
h-47zM109 504l35 81l36 -81h-71zM383 504l36 81l35 -81h-71zM701 504l36 81l35 -81h-71zM845 472v53h47c17 0 36 -8 36 -28s-21 -25 -37 -25h-46zM50 281h14v141h-14v-141zM203 307l-91 115h-9v-141h14v113l91 -113h9v141h-14v-115zM336 408v-127h14v127h50v14h-114v-14h50z
M522 281h14v141h-14v-66h-85v66h-14v-141h14v62h85v-62zM677 281v13h-87v51h81v13h-81v50h85v14h-100v-141h102zM760 281h14v61h80v13h-80v53h83v14h-97v-141zM997 422h-14v-87c0 -30 -20 -43 -42 -43c-24 0 -42 16 -42 43v87h-14v-87c0 -38 26 -56 56 -56c31 0 56 18 56 56
v87zM1049 422h-15v-141h93v13h-78v128zM1164 422h-14v-141h93v13h-79v128zM702 214l12 7c-13 19 -34 25 -53 25c-24 0 -54 -10 -54 -39c0 -28 27 -33 53 -38c22 -4 43 -9 43 -28c0 -23 -24 -27 -42 -27c-17 0 -37 6 -46 24l-13 -7c11 -22 36 -31 59 -31c26 0 57 9 57 41
c0 30 -28 36 -56 41c-22 4 -41 8 -41 25c0 20 23 25 40 25c15 0 33 -4 41 -18zM934 173c0 37 -24 73 -72 73c-45 0 -71 -34 -71 -73c0 -37 23 -74 71 -73c48 -1 72 36 72 73zM255 102l59 142h-16l-51 -126l-53 126h-15l60 -142h16zM440 102v14h-87v51h81v13h-81v50h85v14
h-99v-142h101zM587 102l-49 53c30 2 43 22 43 44c0 24 -16 45 -47 45h-63v-142h14v52h36l47 -52h19zM747 102h14v142h-14v-142zM1064 129l-91 115h-9v-142h14v114l91 -114h8v142h-14v-68zM862 113c-38 0 -56 29 -57 60c-1 32 19 60 57 59c39 1 58 -28 58 -59
s-19 -60 -58 -60zM485 230h49c22 0 33 -14 33 -31c0 -18 -11 -31 -34 -31h-48v62z" />
    <glyph glyph-name="parenright" unicode=")" 
d="M185 492l15 -33h15l-64 141h-14l-63 -141h15l15 33h81zM290 459l59 141h-16l-51 -126l-53 126h-15l60 -141h16zM460 492l14 -33h15l-63 141h-14l-64 -141h15l15 33h82zM513 459h14v141h-14v-141zM580 600h-14v-141h93v13h-79v128zM777 492l15 -33h15l-63 141h-14
l-64 -141h15l15 33h81zM891 600h-60v-141h60c25 0 51 9 51 38c0 14 -9 29 -26 34c14 5 22 17 22 30c0 28 -22 39 -47 39zM987 600h-14v-141h92v13h-78v128zM1189 459v13h-87v51h82v13h-82v51h86v13h-100v-141h101zM845 538v49h46c17 0 33 -7 33 -26c0 -17 -15 -23 -32 -23
h-47zM109 504l35 81l36 -81h-71zM383 504l36 81l35 -81h-71zM701 504l36 81l35 -81h-71zM845 472v53h47c17 0 36 -8 36 -28s-21 -25 -37 -25h-46zM50 281h14v141h-14v-141zM203 307l-91 115h-9v-141h14v113l91 -113h9v141h-14v-115zM336 408v-127h14v127h50v14h-114v-14h50z
M522 281h14v141h-14v-66h-85v66h-14v-141h14v62h85v-62zM677 281v13h-87v51h81v13h-81v50h85v14h-100v-141h102zM760 281h14v61h80v13h-80v53h83v14h-97v-141zM997 422h-14v-87c0 -30 -20 -43 -42 -43c-24 0 -42 16 -42 43v87h-14v-87c0 -38 26 -56 56 -56c31 0 56 18 56 56
v87zM1049 422h-15v-141h93v13h-78v128zM1164 422h-14v-141h93v13h-79v128zM702 214l12 7c-13 19 -34 25 -53 25c-24 0 -54 -10 -54 -39c0 -28 27 -33 53 -38c22 -4 43 -9 43 -28c0 -23 -24 -27 -42 -27c-17 0 -37 6 -46 24l-13 -7c11 -22 36 -31 59 -31c26 0 57 9 57 41
c0 30 -28 36 -56 41c-22 4 -41 8 -41 25c0 20 23 25 40 25c15 0 33 -4 41 -18zM934 173c0 37 -24 73 -72 73c-45 0 -71 -34 -71 -73c0 -37 23 -74 71 -73c48 -1 72 36 72 73zM255 102l59 142h-16l-51 -126l-53 126h-15l60 -142h16zM440 102v14h-87v51h81v13h-81v50h85v14
h-99v-142h101zM587 102l-49 53c30 2 43 22 43 44c0 24 -16 45 -47 45h-63v-142h14v52h36l47 -52h19zM747 102h14v142h-14v-142zM1064 129l-91 115h-9v-142h14v114l91 -114h8v142h-14v-68zM862 113c-38 0 -56 29 -57 60c-1 32 19 60 57 59c39 1 58 -28 58 -59
s-19 -60 -58 -60zM485 230h49c22 0 33 -14 33 -31c0 -18 -11 -31 -34 -31h-48v62z" />
    <glyph glyph-name="emdash" unicode="&#x2014;" 
d="M185 492l15 -33h15l-64 141h-14l-63 -141h15l15 33h81zM290 459l59 141h-16l-51 -126l-53 126h-15l60 -141h16zM460 492l14 -33h15l-63 141h-14l-64 -141h15l15 33h82zM513 459h14v141h-14v-141zM580 600h-14v-141h93v13h-79v128zM777 492l15 -33h15l-63 141h-14
l-64 -141h15l15 33h81zM891 600h-60v-141h60c25 0 51 9 51 38c0 14 -9 29 -26 34c14 5 22 17 22 30c0 28 -22 39 -47 39zM987 600h-14v-141h92v13h-78v128zM1189 459v13h-87v51h82v13h-82v51h86v13h-100v-141h101zM845 538v49h46c17 0 33 -7 33 -26c0 -17 -15 -23 -32 -23
h-47zM109 504l35 81l36 -81h-71zM383 504l36 81l35 -81h-71zM701 504l36 81l35 -81h-71zM845 472v53h47c17 0 36 -8 36 -28s-21 -25 -37 -25h-46zM50 281h14v141h-14v-141zM203 307l-91 115h-9v-141h14v113l91 -113h9v141h-14v-115zM336 408v-127h14v127h50v14h-114v-14h50z
M522 281h14v141h-14v-66h-85v66h-14v-141h14v62h85v-62zM677 281v13h-87v51h81v13h-81v50h85v14h-100v-141h102zM760 281h14v61h80v13h-80v53h83v14h-97v-141zM997 422h-14v-87c0 -30 -20 -43 -42 -43c-24 0 -42 16 -42 43v87h-14v-87c0 -38 26 -56 56 -56c31 0 56 18 56 56
v87zM1049 422h-15v-141h93v13h-78v128zM1164 422h-14v-141h93v13h-79v128zM702 214l12 7c-13 19 -34 25 -53 25c-24 0 -54 -10 -54 -39c0 -28 27 -33 53 -38c22 -4 43 -9 43 -28c0 -23 -24 -27 -42 -27c-17 0 -37 6 -46 24l-13 -7c11 -22 36 -31 59 -31c26 0 57 9 57 41
c0 30 -28 36 -56 41c-22 4 -41 8 -41 25c0 20 23 25 40 25c15 0 33 -4 41 -18zM934 173c0 37 -24 73 -72 73c-45 0 -71 -34 -71 -73c0 -37 23 -74 71 -73c48 -1 72 36 72 73zM255 102l59 142h-16l-51 -126l-53 126h-15l60 -142h16zM440 102v14h-87v51h81v13h-81v50h85v14
h-99v-142h101zM587 102l-49 53c30 2 43 22 43 44c0 24 -16 45 -47 45h-63v-142h14v52h36l47 -52h19zM747 102h14v142h-14v-142zM1064 129l-91 115h-9v-142h14v114l91 -114h8v142h-14v-68zM862 113c-38 0 -56 29 -57 60c-1 32 19 60 57 59c39 1 58 -28 58 -59
s-19 -60 -58 -60zM485 230h49c22 0 33 -14 33 -31c0 -18 -11 -31 -34 -31h-48v62z" />
    <glyph glyph-name="endash" unicode="&#x2013;" 
d="M185 492l15 -33h15l-64 141h-14l-63 -141h15l15 33h81zM290 459l59 141h-16l-51 -126l-53 126h-15l60 -141h16zM460 492l14 -33h15l-63 141h-14l-64 -141h15l15 33h82zM513 459h14v141h-14v-141zM580 600h-14v-141h93v13h-79v128zM777 492l15 -33h15l-63 141h-14
l-64 -141h15l15 33h81zM891 600h-60v-141h60c25 0 51 9 51 38c0 14 -9 29 -26 34c14 5 22 17 22 30c0 28 -22 39 -47 39zM987 600h-14v-141h92v13h-78v128zM1189 459v13h-87v51h82v13h-82v51h86v13h-100v-141h101zM845 538v49h46c17 0 33 -7 33 -26c0 -17 -15 -23 -32 -23
h-47zM109 504l35 81l36 -81h-71zM383 504l36 81l35 -81h-71zM701 504l36 81l35 -81h-71zM845 472v53h47c17 0 36 -8 36 -28s-21 -25 -37 -25h-46zM50 281h14v141h-14v-141zM203 307l-91 115h-9v-141h14v113l91 -113h9v141h-14v-115zM336 408v-127h14v127h50v14h-114v-14h50z
M522 281h14v141h-14v-66h-85v66h-14v-141h14v62h85v-62zM677 281v13h-87v51h81v13h-81v50h85v14h-100v-141h102zM760 281h14v61h80v13h-80v53h83v14h-97v-141zM997 422h-14v-87c0 -30 -20 -43 -42 -43c-24 0 -42 16 -42 43v87h-14v-87c0 -38 26 -56 56 -56c31 0 56 18 56 56
v87zM1049 422h-15v-141h93v13h-78v128zM1164 422h-14v-141h93v13h-79v128zM702 214l12 7c-13 19 -34 25 -53 25c-24 0 -54 -10 -54 -39c0 -28 27 -33 53 -38c22 -4 43 -9 43 -28c0 -23 -24 -27 -42 -27c-17 0 -37 6 -46 24l-13 -7c11 -22 36 -31 59 -31c26 0 57 9 57 41
c0 30 -28 36 -56 41c-22 4 -41 8 -41 25c0 20 23 25 40 25c15 0 33 -4 41 -18zM934 173c0 37 -24 73 -72 73c-45 0 -71 -34 -71 -73c0 -37 23 -74 71 -73c48 -1 72 36 72 73zM255 102l59 142h-16l-51 -126l-53 126h-15l60 -142h16zM440 102v14h-87v51h81v13h-81v50h85v14
h-99v-142h101zM587 102l-49 53c30 2 43 22 43 44c0 24 -16 45 -47 45h-63v-142h14v52h36l47 -52h19zM747 102h14v142h-14v-142zM1064 129l-91 115h-9v-142h14v114l91 -114h8v142h-14v-68zM862 113c-38 0 -56 29 -57 60c-1 32 19 60 57 59c39 1 58 -28 58 -59
s-19 -60 -58 -60zM485 230h49c22 0 33 -14 33 -31c0 -18 -11 -31 -34 -31h-48v62z" />
    <glyph glyph-name="hyphen" unicode="-" 
d="M185 492l15 -33h15l-64 141h-14l-63 -141h15l15 33h81zM290 459l59 141h-16l-51 -126l-53 126h-15l60 -141h16zM460 492l14 -33h15l-63 141h-14l-64 -141h15l15 33h82zM513 459h14v141h-14v-141zM580 600h-14v-141h93v13h-79v128zM777 492l15 -33h15l-63 141h-14
l-64 -141h15l15 33h81zM891 600h-60v-141h60c25 0 51 9 51 38c0 14 -9 29 -26 34c14 5 22 17 22 30c0 28 -22 39 -47 39zM987 600h-14v-141h92v13h-78v128zM1189 459v13h-87v51h82v13h-82v51h86v13h-100v-141h101zM845 538v49h46c17 0 33 -7 33 -26c0 -17 -15 -23 -32 -23
h-47zM109 504l35 81l36 -81h-71zM383 504l36 81l35 -81h-71zM701 504l36 81l35 -81h-71zM845 472v53h47c17 0 36 -8 36 -28s-21 -25 -37 -25h-46zM50 281h14v141h-14v-141zM203 307l-91 115h-9v-141h14v113l91 -113h9v141h-14v-115zM336 408v-127h14v127h50v14h-114v-14h50z
M522 281h14v141h-14v-66h-85v66h-14v-141h14v62h85v-62zM677 281v13h-87v51h81v13h-81v50h85v14h-100v-141h102zM760 281h14v61h80v13h-80v53h83v14h-97v-141zM997 422h-14v-87c0 -30 -20 -43 -42 -43c-24 0 -42 16 -42 43v87h-14v-87c0 -38 26 -56 56 -56c31 0 56 18 56 56
v87zM1049 422h-15v-141h93v13h-78v128zM1164 422h-14v-141h93v13h-79v128zM702 214l12 7c-13 19 -34 25 -53 25c-24 0 -54 -10 -54 -39c0 -28 27 -33 53 -38c22 -4 43 -9 43 -28c0 -23 -24 -27 -42 -27c-17 0 -37 6 -46 24l-13 -7c11 -22 36 -31 59 -31c26 0 57 9 57 41
c0 30 -28 36 -56 41c-22 4 -41 8 -41 25c0 20 23 25 40 25c15 0 33 -4 41 -18zM934 173c0 37 -24 73 -72 73c-45 0 -71 -34 -71 -73c0 -37 23 -74 71 -73c48 -1 72 36 72 73zM255 102l59 142h-16l-51 -126l-53 126h-15l60 -142h16zM440 102v14h-87v51h81v13h-81v50h85v14
h-99v-142h101zM587 102l-49 53c30 2 43 22 43 44c0 24 -16 45 -47 45h-63v-142h14v52h36l47 -52h19zM747 102h14v142h-14v-142zM1064 129l-91 115h-9v-142h14v114l91 -114h8v142h-14v-68zM862 113c-38 0 -56 29 -57 60c-1 32 19 60 57 59c39 1 58 -28 58 -59
s-19 -60 -58 -60zM485 230h49c22 0 33 -14 33 -31c0 -18 -11 -31 -34 -31h-48v62z" />
    <glyph glyph-name="guillemotleft" unicode="&#xab;" 
d="M185 492l15 -33h15l-64 141h-14l-63 -141h15l15 33h81zM290 459l59 141h-16l-51 -126l-53 126h-15l60 -141h16zM460 492l14 -33h15l-63 141h-14l-64 -141h15l15 33h82zM513 459h14v141h-14v-141zM580 600h-14v-141h93v13h-79v128zM777 492l15 -33h15l-63 141h-14
l-64 -141h15l15 33h81zM891 600h-60v-141h60c25 0 51 9 51 38c0 14 -9 29 -26 34c14 5 22 17 22 30c0 28 -22 39 -47 39zM987 600h-14v-141h92v13h-78v128zM1189 459v13h-87v51h82v13h-82v51h86v13h-100v-141h101zM845 538v49h46c17 0 33 -7 33 -26c0 -17 -15 -23 -32 -23
h-47zM109 504l35 81l36 -81h-71zM383 504l36 81l35 -81h-71zM701 504l36 81l35 -81h-71zM845 472v53h47c17 0 36 -8 36 -28s-21 -25 -37 -25h-46zM50 281h14v141h-14v-141zM203 307l-91 115h-9v-141h14v113l91 -113h9v141h-14v-115zM336 408v-127h14v127h50v14h-114v-14h50z
M522 281h14v141h-14v-66h-85v66h-14v-141h14v62h85v-62zM677 281v13h-87v51h81v13h-81v50h85v14h-100v-141h102zM760 281h14v61h80v13h-80v53h83v14h-97v-141zM997 422h-14v-87c0 -30 -20 -43 -42 -43c-24 0 -42 16 -42 43v87h-14v-87c0 -38 26 -56 56 -56c31 0 56 18 56 56
v87zM1049 422h-15v-141h93v13h-78v128zM1164 422h-14v-141h93v13h-79v128zM702 214l12 7c-13 19 -34 25 -53 25c-24 0 -54 -10 -54 -39c0 -28 27 -33 53 -38c22 -4 43 -9 43 -28c0 -23 -24 -27 -42 -27c-17 0 -37 6 -46 24l-13 -7c11 -22 36 -31 59 -31c26 0 57 9 57 41
c0 30 -28 36 -56 41c-22 4 -41 8 -41 25c0 20 23 25 40 25c15 0 33 -4 41 -18zM934 173c0 37 -24 73 -72 73c-45 0 -71 -34 -71 -73c0 -37 23 -74 71 -73c48 -1 72 36 72 73zM255 102l59 142h-16l-51 -126l-53 126h-15l60 -142h16zM440 102v14h-87v51h81v13h-81v50h85v14
h-99v-142h101zM587 102l-49 53c30 2 43 22 43 44c0 24 -16 45 -47 45h-63v-142h14v52h36l47 -52h19zM747 102h14v142h-14v-142zM1064 129l-91 115h-9v-142h14v114l91 -114h8v142h-14v-68zM862 113c-38 0 -56 29 -57 60c-1 32 19 60 57 59c39 1 58 -28 58 -59
s-19 -60 -58 -60zM485 230h49c22 0 33 -14 33 -31c0 -18 -11 -31 -34 -31h-48v62z" />
    <glyph glyph-name="guillemotright" unicode="&#xbb;" 
d="M185 492l15 -33h15l-64 141h-14l-63 -141h15l15 33h81zM290 459l59 141h-16l-51 -126l-53 126h-15l60 -141h16zM460 492l14 -33h15l-63 141h-14l-64 -141h15l15 33h82zM513 459h14v141h-14v-141zM580 600h-14v-141h93v13h-79v128zM777 492l15 -33h15l-63 141h-14
l-64 -141h15l15 33h81zM891 600h-60v-141h60c25 0 51 9 51 38c0 14 -9 29 -26 34c14 5 22 17 22 30c0 28 -22 39 -47 39zM987 600h-14v-141h92v13h-78v128zM1189 459v13h-87v51h82v13h-82v51h86v13h-100v-141h101zM845 538v49h46c17 0 33 -7 33 -26c0 -17 -15 -23 -32 -23
h-47zM109 504l35 81l36 -81h-71zM383 504l36 81l35 -81h-71zM701 504l36 81l35 -81h-71zM845 472v53h47c17 0 36 -8 36 -28s-21 -25 -37 -25h-46zM50 281h14v141h-14v-141zM203 307l-91 115h-9v-141h14v113l91 -113h9v141h-14v-115zM336 408v-127h14v127h50v14h-114v-14h50z
M522 281h14v141h-14v-66h-85v66h-14v-141h14v62h85v-62zM677 281v13h-87v51h81v13h-81v50h85v14h-100v-141h102zM760 281h14v61h80v13h-80v53h83v14h-97v-141zM997 422h-14v-87c0 -30 -20 -43 -42 -43c-24 0 -42 16 -42 43v87h-14v-87c0 -38 26 -56 56 -56c31 0 56 18 56 56
v87zM1049 422h-15v-141h93v13h-78v128zM1164 422h-14v-141h93v13h-79v128zM702 214l12 7c-13 19 -34 25 -53 25c-24 0 -54 -10 -54 -39c0 -28 27 -33 53 -38c22 -4 43 -9 43 -28c0 -23 -24 -27 -42 -27c-17 0 -37 6 -46 24l-13 -7c11 -22 36 -31 59 -31c26 0 57 9 57 41
c0 30 -28 36 -56 41c-22 4 -41 8 -41 25c0 20 23 25 40 25c15 0 33 -4 41 -18zM934 173c0 37 -24 73 -72 73c-45 0 -71 -34 -71 -73c0 -37 23 -74 71 -73c48 -1 72 36 72 73zM255 102l59 142h-16l-51 -126l-53 126h-15l60 -142h16zM440 102v14h-87v51h81v13h-81v50h85v14
h-99v-142h101zM587 102l-49 53c30 2 43 22 43 44c0 24 -16 45 -47 45h-63v-142h14v52h36l47 -52h19zM747 102h14v142h-14v-142zM1064 129l-91 115h-9v-142h14v114l91 -114h8v142h-14v-68zM862 113c-38 0 -56 29 -57 60c-1 32 19 60 57 59c39 1 58 -28 58 -59
s-19 -60 -58 -60zM485 230h49c22 0 33 -14 33 -31c0 -18 -11 -31 -34 -31h-48v62z" />
    <glyph glyph-name="guilsinglleft" unicode="&#x2039;" 
d="M185 492l15 -33h15l-64 141h-14l-63 -141h15l15 33h81zM290 459l59 141h-16l-51 -126l-53 126h-15l60 -141h16zM460 492l14 -33h15l-63 141h-14l-64 -141h15l15 33h82zM513 459h14v141h-14v-141zM580 600h-14v-141h93v13h-79v128zM777 492l15 -33h15l-63 141h-14
l-64 -141h15l15 33h81zM891 600h-60v-141h60c25 0 51 9 51 38c0 14 -9 29 -26 34c14 5 22 17 22 30c0 28 -22 39 -47 39zM987 600h-14v-141h92v13h-78v128zM1189 459v13h-87v51h82v13h-82v51h86v13h-100v-141h101zM845 538v49h46c17 0 33 -7 33 -26c0 -17 -15 -23 -32 -23
h-47zM109 504l35 81l36 -81h-71zM383 504l36 81l35 -81h-71zM701 504l36 81l35 -81h-71zM845 472v53h47c17 0 36 -8 36 -28s-21 -25 -37 -25h-46zM50 281h14v141h-14v-141zM203 307l-91 115h-9v-141h14v113l91 -113h9v141h-14v-115zM336 408v-127h14v127h50v14h-114v-14h50z
M522 281h14v141h-14v-66h-85v66h-14v-141h14v62h85v-62zM677 281v13h-87v51h81v13h-81v50h85v14h-100v-141h102zM760 281h14v61h80v13h-80v53h83v14h-97v-141zM997 422h-14v-87c0 -30 -20 -43 -42 -43c-24 0 -42 16 -42 43v87h-14v-87c0 -38 26 -56 56 -56c31 0 56 18 56 56
v87zM1049 422h-15v-141h93v13h-78v128zM1164 422h-14v-141h93v13h-79v128zM702 214l12 7c-13 19 -34 25 -53 25c-24 0 -54 -10 -54 -39c0 -28 27 -33 53 -38c22 -4 43 -9 43 -28c0 -23 -24 -27 -42 -27c-17 0 -37 6 -46 24l-13 -7c11 -22 36 -31 59 -31c26 0 57 9 57 41
c0 30 -28 36 -56 41c-22 4 -41 8 -41 25c0 20 23 25 40 25c15 0 33 -4 41 -18zM934 173c0 37 -24 73 -72 73c-45 0 -71 -34 -71 -73c0 -37 23 -74 71 -73c48 -1 72 36 72 73zM255 102l59 142h-16l-51 -126l-53 126h-15l60 -142h16zM440 102v14h-87v51h81v13h-81v50h85v14
h-99v-142h101zM587 102l-49 53c30 2 43 22 43 44c0 24 -16 45 -47 45h-63v-142h14v52h36l47 -52h19zM747 102h14v142h-14v-142zM1064 129l-91 115h-9v-142h14v114l91 -114h8v142h-14v-68zM862 113c-38 0 -56 29 -57 60c-1 32 19 60 57 59c39 1 58 -28 58 -59
s-19 -60 -58 -60zM485 230h49c22 0 33 -14 33 -31c0 -18 -11 -31 -34 -31h-48v62z" />
    <glyph glyph-name="guilsinglright" unicode="&#x203a;" 
d="M185 492l15 -33h15l-64 141h-14l-63 -141h15l15 33h81zM290 459l59 141h-16l-51 -126l-53 126h-15l60 -141h16zM460 492l14 -33h15l-63 141h-14l-64 -141h15l15 33h82zM513 459h14v141h-14v-141zM580 600h-14v-141h93v13h-79v128zM777 492l15 -33h15l-63 141h-14
l-64 -141h15l15 33h81zM891 600h-60v-141h60c25 0 51 9 51 38c0 14 -9 29 -26 34c14 5 22 17 22 30c0 28 -22 39 -47 39zM987 600h-14v-141h92v13h-78v128zM1189 459v13h-87v51h82v13h-82v51h86v13h-100v-141h101zM845 538v49h46c17 0 33 -7 33 -26c0 -17 -15 -23 -32 -23
h-47zM109 504l35 81l36 -81h-71zM383 504l36 81l35 -81h-71zM701 504l36 81l35 -81h-71zM845 472v53h47c17 0 36 -8 36 -28s-21 -25 -37 -25h-46zM50 281h14v141h-14v-141zM203 307l-91 115h-9v-141h14v113l91 -113h9v141h-14v-115zM336 408v-127h14v127h50v14h-114v-14h50z
M522 281h14v141h-14v-66h-85v66h-14v-141h14v62h85v-62zM677 281v13h-87v51h81v13h-81v50h85v14h-100v-141h102zM760 281h14v61h80v13h-80v53h83v14h-97v-141zM997 422h-14v-87c0 -30 -20 -43 -42 -43c-24 0 -42 16 -42 43v87h-14v-87c0 -38 26 -56 56 -56c31 0 56 18 56 56
v87zM1049 422h-15v-141h93v13h-78v128zM1164 422h-14v-141h93v13h-79v128zM702 214l12 7c-13 19 -34 25 -53 25c-24 0 -54 -10 -54 -39c0 -28 27 -33 53 -38c22 -4 43 -9 43 -28c0 -23 -24 -27 -42 -27c-17 0 -37 6 -46 24l-13 -7c11 -22 36 -31 59 -31c26 0 57 9 57 41
c0 30 -28 36 -56 41c-22 4 -41 8 -41 25c0 20 23 25 40 25c15 0 33 -4 41 -18zM934 173c0 37 -24 73 -72 73c-45 0 -71 -34 -71 -73c0 -37 23 -74 71 -73c48 -1 72 36 72 73zM255 102l59 142h-16l-51 -126l-53 126h-15l60 -142h16zM440 102v14h-87v51h81v13h-81v50h85v14
h-99v-142h101zM587 102l-49 53c30 2 43 22 43 44c0 24 -16 45 -47 45h-63v-142h14v52h36l47 -52h19zM747 102h14v142h-14v-142zM1064 129l-91 115h-9v-142h14v114l91 -114h8v142h-14v-68zM862 113c-38 0 -56 29 -57 60c-1 32 19 60 57 59c39 1 58 -28 58 -59
s-19 -60 -58 -60zM485 230h49c22 0 33 -14 33 -31c0 -18 -11 -31 -34 -31h-48v62z" />
    <glyph glyph-name="quotedblbase" unicode="&#x201e;" 
d="M185 492l15 -33h15l-64 141h-14l-63 -141h15l15 33h81zM290 459l59 141h-16l-51 -126l-53 126h-15l60 -141h16zM460 492l14 -33h15l-63 141h-14l-64 -141h15l15 33h82zM513 459h14v141h-14v-141zM580 600h-14v-141h93v13h-79v128zM777 492l15 -33h15l-63 141h-14
l-64 -141h15l15 33h81zM891 600h-60v-141h60c25 0 51 9 51 38c0 14 -9 29 -26 34c14 5 22 17 22 30c0 28 -22 39 -47 39zM987 600h-14v-141h92v13h-78v128zM1189 459v13h-87v51h82v13h-82v51h86v13h-100v-141h101zM845 538v49h46c17 0 33 -7 33 -26c0 -17 -15 -23 -32 -23
h-47zM109 504l35 81l36 -81h-71zM383 504l36 81l35 -81h-71zM701 504l36 81l35 -81h-71zM845 472v53h47c17 0 36 -8 36 -28s-21 -25 -37 -25h-46zM50 281h14v141h-14v-141zM203 307l-91 115h-9v-141h14v113l91 -113h9v141h-14v-115zM336 408v-127h14v127h50v14h-114v-14h50z
M522 281h14v141h-14v-66h-85v66h-14v-141h14v62h85v-62zM677 281v13h-87v51h81v13h-81v50h85v14h-100v-141h102zM760 281h14v61h80v13h-80v53h83v14h-97v-141zM997 422h-14v-87c0 -30 -20 -43 -42 -43c-24 0 -42 16 -42 43v87h-14v-87c0 -38 26 -56 56 -56c31 0 56 18 56 56
v87zM1049 422h-15v-141h93v13h-78v128zM1164 422h-14v-141h93v13h-79v128zM702 214l12 7c-13 19 -34 25 -53 25c-24 0 -54 -10 -54 -39c0 -28 27 -33 53 -38c22 -4 43 -9 43 -28c0 -23 -24 -27 -42 -27c-17 0 -37 6 -46 24l-13 -7c11 -22 36 -31 59 -31c26 0 57 9 57 41
c0 30 -28 36 -56 41c-22 4 -41 8 -41 25c0 20 23 25 40 25c15 0 33 -4 41 -18zM934 173c0 37 -24 73 -72 73c-45 0 -71 -34 -71 -73c0 -37 23 -74 71 -73c48 -1 72 36 72 73zM255 102l59 142h-16l-51 -126l-53 126h-15l60 -142h16zM440 102v14h-87v51h81v13h-81v50h85v14
h-99v-142h101zM587 102l-49 53c30 2 43 22 43 44c0 24 -16 45 -47 45h-63v-142h14v52h36l47 -52h19zM747 102h14v142h-14v-142zM1064 129l-91 115h-9v-142h14v114l91 -114h8v142h-14v-68zM862 113c-38 0 -56 29 -57 60c-1 32 19 60 57 59c39 1 58 -28 58 -59
s-19 -60 -58 -60zM485 230h49c22 0 33 -14 33 -31c0 -18 -11 -31 -34 -31h-48v62z" />
    <glyph glyph-name="quotedblleft" unicode="&#x201c;" 
d="M185 492l15 -33h15l-64 141h-14l-63 -141h15l15 33h81zM290 459l59 141h-16l-51 -126l-53 126h-15l60 -141h16zM460 492l14 -33h15l-63 141h-14l-64 -141h15l15 33h82zM513 459h14v141h-14v-141zM580 600h-14v-141h93v13h-79v128zM777 492l15 -33h15l-63 141h-14
l-64 -141h15l15 33h81zM891 600h-60v-141h60c25 0 51 9 51 38c0 14 -9 29 -26 34c14 5 22 17 22 30c0 28 -22 39 -47 39zM987 600h-14v-141h92v13h-78v128zM1189 459v13h-87v51h82v13h-82v51h86v13h-100v-141h101zM845 538v49h46c17 0 33 -7 33 -26c0 -17 -15 -23 -32 -23
h-47zM109 504l35 81l36 -81h-71zM383 504l36 81l35 -81h-71zM701 504l36 81l35 -81h-71zM845 472v53h47c17 0 36 -8 36 -28s-21 -25 -37 -25h-46zM50 281h14v141h-14v-141zM203 307l-91 115h-9v-141h14v113l91 -113h9v141h-14v-115zM336 408v-127h14v127h50v14h-114v-14h50z
M522 281h14v141h-14v-66h-85v66h-14v-141h14v62h85v-62zM677 281v13h-87v51h81v13h-81v50h85v14h-100v-141h102zM760 281h14v61h80v13h-80v53h83v14h-97v-141zM997 422h-14v-87c0 -30 -20 -43 -42 -43c-24 0 -42 16 -42 43v87h-14v-87c0 -38 26 -56 56 -56c31 0 56 18 56 56
v87zM1049 422h-15v-141h93v13h-78v128zM1164 422h-14v-141h93v13h-79v128zM702 214l12 7c-13 19 -34 25 -53 25c-24 0 -54 -10 -54 -39c0 -28 27 -33 53 -38c22 -4 43 -9 43 -28c0 -23 -24 -27 -42 -27c-17 0 -37 6 -46 24l-13 -7c11 -22 36 -31 59 -31c26 0 57 9 57 41
c0 30 -28 36 -56 41c-22 4 -41 8 -41 25c0 20 23 25 40 25c15 0 33 -4 41 -18zM934 173c0 37 -24 73 -72 73c-45 0 -71 -34 -71 -73c0 -37 23 -74 71 -73c48 -1 72 36 72 73zM255 102l59 142h-16l-51 -126l-53 126h-15l60 -142h16zM440 102v14h-87v51h81v13h-81v50h85v14
h-99v-142h101zM587 102l-49 53c30 2 43 22 43 44c0 24 -16 45 -47 45h-63v-142h14v52h36l47 -52h19zM747 102h14v142h-14v-142zM1064 129l-91 115h-9v-142h14v114l91 -114h8v142h-14v-68zM862 113c-38 0 -56 29 -57 60c-1 32 19 60 57 59c39 1 58 -28 58 -59
s-19 -60 -58 -60zM485 230h49c22 0 33 -14 33 -31c0 -18 -11 -31 -34 -31h-48v62z" />
    <glyph glyph-name="quotedblright" unicode="&#x201d;" 
d="M185 492l15 -33h15l-64 141h-14l-63 -141h15l15 33h81zM290 459l59 141h-16l-51 -126l-53 126h-15l60 -141h16zM460 492l14 -33h15l-63 141h-14l-64 -141h15l15 33h82zM513 459h14v141h-14v-141zM580 600h-14v-141h93v13h-79v128zM777 492l15 -33h15l-63 141h-14
l-64 -141h15l15 33h81zM891 600h-60v-141h60c25 0 51 9 51 38c0 14 -9 29 -26 34c14 5 22 17 22 30c0 28 -22 39 -47 39zM987 600h-14v-141h92v13h-78v128zM1189 459v13h-87v51h82v13h-82v51h86v13h-100v-141h101zM845 538v49h46c17 0 33 -7 33 -26c0 -17 -15 -23 -32 -23
h-47zM109 504l35 81l36 -81h-71zM383 504l36 81l35 -81h-71zM701 504l36 81l35 -81h-71zM845 472v53h47c17 0 36 -8 36 -28s-21 -25 -37 -25h-46zM50 281h14v141h-14v-141zM203 307l-91 115h-9v-141h14v113l91 -113h9v141h-14v-115zM336 408v-127h14v127h50v14h-114v-14h50z
M522 281h14v141h-14v-66h-85v66h-14v-141h14v62h85v-62zM677 281v13h-87v51h81v13h-81v50h85v14h-100v-141h102zM760 281h14v61h80v13h-80v53h83v14h-97v-141zM997 422h-14v-87c0 -30 -20 -43 -42 -43c-24 0 -42 16 -42 43v87h-14v-87c0 -38 26 -56 56 -56c31 0 56 18 56 56
v87zM1049 422h-15v-141h93v13h-78v128zM1164 422h-14v-141h93v13h-79v128zM702 214l12 7c-13 19 -34 25 -53 25c-24 0 -54 -10 -54 -39c0 -28 27 -33 53 -38c22 -4 43 -9 43 -28c0 -23 -24 -27 -42 -27c-17 0 -37 6 -46 24l-13 -7c11 -22 36 -31 59 -31c26 0 57 9 57 41
c0 30 -28 36 -56 41c-22 4 -41 8 -41 25c0 20 23 25 40 25c15 0 33 -4 41 -18zM934 173c0 37 -24 73 -72 73c-45 0 -71 -34 -71 -73c0 -37 23 -74 71 -73c48 -1 72 36 72 73zM255 102l59 142h-16l-51 -126l-53 126h-15l60 -142h16zM440 102v14h-87v51h81v13h-81v50h85v14
h-99v-142h101zM587 102l-49 53c30 2 43 22 43 44c0 24 -16 45 -47 45h-63v-142h14v52h36l47 -52h19zM747 102h14v142h-14v-142zM1064 129l-91 115h-9v-142h14v114l91 -114h8v142h-14v-68zM862 113c-38 0 -56 29 -57 60c-1 32 19 60 57 59c39 1 58 -28 58 -59
s-19 -60 -58 -60zM485 230h49c22 0 33 -14 33 -31c0 -18 -11 -31 -34 -31h-48v62z" />
    </font>
</defs>
</svg>
