<svg width="110px" height="60px" viewBox="0 0 110 60" xmlns="http://www.w3.org/2000/svg"><g style="fill: none; fill-rule: evenodd; stroke: none; stroke-width: 1;"><g><g><polygon points="55 60 110 60 110 0 55 0" style="fill: rgb(52, 60, 164);"></polygon></g><polygon points="7 14 48 14 48 7 7 7" style="fill: rgb(223, 224, 230); fill-opacity: 0.6;"></polygon><polygon points="7 27 48 27 48 20 7 20" style="fill: rgb(223, 224, 230); fill-opacity: 0.6;"></polygon><polygon points="7 40 31 40 31 33 7 33" style="fill: rgb(223, 224, 230); fill-opacity: 0.6;"></polygon><path d="M80.06,40 L80.06,30.92 L77,30.92 L77,27.213 L80.06,27.213 L80.06,24.1 C80.06,21.835 81.895, 20 84.159,20 L87.359,20 L87.359,23.333 L85.07,23.333 C84.35,23.333 83.767,23.917 83.767,24.636 L83.767,27.213 L87.301,27.213 L86.813,30.92 L83.767,30.92 L83.767,40" style="fill: rgb(255, 255, 255);"></path></g></g></svg>
