<?xml version="1.0" encoding="iso-8859-1"?>
<!-- Generator: Adobe Illustrator 16.0.0, SVG Export Plug-In . SVG Version: 6.00 Build 0)  -->
<!DOCTYPE svg PUBLIC "-//W3C//DTD SVG 1.1//EN" "http://www.w3.org/Graphics/SVG/1.1/DTD/svg11.dtd">
<svg version="1.1" id="Capa_1" xmlns="http://www.w3.org/2000/svg" xmlns:xlink="http://www.w3.org/1999/xlink" x="0px" y="0px"
	 width="612px" height="612px" viewBox="0 0 612 612" style="enable-background:new 0 0 612 612;" xml:space="preserve">
<g>
	<g id="pause">
		<g>
			<path d="M229.5,191.25c-21.133,0-38.25,17.117-38.25,38.25v153c0,21.133,17.117,38.25,38.25,38.25s38.25-17.117,38.25-38.25v-153
				C267.75,208.367,250.633,191.25,229.5,191.25z M306,0C136.992,0,0,136.992,0,306s136.992,306,306,306s306-136.992,306-306
				S475.008,0,306,0z M306,535.5C179.259,535.5,76.5,432.741,76.5,306S179.259,76.5,306,76.5S535.5,179.259,535.5,306
				S432.741,535.5,306,535.5z M382.5,191.25c-21.133,0-38.25,17.117-38.25,38.25v153c0,21.133,17.117,38.25,38.25,38.25
				s38.25-17.117,38.25-38.25v-153C420.75,208.367,403.633,191.25,382.5,191.25z"/>
		</g>
	</g>
</g>
</svg>
