<?xml version="1.0" encoding="iso-8859-1"?>
<!-- Generator: Adobe Illustrator 16.0.0, SVG Export Plug-In . SVG Version: 6.00 Build 0)  -->
<!DOCTYPE svg PUBLIC "-//W3C//DTD SVG 1.1//EN" "http://www.w3.org/Graphics/SVG/1.1/DTD/svg11.dtd">
<svg version="1.1" id="Capa_1" xmlns="http://www.w3.org/2000/svg" xmlns:xlink="http://www.w3.org/1999/xlink" x="0px" y="0px"
	 width="612px" height="612px" viewBox="0 0 612 612" style="enable-background:new 0 0 612 612;" xml:space="preserve">
<g>
	<g>
		<path d="M306,0C137,0,0,137,0,306c0,169.001,137,306,306,306c169.001,0,306-136.999,306-306C612,137,475.001,0,306,0z
			 M306,512.973c-114.307,0-206.973-92.666-206.973-206.973c0-114.307,92.666-206.973,206.973-206.973
			c114.307,0,206.973,92.666,206.973,206.973C512.973,420.307,420.307,512.973,306,512.973z"/>
		<polygon points="249.583,447.389 430.061,306 249.583,164.612 		"/>
	</g>
</g>
</svg>
