<?xml version="1.0" encoding="iso-8859-1"?>
<!-- Generator: Adobe Illustrator 19.1.0, SVG Export Plug-In . SVG Version: 6.00 Build 0)  -->
<svg version="1.1" id="Capa_1" xmlns="http://www.w3.org/2000/svg" xmlns:xlink="http://www.w3.org/1999/xlink" viewBox="0 0 70 70" fill="rgba(256, 256, 256, 1)"><rect width="10" height="10" fill="#ffffff"></rect><rect x="20" width="10" height="10" fill="#ffffff"></rect><rect x="40" width="10" height="10" fill="#ffffff"></rect><rect x="60" width="10" height="10" fill="#ffffff"></rect><rect x="50" y="10" width="10" height="10" fill="#ffffff"></rect><rect x="30" y="10" width="10" height="10" fill="#ffffff"></rect><rect x="10" y="10" width="10" height="10" fill="#ffffff"></rect><rect y="20" width="10" height="10" fill="#ffffff"></rect><rect x="20" y="20" width="10" height="10" fill="#ffffff"></rect><rect x="40" y="20" width="10" height="10" fill="#ffffff"></rect><rect x="60" y="20" width="10" height="10" fill="#ffffff"></rect><rect x="50" y="30" width="10" height="10" fill="#ffffff"></rect><rect x="30" y="30" width="10" height="10" fill="#ffffff"></rect><rect x="10" y="30" width="10" height="10" fill="#ffffff"></rect><rect y="40" width="10" height="10" fill="#ffffff"></rect><rect x="20" y="40" width="10" height="10" fill="#ffffff"></rect><rect x="40" y="40" width="10" height="10" fill="#ffffff"></rect><rect x="60" y="40" width="10" height="10" fill="#ffffff"></rect><rect x="50" y="50" width="10" height="10" fill="#ffffff"></rect><rect x="30" y="50" width="10" height="10" fill="#ffffff"></rect><rect x="10" y="50" width="10" height="10" fill="#ffffff"></rect><rect y="60" width="10" height="10" fill="#ffffff"></rect><rect x="20" y="60" width="10" height="10" fill="#ffffff"></rect><rect x="40" y="60" width="10" height="10" fill="#ffffff"></rect><rect x="60" y="60" width="10" height="10" fill="#ffffff"></rect></svg>
